<svg width="20" height="20" viewBox="0 0 20 20" fill="none" xmlns="http://www.w3.org/2000/svg">
<path fill-rule="evenodd" clip-rule="evenodd" d="M20 10C20 15.5228 15.5228 20 10 20C4.47715 20 0 15.5228 0 10C0 4.47715 4.47715 0 10 0C15.5228 0 20 4.47715 20 10ZM11 6C11 6.55228 10.5523 7 10 7C9.4477 7 9 6.55228 9 6C9 5.44772 9.4477 5 10 5C10.5523 5 11 5.44772 11 6ZM10 8C9.4477 8 9 8.4477 9 9V14C9 14.5523 9.4477 15 10 15C10.5523 15 11 14.5523 11 14V9C11 8.4477 10.5523 8 10 8Z" fill="#F5F7FA"/>
<path d="M10 8C9.4477 8 9 8.4477 9 9V14C9 14.5523 9.4477 15 10 15C10.5523 15 11 14.5523 11 14V9C11 8.4477 10.5523 8 10 8Z" fill="#5D5D5D"/>
<path d="M11 6C11 6.55228 10.5523 7 10 7C9.4477 7 9 6.55228 9 6C9 5.44772 9.4477 5 10 5C10.5523 5 11 5.44772 11 6Z" fill="#5D5D5D"/>
</svg>
