<svg width="24" height="25" viewBox="0 0 24 25" fill="none" xmlns="http://www.w3.org/2000/svg">
<path opacity="0.3" d="M20 15.2207H4C2.9 15.2207 2 14.3207 2 13.2207V7.2207C2 6.6207 2.4 6.2207 3 6.2207H21C21.6 6.2207 22 6.6207 22 7.2207V13.2207C22 14.3207 21.1 15.2207 20 15.2207ZM13 12.2207H11C10.5 12.2207 10 12.6207 10 13.2207V16.2207C10 16.7207 10.4 17.2207 11 17.2207H13C13.6 17.2207 14 16.8207 14 16.2207V13.2207C14 12.6207 13.6 12.2207 13 12.2207Z" fill="#2E56FF"/>
<path d="M14 6.2207V5.2207H10V6.2207H8V5.2207C8 4.1207 8.9 3.2207 10 3.2207H14C15.1 3.2207 16 4.1207 16 5.2207V6.2207H14ZM20 15.2207H14V16.2207C14 16.8207 13.5 17.2207 13 17.2207H11C10.5 17.2207 10 16.8207 10 16.2207V15.2207H4C3.6 15.2207 3.3 15.1207 3 14.9207V18.2207C3 19.3207 3.9 20.2207 5 20.2207H19C20.1 20.2207 21 19.3207 21 18.2207V14.9207C20.7 15.1207 20.4 15.2207 20 15.2207Z" fill="#2E56FF"/>
</svg>
