<svg width="24" height="25" viewBox="0 0 24 25" fill="none" xmlns="http://www.w3.org/2000/svg">
<path d="M13.002 11.1335V3.23351C13.002 2.63351 13.502 2.13351 14.102 2.23351C16.102 2.43351 17.902 3.33354 19.302 4.83354C20.702 6.23354 21.602 8.13355 21.902 10.0335C22.002 10.6336 21.502 11.1335 20.902 11.1335H13.002Z" fill="#2E56FF"/>
<path opacity="0.3" d="M11.0021 13.9339V5.1339C11.0021 4.5339 10.5021 4.0339 9.90208 4.1339C5.40208 4.7339 1.90209 8.63391 2.00209 13.3339C2.10209 18.2339 6.40208 22.2339 11.3021 22.1339C13.1021 22.0339 14.7021 21.5339 16.0021 20.6339C16.5021 20.3339 16.6021 19.5339 16.1021 19.1339L11.0021 13.9339Z" fill="#2E56FF"/>
<path opacity="0.3" d="M21.902 14.2328C21.702 15.8328 21.102 17.3328 20.102 18.6328C19.702 19.1328 19.002 19.1328 18.602 18.7328L13.002 13.1328H20.902C21.502 13.1328 22.002 13.6328 21.902 14.2328Z" fill="#2E56FF"/>
</svg>
