<svg width="946" height="552" viewBox="0 0 946 552" fill="none" xmlns="http://www.w3.org/2000/svg">
<path opacity="0.9" d="M188.503 277.308L245.085 272.197M754.891 226.145L627.651 237.639M627.651 237.639L693.261 330.78M627.651 237.639L245.085 272.197M693.261 330.78L758.871 423.92L549.431 442.839M693.261 330.78L765.326 324.27M390.258 120.388L429.624 176.273M429.624 176.273L468.991 232.157L547.723 343.926L416.542 355.776L482.152 448.917L549.431 442.839M429.624 176.273L277.893 189.979L192.6 68.8962M245.085 272.197L320.143 378.75M435.617 542.678L363.971 440.968M363.971 440.968L307.389 446.079M363.971 440.968L320.143 378.75M320.143 378.75L221.617 387.65M549.431 442.839L608.743 527.039L713.463 517.579M818.183 508.12L713.463 517.579M713.463 517.579L588.541 340.239L637.805 335.789L519.706 168.136L611.055 159.884M702.403 151.632L611.055 159.884M611.055 159.884L504.241 8.25081" stroke="url(#paint0_radial_176_8621)" stroke-width="2"/>
<path d="M593.941 188.455L593.949 188.469C596.371 192.664 598.811 196.891 601.594 201.263C614.269 222.321 629.005 246.886 632.675 271.793C636.327 296.571 629.033 321.788 597.311 344.148L595.649 344.978L593.602 345.142C547.909 343.525 517.324 328.401 495.233 308.536C473.049 288.587 459.332 263.78 447.617 242.594L447.582 242.53C445.247 238.038 442.806 233.81 440.384 229.615L440.377 229.602C438.824 226.913 439.913 224.285 442.912 223.481C471.168 215.91 488.556 202.809 497.46 182.308C498.582 180.007 501.735 179.162 504.859 180.325C531.877 191.201 557.708 192.722 585.963 185.151C588.963 184.347 592.388 185.766 593.941 188.455Z" stroke="#EAEAEA" stroke-width="3"/>
<path d="M612.953 180.411C610.184 176.062 607.754 171.853 605.324 167.645C603.357 164.238 598.947 162.412 595.148 163.43C567.208 170.916 541.809 169.391 515.242 158.692C511.287 157.206 507.264 158.284 505.854 161.207C497.105 181.37 480.036 194.274 452.097 201.76C448.297 202.778 446.895 206.162 448.862 209.569C451.292 213.777 453.722 217.986 456.044 222.454C479.447 264.778 511.428 322.852 603.882 326.079L606.348 325.881L608.352 324.881C672.583 279.671 638.259 222.455 612.953 180.411Z" fill="#EAEAEA"/>
<defs>
<radialGradient id="paint0_radial_176_8621" cx="0" cy="0" r="1" gradientUnits="userSpaceOnUse" gradientTransform="translate(472.733 237.237) rotate(10.8641) scale(412.121 304.894)">
<stop stop-color="#EAEAEA"/>
<stop offset="1" stop-color="#F5F7FA"/>
</radialGradient>
</defs>
</svg>
