<svg width="24" height="25" viewBox="0 0 24 25" fill="none" xmlns="http://www.w3.org/2000/svg">
<path opacity="0.3" d="M3.2002 6.13967L16.9002 3.23965C17.4002 3.13965 18.0002 3.4397 18.1002 4.0397L19.2002 9.23965L3.2002 6.13967Z" fill="#2E56FF"/>
<path opacity="0.3" d="M13 14.1387C13 12.4387 14.3 11.1387 16 11.1387H21C21.6 11.1387 22 11.5387 22 12.1387V16.1387C22 16.7387 21.6 17.1387 21 17.1387H16C14.3 17.1387 13 15.8387 13 14.1387ZM16 12.6387C15.2 12.6387 14.5 13.3387 14.5 14.1387C14.5 14.9387 15.2 15.6387 16 15.6387C16.8 15.6387 17.5 14.9387 17.5 14.1387C17.5 13.3387 16.8 12.6387 16 12.6387Z" fill="#2E56FF"/>
<path d="M13 14.1406C13 12.4406 14.3 11.1406 16 11.1406H21V8.14062C21 7.04062 20.1 6.14062 19 6.14062H3C2.4 6.14062 2 6.54062 2 7.14062V21.1406C2 21.7406 2.4 22.1406 3 22.1406H19C20.1 22.1406 21 21.2406 21 20.1406V17.1406H16C14.3 17.1406 13 15.8406 13 14.1406Z" fill="#2E56FF"/>
</svg>
