<svg width="24" height="25" viewBox="0 0 24 25" fill="none" xmlns="http://www.w3.org/2000/svg">
<path opacity="0.3" d="M20 18.2207H4C3.4 18.2207 3 17.8207 3 17.2207V7.2207C3 6.6207 3.4 6.2207 4 6.2207H20C20.6 6.2207 21 6.6207 21 7.2207V17.2207C21 17.8207 20.6 18.2207 20 18.2207ZM12 8.2207C10.3 8.2207 9 10.0207 9 12.2207C9 14.4207 10.3 16.2207 12 16.2207C13.7 16.2207 15 14.4207 15 12.2207C15 10.0207 13.7 8.2207 12 8.2207Z" fill="#2E56FF"/>
<path d="M18 6.2207H20C20.6 6.2207 21 6.6207 21 7.2207V9.2207C19.3 9.2207 18 7.9207 18 6.2207ZM6 6.2207H4C3.4 6.2207 3 6.6207 3 7.2207V9.2207C4.7 9.2207 6 7.9207 6 6.2207ZM21 17.2207V15.2207C19.3 15.2207 18 16.5207 18 18.2207H20C20.6 18.2207 21 17.8207 21 17.2207ZM3 15.2207V17.2207C3 17.8207 3.4 18.2207 4 18.2207H6C6 16.5207 4.7 15.2207 3 15.2207Z" fill="#2E56FF"/>
</svg>
