<svg width="142" height="104" viewBox="0 0 142 104" fill="none" xmlns="http://www.w3.org/2000/svg">
<g style="mix-blend-mode:overlay">
<path d="M19.6569 87.5017C16.3433 78.4501 15.2591 68.7335 16.4962 59.1742C17.7334 49.6149 21.2553 40.4944 26.7641 32.5846C32.2728 24.6749 39.6061 18.2087 48.1432 13.7336C56.6804 9.25841 66.17 6.90594 75.8089 6.8753C85.4478 6.84466 94.9522 9.13675 103.518 13.5576C112.083 17.9784 119.457 24.3977 125.016 32.2723C130.575 40.1469 134.155 49.2448 135.453 58.7961C136.751 68.3473 135.728 78.0706 132.472 87.143" stroke="white" stroke-opacity="0.7" stroke-width="8.12153" stroke-linecap="round"/>
</g>
<g style="mix-blend-mode:overlay">
<path d="M30.1431 83.9241C27.4348 76.5263 26.5488 68.5848 27.5599 60.7719C28.571 52.959 31.4495 45.5047 35.9519 39.04C40.4542 32.5753 46.4477 27.2905 53.4252 23.6329C60.4027 19.9753 68.1586 18.0526 76.0366 18.0276C83.9145 18.0025 91.6826 19.8759 98.6832 23.489C105.684 27.1022 111.711 32.3488 116.254 38.7848C120.797 45.2207 123.723 52.6565 124.784 60.4628C125.845 68.2691 125.009 76.2161 122.348 83.631" stroke="white" stroke-opacity="0.7" stroke-width="1.10748" stroke-linecap="round" stroke-dasharray="0.37 9.23"/>
</g>
<g opacity="0.5" filter="url(#filter0_f_779_718)">
<g style="mix-blend-mode:overlay">
<path d="M19.6569 87.5017C16.9482 80.1026 15.7234 72.2424 16.0523 64.37C16.3813 56.4976 18.2576 48.767 21.5741 41.6197" stroke="url(#paint0_radial_779_718)" stroke-width="8.12153" stroke-linecap="round"/>
</g>
<g style="mix-blend-mode:color-dodge">
<path d="M19.6569 87.5017C16.9482 80.1026 15.7234 72.2424 16.0523 64.37C16.3813 56.4976 18.2576 48.767 21.5741 41.6197" stroke="url(#paint1_radial_779_718)" stroke-width="8.12153" stroke-linecap="round"/>
</g>
</g>
<g style="mix-blend-mode:overlay">
<path d="M19.6569 87.5017C16.9482 80.1026 15.7234 72.2424 16.0523 64.37C16.3813 56.4976 18.2576 48.767 21.5741 41.6197" stroke="url(#paint2_radial_779_718)" stroke-width="8.12153" stroke-linecap="round"/>
</g>
<g style="mix-blend-mode:color-dodge">
<path d="M19.6569 87.5017C16.9482 80.1026 15.7234 72.2424 16.0523 64.37C16.3813 56.4976 18.2576 48.767 21.5741 41.6197" stroke="url(#paint3_radial_779_718)" stroke-width="8.12153" stroke-linecap="round"/>
</g>
<g style="mix-blend-mode:overlay">
<path d="M84.6612 67.2584C84.6612 71.8297 80.9555 75.5354 76.3843 75.5354C71.8131 75.5354 68.1074 71.8297 68.1074 67.2584C68.1074 62.6872 71.8131 58.9815 76.3843 58.9815C80.9555 58.9815 84.6612 62.6872 84.6612 67.2584Z" fill="white" fill-opacity="0.7"/>
<path d="M84.6612 67.2584C84.6612 71.8297 80.9555 75.5354 76.3843 75.5354C71.8131 75.5354 68.1074 71.8297 68.1074 67.2584C68.1074 62.6872 71.8131 58.9815 76.3843 58.9815C80.9555 58.9815 84.6612 62.6872 84.6612 67.2584Z" stroke="white" stroke-width="0.36916"/>
</g>
<g style="mix-blend-mode:overlay">
<ellipse cx="76.3843" cy="67.2608" rx="2.30768" ry="2.30769" fill="white" fill-opacity="0.7"/>
</g>
<path d="M76.0413 67.8081C76.367 67.9549 76.7477 67.8244 76.9143 67.5088V67.5088C77.1018 67.1536 76.9447 66.7101 76.5753 66.5516L8.26403 37.2508L76.0413 67.8081Z" fill="#80A6FF"/>
<g filter="url(#filter1_f_779_718)">
<path d="M76.0413 67.8081C76.367 67.9549 76.7477 67.8244 76.9143 67.5088V67.5088C77.1018 67.1536 76.9447 66.7101 76.5753 66.5516L8.26403 37.2508L76.0413 67.8081Z" fill="#80A6FF"/>
</g>
<g filter="url(#filter2_f_779_718)">
<path d="M76.0413 67.8081C76.367 67.9549 76.7477 67.8244 76.9143 67.5088V67.5088C77.1018 67.1536 76.9447 66.7101 76.5753 66.5516L8.26403 37.2508L76.0413 67.8081Z" fill="#80A6FF"/>
</g>
<g style="mix-blend-mode:plus-lighter">
<path d="M76.0413 67.8081C76.367 67.9549 76.7477 67.8244 76.9143 67.5088V67.5088C77.1018 67.1536 76.9447 66.7101 76.5753 66.5516L8.26403 37.2508L76.0413 67.8081Z" fill="#80A6FF"/>
</g>
<defs>
<filter id="filter0_f_779_718" x="0.126318" y="25.7455" width="37.3226" height="77.6321" filterUnits="userSpaceOnUse" color-interpolation-filters="sRGB">
<feFlood flood-opacity="0" result="BackgroundImageFix"/>
<feBlend mode="normal" in="SourceGraphic" in2="BackgroundImageFix" result="shape"/>
<feGaussianBlur stdDeviation="5.90657" result="effect1_foregroundBlur_779_718"/>
</filter>
<filter id="filter1_f_779_718" x="6.78752" y="35.7734" width="71.6828" height="33.5724" filterUnits="userSpaceOnUse" color-interpolation-filters="sRGB">
<feFlood flood-opacity="0" result="BackgroundImageFix"/>
<feBlend mode="normal" in="SourceGraphic" in2="BackgroundImageFix" result="shape"/>
<feGaussianBlur stdDeviation="0.738321" result="effect1_foregroundBlur_779_718"/>
</filter>
<filter id="filter2_f_779_718" x="0.880951" y="29.8668" width="83.4959" height="45.3856" filterUnits="userSpaceOnUse" color-interpolation-filters="sRGB">
<feFlood flood-opacity="0" result="BackgroundImageFix"/>
<feBlend mode="normal" in="SourceGraphic" in2="BackgroundImageFix" result="shape"/>
<feGaussianBlur stdDeviation="3.6916" result="effect1_foregroundBlur_779_718"/>
</filter>
<radialGradient id="paint0_radial_779_718" cx="0" cy="0" r="1" gradientUnits="userSpaceOnUse" gradientTransform="translate(19.4727 36.9526) rotate(93.6054) scale(55.224 44.369)">
<stop stop-color="#91B2FF"/>
<stop offset="0.930909" stop-color="#054BED"/>
<stop offset="1" stop-color="white" stop-opacity="0"/>
</radialGradient>
<radialGradient id="paint1_radial_779_718" cx="0" cy="0" r="1" gradientUnits="userSpaceOnUse" gradientTransform="translate(16 39.5069) rotate(83.4381) scale(57.7077 134.193)">
<stop stop-color="#97B6FF"/>
<stop offset="0.834495" stop-color="#054BED" stop-opacity="0.2"/>
<stop offset="1" stop-color="white" stop-opacity="0"/>
</radialGradient>
<radialGradient id="paint2_radial_779_718" cx="0" cy="0" r="1" gradientUnits="userSpaceOnUse" gradientTransform="translate(26.568 33.8307) rotate(100.285) scale(59.1877 47.5538)">
<stop stop-color="#85AAFF"/>
<stop offset="0.986461" stop-color="#054BED"/>
<stop offset="1" stop-color="white" stop-opacity="0"/>
</radialGradient>
<radialGradient id="paint3_radial_779_718" cx="0" cy="0" r="1" gradientUnits="userSpaceOnUse" gradientTransform="translate(24.2975 37.5202) rotate(96.6438) scale(71.718 166.772)">
<stop stop-color="#99B8FF"/>
<stop offset="0.454611" stop-color="#054BED" stop-opacity="0.2"/>
<stop offset="1" stop-color="white" stop-opacity="0"/>
</radialGradient>
</defs>
</svg>
