<svg width="148" height="113" viewBox="0 0 148 113" fill="none" xmlns="http://www.w3.org/2000/svg">
<g style="mix-blend-mode:overlay">
<path d="M19.6569 96.4997C16.3433 87.4482 15.2591 77.7315 16.4962 68.1723C17.7334 58.613 21.2553 49.4924 26.7641 41.5827C32.2728 33.6729 39.6061 27.2068 48.1432 22.7316C56.6804 18.2565 66.17 15.904 75.8089 15.8734C85.4478 15.8427 94.9522 18.1348 103.518 22.5556C112.083 26.9764 119.457 33.3958 125.016 41.2703C130.575 49.1449 134.155 58.2429 135.453 67.7941C136.751 77.3453 135.728 87.0687 132.472 96.1411" stroke="white" stroke-opacity="0.7" stroke-width="8.12153" stroke-linecap="round"/>
</g>
<g style="mix-blend-mode:overlay">
<path d="M30.1431 92.9222C27.4348 85.5243 26.5488 77.5828 27.5599 69.7699C28.571 61.9571 31.4495 54.5028 35.9519 48.0381C40.4542 41.5734 46.4477 36.2885 53.4252 32.631C60.4027 28.9734 68.1586 27.0507 76.0366 27.0256C83.9145 27.0006 91.6826 28.8739 98.6832 32.4871C105.684 36.1002 111.711 41.3468 116.254 47.7828C120.797 54.2187 123.723 61.6546 124.784 69.4609C125.845 77.2672 125.009 85.2141 122.348 92.6291" stroke="white" stroke-opacity="0.7" stroke-width="1.10748" stroke-linecap="round" stroke-dasharray="0.37 9.23"/>
</g>
<g opacity="0.5" filter="url(#filter0_f_126_8914)">
<g style="mix-blend-mode:overlay">
<path d="M19.6569 96.4997C14.5103 82.4413 14.8052 66.9668 20.4837 53.1147C26.1622 39.2626 36.814 28.0338 50.3476 21.6332C63.8811 15.2326 79.3185 14.1227 93.6285 18.5213C107.939 22.92 120.087 32.5095 127.689 45.4068" stroke="url(#paint0_radial_126_8914)" stroke-width="8.12153" stroke-linecap="round"/>
</g>
<g style="mix-blend-mode:color-dodge">
<path d="M19.6569 96.4997C14.5047 82.426 14.806 66.9336 20.5017 53.0709C26.1973 39.2082 36.8748 27.979 50.4332 21.5928C63.9916 15.2066 79.4491 14.1258 93.7642 18.5632C108.079 23.0006 120.216 32.6347 127.785 45.57" stroke="url(#paint1_radial_126_8914)" stroke-width="8.12153" stroke-linecap="round"/>
</g>
</g>
<g style="mix-blend-mode:overlay">
<path d="M19.6569 96.4997C14.5225 82.4746 14.8034 67.0386 20.4449 53.2096C26.0863 39.3806 36.6827 28.1528 50.1623 21.7212C63.642 15.2896 79.0357 14.1167 93.3342 18.4317C107.633 22.7467 119.808 32.2394 127.479 45.0541" stroke="url(#paint2_radial_126_8914)" stroke-width="8.12153" stroke-linecap="round"/>
</g>
<g style="mix-blend-mode:color-dodge">
<path d="M19.6569 96.4997C14.5225 82.4746 14.8034 67.0386 20.4449 53.2096C26.0863 39.3806 36.6827 28.1528 50.1623 21.7212C63.642 15.2896 79.0357 14.1167 93.3342 18.4317C107.633 22.7467 119.808 32.2394 127.479 45.0541" stroke="url(#paint3_radial_126_8914)" stroke-width="8.12153" stroke-linecap="round"/>
</g>
<g style="mix-blend-mode:overlay">
<path d="M84.6612 76.2565C84.6612 80.8277 80.9555 84.5334 76.3843 84.5334C71.8131 84.5334 68.1074 80.8277 68.1074 76.2565C68.1074 71.6852 71.8131 67.9795 76.3843 67.9795C80.9555 67.9795 84.6612 71.6852 84.6612 76.2565Z" fill="white" fill-opacity="0.7"/>
<path d="M84.6612 76.2565C84.6612 80.8277 80.9555 84.5334 76.3843 84.5334C71.8131 84.5334 68.1074 80.8277 68.1074 76.2565C68.1074 71.6852 71.8131 67.9795 76.3843 67.9795C80.9555 67.9795 84.6612 71.6852 84.6612 76.2565Z" stroke="white" stroke-width="0.36916"/>
</g>
<g style="mix-blend-mode:overlay">
<ellipse cx="76.3839" cy="76.2589" rx="2.30768" ry="2.30769" fill="white" fill-opacity="0.7"/>
</g>
<path d="M76.2579 75.5316C75.9491 75.7113 75.8341 76.0969 75.994 76.416C76.1741 76.775 76.6263 76.9049 76.9699 76.6964L140.518 38.1393L76.2579 75.5316Z" fill="#DE835C"/>
<g filter="url(#filter1_f_126_8914)">
<path d="M76.2579 75.5316C75.9491 75.7113 75.8341 76.0969 75.994 76.416C76.1741 76.775 76.6263 76.9049 76.9699 76.6964L140.518 38.1393L76.2579 75.5316Z" fill="#DE835C"/>
</g>
<g filter="url(#filter2_f_126_8914)">
<path d="M76.2579 75.5316C75.9491 75.7113 75.8341 76.0969 75.994 76.416C76.1741 76.775 76.6263 76.9049 76.9699 76.6964L140.518 38.1393L76.2579 75.5316Z" fill="#DE835C"/>
</g>
<g style="mix-blend-mode:plus-lighter">
<path d="M76.2579 75.5316C75.9491 75.7113 75.8341 76.0969 75.994 76.416C76.1741 76.775 76.6263 76.9049 76.9699 76.6964L140.518 38.1393L76.2579 75.5316Z" fill="#DE835C"/>
</g>
<defs>
<filter id="filter0_f_126_8914" x="0.126318" y="-0.000635147" width="143.533" height="112.376" filterUnits="userSpaceOnUse" color-interpolation-filters="sRGB">
<feFlood flood-opacity="0" result="BackgroundImageFix"/>
<feBlend mode="normal" in="SourceGraphic" in2="BackgroundImageFix" result="shape"/>
<feGaussianBlur stdDeviation="5.90657" result="effect1_foregroundBlur_126_8914"/>
</filter>
<filter id="filter1_f_126_8914" x="74.4452" y="36.662" width="67.549" height="41.6115" filterUnits="userSpaceOnUse" color-interpolation-filters="sRGB">
<feFlood flood-opacity="0" result="BackgroundImageFix"/>
<feBlend mode="normal" in="SourceGraphic" in2="BackgroundImageFix" result="shape"/>
<feGaussianBlur stdDeviation="0.738321" result="effect1_foregroundBlur_126_8914"/>
</filter>
<filter id="filter2_f_126_8914" x="68.5387" y="30.7555" width="79.3621" height="53.4246" filterUnits="userSpaceOnUse" color-interpolation-filters="sRGB">
<feFlood flood-opacity="0" result="BackgroundImageFix"/>
<feBlend mode="normal" in="SourceGraphic" in2="BackgroundImageFix" result="shape"/>
<feGaussianBlur stdDeviation="3.6916" result="effect1_foregroundBlur_126_8914"/>
</filter>
<radialGradient id="paint0_radial_126_8914" cx="0" cy="0" r="1" gradientUnits="userSpaceOnUse" gradientTransform="translate(94.0765 13.373) rotate(131.68) scale(117.413 94.3343)">
<stop stop-color="#FFB18F"/>
<stop offset="0.378581" stop-color="#FF4D00"/>
<stop offset="1" stop-color="white" stop-opacity="0"/>
</radialGradient>
<radialGradient id="paint1_radial_126_8914" cx="0" cy="0" r="1" gradientUnits="userSpaceOnUse" gradientTransform="translate(97.7303 22.0269) rotate(135.76) scale(122.938 285.879)">
<stop stop-color="#FFB798"/>
<stop offset="0.383293" stop-color="#FF4D00" stop-opacity="0.2"/>
<stop offset="0.42" stop-color="#FA1414" stop-opacity="0"/>
</radialGradient>
<radialGradient id="paint2_radial_126_8914" cx="0" cy="0" r="1" gradientUnits="userSpaceOnUse" gradientTransform="translate(126.142 39.9638) rotate(151.39) scale(135.825 109.128)">
<stop stop-color="#F3B99F"/>
<stop offset="0.934857" stop-color="#FF4D00"/>
<stop offset="1" stop-color="white" stop-opacity="0"/>
</radialGradient>
<radialGradient id="paint3_radial_126_8914" cx="0" cy="0" r="1" gradientUnits="userSpaceOnUse" gradientTransform="translate(128.499 44.3346) rotate(151.899) scale(134.728 313.295)">
<stop stop-color="#FFD8C7"/>
<stop offset="0.130178" stop-color="#FF4D00" stop-opacity="0.2"/>
<stop offset="1" stop-color="white" stop-opacity="0"/>
</radialGradient>
</defs>
</svg>
