<svg width="9" height="6" viewBox="0 0 9 6" fill="none" xmlns="http://www.w3.org/2000/svg">
<path fill-rule="evenodd" clip-rule="evenodd" d="M5.15988 5.69659C4.98327 5.89087 4.74387 6 4.49426 6C4.24465 6 4.00525 5.89087 3.82864 5.69659L0.275746 1.78472C0.0991297 1.59009 -5.9059e-05 1.32617 -1.90128e-07 1.05099C2.89588e-05 0.914742 0.0244231 0.77983 0.0717895 0.653963C0.119156 0.528095 0.188567 0.413736 0.27606 0.317415C0.363552 0.221093 0.467413 0.144695 0.581712 0.0925836C0.696011 0.040472 0.81851 0.0136671 0.942214 0.013699C1.06592 0.013731 1.18841 0.0406002 1.30268 0.092771C1.41696 0.144942 1.52079 0.221393 1.60824 0.31776L4.49426 3.49582L7.38028 0.317068C7.46712 0.217937 7.57103 0.138848 7.68592 0.0844175C7.80081 0.029987 7.9244 0.00130523 8.04946 4.35172e-05C8.17453 -0.00121772 8.29857 0.0249673 8.41435 0.0770708C8.53013 0.129175 8.63533 0.206153 8.72381 0.303516C8.81229 0.400879 8.88228 0.516675 8.92969 0.644149C8.97711 0.771623 9.001 0.90822 8.99997 1.04597C8.99894 1.18372 8.97302 1.31987 8.92371 1.44647C8.8744 1.57307 8.80269 1.68758 8.71277 1.78333L5.15988 5.69798L5.15988 5.69659Z" fill="white"/>
</svg>
