<svg width="61" height="21" viewBox="0 0 61 21" fill="none" xmlns="http://www.w3.org/2000/svg">
<path d="M43.4771 16.0009V0.301758H46.628V16.0009H43.4771Z" fill="#F7A600"/>
<path d="M6.75492 20.6642H0V4.96511H6.48329C9.63421 4.96511 11.4702 6.68492 11.4702 9.37509C11.4702 11.1165 10.2911 12.2418 9.47491 12.6165C10.4491 13.0573 11.6961 14.0493 11.6961 16.1449C11.6961 19.0765 9.63421 20.6642 6.75492 20.6642ZM6.23389 7.69973H3.1509V11.3158H6.23389C7.57108 11.3158 8.31928 10.5881 8.31928 9.50718C8.31928 8.42748 7.57108 7.69973 6.23389 7.69973ZM6.43761 14.0721H3.1509V17.9308H6.43761C7.86613 17.9308 8.54519 17.0493 8.54519 15.99C8.54519 14.932 7.86486 14.0721 6.43761 14.0721Z" fill="white"/>
<path d="M21.3067 14.2258V20.6642H18.178V14.2258L13.327 4.96511H16.7495L19.7646 11.293L22.734 4.96511H26.1565L21.3067 14.2258Z" fill="white"/>
<path d="M35.0895 20.6642H28.3346V4.96511H34.8179C37.9688 4.96511 39.8047 6.68492 39.8047 9.37509C39.8047 11.1165 38.6256 12.2418 37.8095 12.6165C38.7837 13.0573 40.0307 14.0493 40.0307 16.1449C40.0307 19.0765 37.9688 20.6642 35.0895 20.6642ZM34.5685 7.69973H31.4855V11.3158H34.5685C35.9057 11.3158 36.6538 10.5881 36.6538 9.50718C36.6538 8.42748 35.9057 7.69973 34.5685 7.69973ZM34.7722 14.0721H31.4855V17.9308H34.7722C36.2007 17.9308 36.8798 17.0493 36.8798 15.99C36.8798 14.932 36.2007 14.0721 34.7722 14.0721Z" fill="white"/>
<path d="M56.7833 7.69973V20.6654H53.6324V7.69973H49.416V4.96511H60.9997V7.69973H56.7833Z" fill="white"/>
</svg>
