<svg width="135" height="57" viewBox="0 0 135 57" fill="none" xmlns="http://www.w3.org/2000/svg">
<ellipse opacity="0.8" cx="27" cy="28" rx="27" ry="28" transform="matrix(-1 0 0 1 54 0.132812)" fill="url(#paint0_radial_97_8001)"/>
<ellipse opacity="0.8" cx="108" cy="28.1328" rx="27" ry="28" fill="url(#paint1_radial_97_8001)"/>
<ellipse cx="27" cy="28" rx="27" ry="28" transform="matrix(-1 0 0 1 74.25 0.132812)" fill="url(#paint2_radial_97_8001)"/>
<ellipse cx="87.75" cy="28.1328" rx="27" ry="28" fill="url(#paint3_radial_97_8001)"/>
<ellipse cx="67.5" cy="28.1328" rx="27" ry="28" fill="#FFBA2F"/>
<path d="M66.2292 42.1331V15.2998H67.9375V42.1331H66.2292ZM70.7604 24.1569C70.6771 23.3114 70.3194 22.6545 69.6875 22.1863C69.0556 21.7181 68.1979 21.484 67.1146 21.484C66.3785 21.484 65.7569 21.5889 65.25 21.7985C64.7431 22.0012 64.3542 22.2842 64.0833 22.6475C63.8194 23.0109 63.6875 23.4232 63.6875 23.8844C63.6736 24.2687 63.7535 24.6041 63.9271 24.8906C64.1076 25.1771 64.3542 25.4252 64.6667 25.6348C64.9792 25.8375 65.3403 26.0157 65.75 26.1694C66.1597 26.3161 66.5972 26.4419 67.0625 26.5467L68.9792 27.0079C69.9097 27.2176 70.7639 27.4971 71.5417 27.8465C72.3194 28.1959 72.9931 28.6256 73.5625 29.1357C74.1319 29.6459 74.5729 30.2468 74.8854 30.9386C75.2049 31.6304 75.3681 32.4235 75.375 33.318C75.3681 34.6317 75.0347 35.7707 74.375 36.735C73.7222 37.6924 72.7778 38.4366 71.5417 38.9676C70.3125 39.4917 68.8299 39.7538 67.0938 39.7538C65.3715 39.7538 63.8715 39.4882 62.5938 38.9572C61.3229 38.4261 60.3299 37.64 59.6146 36.5988C58.9063 35.5506 58.5347 34.2543 58.5 32.71H62.8646C62.9132 33.4298 63.1181 34.0307 63.4792 34.5129C63.8472 34.9881 64.3368 35.3479 64.9479 35.5925C65.566 35.8301 66.2639 35.9489 67.0417 35.9489C67.8056 35.9489 68.4688 35.8371 69.0313 35.6135C69.6007 35.3899 70.0417 35.0789 70.3542 34.6806C70.6667 34.2823 70.8229 33.8246 70.8229 33.3075C70.8229 32.8253 70.6806 32.42 70.3958 32.0916C70.1181 31.7632 69.7083 31.4837 69.1667 31.2531C68.6319 31.0225 67.9757 30.8128 67.1979 30.6242L64.875 30.0372C63.0764 29.5969 61.6563 28.9086 60.6146 27.9723C59.5729 27.0359 59.0556 25.7746 59.0625 24.1883C59.0556 22.8886 59.3993 21.7531 60.0938 20.7818C60.7951 19.8105 61.7569 19.0523 62.9792 18.5072C64.2014 17.9622 65.5903 17.6896 67.1458 17.6896C68.7292 17.6896 70.1111 17.9622 71.2917 18.5072C72.4792 19.0523 73.4028 19.8105 74.0625 20.7818C74.7222 21.7531 75.0625 22.8781 75.0833 24.1569H70.7604Z" fill="white"/>
<defs>
<radialGradient id="paint0_radial_97_8001" cx="0" cy="0" r="1" gradientUnits="userSpaceOnUse" gradientTransform="translate(4.14794e-07 28) rotate(2.08212) scale(75.1583 72.2438)">
<stop stop-color="#0E0E0E"/>
<stop offset="1" stop-color="#FFC44E"/>
</radialGradient>
<radialGradient id="paint1_radial_97_8001" cx="0" cy="0" r="1" gradientUnits="userSpaceOnUse" gradientTransform="translate(81 28.1328) rotate(2.08212) scale(75.1583 72.2438)">
<stop stop-color="#0E0E0E"/>
<stop offset="1" stop-color="#FFC44E"/>
</radialGradient>
<radialGradient id="paint2_radial_97_8001" cx="0" cy="0" r="1" gradientUnits="userSpaceOnUse" gradientTransform="translate(-1.41287e-06 28) rotate(1.27759) scale(52.3255 50.2964)">
<stop stop-color="#0E0E0E"/>
<stop offset="1" stop-color="#FFC44E"/>
</radialGradient>
<radialGradient id="paint3_radial_97_8001" cx="0" cy="0" r="1" gradientUnits="userSpaceOnUse" gradientTransform="translate(60.75 28.1328) rotate(1.27759) scale(52.3255 50.2964)">
<stop stop-color="#0E0E0E"/>
<stop offset="1" stop-color="#FFC44E"/>
</radialGradient>
</defs>
</svg>
