<svg width="439" height="244" viewBox="0 0 439 244" fill="none" xmlns="http://www.w3.org/2000/svg">
<rect width="439" height="243.938" rx="20" fill="#404048"/>
<line x1="24" y1="51.6144" x2="400.096" y2="51.6144" stroke="#5C5C62" stroke-width="0.876682"/>
<line x1="24" y1="93.6945" x2="400.096" y2="93.6945" stroke="#5C5C62" stroke-width="0.876682"/>
<line x1="24" y1="135.777" x2="400.096" y2="135.777" stroke="#5C5C62" stroke-width="0.876682"/>
<line x1="24" y1="177.857" x2="400.096" y2="177.857" stroke="#5C5C62" stroke-width="0.876682"/>
<line x1="24" y1="219.937" x2="400.096" y2="219.937" stroke="#5C5C62" stroke-width="0.876682"/>
<mask id="mask0_137_12152" style="mask-type:alpha" maskUnits="userSpaceOnUse" x="26" y="41" width="374" height="172">
<path d="M399.658 41.5332C320.319 187.062 122.189 212.048 26.6304 212.048H399.658V41.5332Z" fill="#241C1C"/>
</mask>
<g mask="url(#mask0_137_12152)">
<circle cx="38.0273" cy="43.2866" r="1.75336" fill="#C7DDFE"/>
<circle cx="46.7939" cy="43.2866" r="1.75336" fill="#C7DDFE"/>
<circle cx="55.561" cy="43.2866" r="1.75336" fill="#C7DDFE"/>
<circle cx="64.3276" cy="43.2866" r="1.75336" fill="#C7DDFE"/>
<circle cx="73.0947" cy="43.2866" r="1.75336" fill="#C7DDFE"/>
<circle cx="81.8613" cy="43.2866" r="1.75336" fill="#C7DDFE"/>
<circle cx="90.6284" cy="43.2866" r="1.75336" fill="#C7DDFE"/>
<circle cx="99.395" cy="43.2866" r="1.75336" fill="#C7DDFE"/>
<circle cx="108.162" cy="43.2866" r="1.75336" fill="#C7DDFE"/>
<circle cx="116.929" cy="43.2866" r="1.75336" fill="#C7DDFE"/>
<circle cx="125.695" cy="43.2866" r="1.75336" fill="#C7DDFE"/>
<circle cx="134.462" cy="43.2866" r="1.75336" fill="#C7DDFE"/>
<circle cx="143.229" cy="43.2866" r="1.75336" fill="#C7DDFE"/>
<circle cx="151.996" cy="43.2866" r="1.75336" fill="#C7DDFE"/>
<circle cx="160.763" cy="43.2866" r="1.75336" fill="#C7DDFE"/>
<circle cx="169.53" cy="43.2866" r="1.75336" fill="#C7DDFE"/>
<circle cx="178.296" cy="43.2866" r="1.75336" fill="#C7DDFE"/>
<circle cx="187.063" cy="43.2866" r="1.75336" fill="#C7DDFE"/>
<circle cx="195.83" cy="43.2866" r="1.75336" fill="#C7DDFE"/>
<circle cx="204.597" cy="43.2866" r="1.75336" fill="#C7DDFE"/>
<circle cx="213.364" cy="43.2866" r="1.75336" fill="#C7DDFE"/>
<circle cx="222.13" cy="43.2866" r="1.75336" fill="#C7DDFE"/>
<circle cx="230.897" cy="43.2866" r="1.75336" fill="#C7DDFE"/>
<circle cx="239.664" cy="43.2866" r="1.75336" fill="#C7DDFE"/>
<circle cx="248.431" cy="43.2866" r="1.75336" fill="#C7DDFE"/>
<circle cx="257.198" cy="43.2866" r="1.75336" fill="#C7DDFE"/>
<circle cx="265.964" cy="43.2866" r="1.75336" fill="#C7DDFE"/>
<circle cx="274.731" cy="43.2866" r="1.75336" fill="#C7DDFE"/>
<circle cx="283.498" cy="43.2866" r="1.75336" fill="#C7DDFE"/>
<circle cx="292.265" cy="43.2866" r="1.75336" fill="#C7DDFE"/>
<circle cx="301.032" cy="43.2866" r="1.75336" fill="#C7DDFE"/>
<circle cx="309.799" cy="43.2866" r="1.75336" fill="#C7DDFE"/>
<circle cx="318.565" cy="43.2866" r="1.75336" fill="#C7DDFE"/>
<circle cx="327.332" cy="43.2866" r="1.75336" fill="#C7DDFE"/>
<circle cx="336.099" cy="43.2866" r="1.75336" fill="#C7DDFE"/>
<circle cx="344.866" cy="43.2866" r="1.75336" fill="#C7DDFE"/>
<circle cx="353.633" cy="43.2866" r="1.75336" fill="#C7DDFE"/>
<circle cx="362.399" cy="43.2866" r="1.75336" fill="#C7DDFE"/>
<circle cx="371.166" cy="43.2866" r="1.75336" fill="#C7DDFE"/>
<circle cx="379.933" cy="43.2866" r="1.75336" fill="#C7DDFE"/>
<circle cx="388.7" cy="43.2866" r="1.75336" fill="#C7DDFE"/>
<circle cx="397.467" cy="43.2866" r="1.75336" fill="#C7DDFE"/>
<circle cx="38.0273" cy="52.0541" r="1.75336" fill="#C7DDFE"/>
<circle cx="46.7939" cy="52.0541" r="1.75336" fill="#C7DDFE"/>
<circle cx="55.561" cy="52.0541" r="1.75336" fill="#C7DDFE"/>
<circle cx="64.3276" cy="52.0541" r="1.75336" fill="#C7DDFE"/>
<circle cx="73.0947" cy="52.0541" r="1.75336" fill="#C7DDFE"/>
<circle cx="81.8613" cy="52.0541" r="1.75336" fill="#C7DDFE"/>
<circle cx="90.6284" cy="52.0541" r="1.75336" fill="#C7DDFE"/>
<circle cx="99.395" cy="52.0541" r="1.75336" fill="#C7DDFE"/>
<circle cx="108.162" cy="52.0541" r="1.75336" fill="#C7DDFE"/>
<circle cx="116.929" cy="52.0541" r="1.75336" fill="#C7DDFE"/>
<circle cx="125.695" cy="52.0541" r="1.75336" fill="#C7DDFE"/>
<circle cx="134.462" cy="52.0541" r="1.75336" fill="#C7DDFE"/>
<circle cx="143.229" cy="52.0541" r="1.75336" fill="#C7DDFE"/>
<circle cx="151.996" cy="52.0541" r="1.75336" fill="#C7DDFE"/>
<circle cx="160.763" cy="52.0541" r="1.75336" fill="#C7DDFE"/>
<circle cx="169.53" cy="52.0541" r="1.75336" fill="#C7DDFE"/>
<circle cx="178.296" cy="52.0541" r="1.75336" fill="#C7DDFE"/>
<circle cx="187.063" cy="52.0541" r="1.75336" fill="#C7DDFE"/>
<circle cx="195.83" cy="52.0541" r="1.75336" fill="#C7DDFE"/>
<circle cx="204.597" cy="52.0541" r="1.75336" fill="#C7DDFE"/>
<circle cx="213.364" cy="52.0541" r="1.75336" fill="#C7DDFE"/>
<circle cx="222.13" cy="52.0541" r="1.75336" fill="#C7DDFE"/>
<circle cx="230.897" cy="52.0541" r="1.75336" fill="#C7DDFE"/>
<circle cx="239.664" cy="52.0541" r="1.75336" fill="#C7DDFE"/>
<circle cx="248.431" cy="52.0541" r="1.75336" fill="#C7DDFE"/>
<circle cx="257.198" cy="52.0541" r="1.75336" fill="#C7DDFE"/>
<circle cx="265.964" cy="52.0541" r="1.75336" fill="#C7DDFE"/>
<circle cx="274.731" cy="52.0541" r="1.75336" fill="#C7DDFE"/>
<circle cx="283.498" cy="52.0541" r="1.75336" fill="#C7DDFE"/>
<circle cx="292.265" cy="52.0541" r="1.75336" fill="#C7DDFE"/>
<circle cx="301.032" cy="52.0541" r="1.75336" fill="#C7DDFE"/>
<circle cx="309.799" cy="52.0541" r="1.75336" fill="#C7DDFE"/>
<circle cx="318.565" cy="52.0541" r="1.75336" fill="#C7DDFE"/>
<circle cx="327.332" cy="52.0541" r="1.75336" fill="#C7DDFE"/>
<circle cx="336.099" cy="52.0541" r="1.75336" fill="#C7DDFE"/>
<circle cx="344.866" cy="52.0541" r="1.75336" fill="#C7DDFE"/>
<circle cx="353.633" cy="52.0541" r="1.75336" fill="#C7DDFE"/>
<circle cx="362.399" cy="52.0541" r="1.75336" fill="#C7DDFE"/>
<circle cx="371.166" cy="52.0541" r="1.75336" fill="#C7DDFE"/>
<circle cx="379.933" cy="52.0541" r="1.75336" fill="#C7DDFE"/>
<circle cx="388.7" cy="52.0541" r="1.75336" fill="#C7DDFE"/>
<circle cx="397.467" cy="52.0541" r="1.75336" fill="#C7DDFE"/>
<circle cx="38.0273" cy="60.8198" r="1.75336" fill="#C7DDFE"/>
<circle cx="46.7944" cy="60.8198" r="1.75336" fill="#C7DDFE"/>
<circle cx="55.561" cy="60.8198" r="1.75336" fill="#C7DDFE"/>
<circle cx="64.3281" cy="60.8198" r="1.75336" fill="#C7DDFE"/>
<circle cx="73.0947" cy="60.8198" r="1.75336" fill="#C7DDFE"/>
<circle cx="81.8613" cy="60.8198" r="1.75336" fill="#C7DDFE"/>
<circle cx="90.6284" cy="60.8198" r="1.75336" fill="#C7DDFE"/>
<circle cx="99.395" cy="60.8198" r="1.75336" fill="#C7DDFE"/>
<circle cx="108.162" cy="60.8198" r="1.75336" fill="#C7DDFE"/>
<circle cx="116.929" cy="60.8198" r="1.75336" fill="#C7DDFE"/>
<circle cx="125.696" cy="60.8198" r="1.75336" fill="#C7DDFE"/>
<circle cx="134.462" cy="60.8198" r="1.75336" fill="#C7DDFE"/>
<circle cx="143.229" cy="60.8198" r="1.75336" fill="#C7DDFE"/>
<circle cx="151.996" cy="60.8198" r="1.75336" fill="#C7DDFE"/>
<circle cx="160.763" cy="60.8198" r="1.75336" fill="#C7DDFE"/>
<circle cx="169.53" cy="60.8198" r="1.75336" fill="#C7DDFE"/>
<circle cx="178.296" cy="60.8198" r="1.75336" fill="#C7DDFE"/>
<circle cx="187.063" cy="60.8198" r="1.75336" fill="#C7DDFE"/>
<circle cx="195.83" cy="60.8198" r="1.75336" fill="#C7DDFE"/>
<circle cx="204.597" cy="60.8198" r="1.75336" fill="#C7DDFE"/>
<circle cx="213.364" cy="60.8198" r="1.75336" fill="#C7DDFE"/>
<circle cx="222.13" cy="60.8198" r="1.75336" fill="#C7DDFE"/>
<circle cx="230.897" cy="60.8198" r="1.75336" fill="#C7DDFE"/>
<circle cx="239.664" cy="60.8198" r="1.75336" fill="#C7DDFE"/>
<circle cx="248.431" cy="60.8198" r="1.75336" fill="#C7DDFE"/>
<circle cx="257.198" cy="60.8198" r="1.75336" fill="#C7DDFE"/>
<circle cx="265.965" cy="60.8198" r="1.75336" fill="#C7DDFE"/>
<circle cx="274.731" cy="60.8198" r="1.75336" fill="#C7DDFE"/>
<circle cx="283.498" cy="60.8198" r="1.75336" fill="#C7DDFE"/>
<circle cx="292.265" cy="60.8198" r="1.75336" fill="#C7DDFE"/>
<circle cx="301.032" cy="60.8198" r="1.75336" fill="#C7DDFE"/>
<circle cx="309.799" cy="60.8198" r="1.75336" fill="#C7DDFE"/>
<circle cx="318.565" cy="60.8198" r="1.75336" fill="#C7DDFE"/>
<circle cx="327.332" cy="60.8198" r="1.75336" fill="#C7DDFE"/>
<circle cx="336.099" cy="60.8198" r="1.75336" fill="#C7DDFE"/>
<circle cx="344.866" cy="60.8198" r="1.75336" fill="#C7DDFE"/>
<circle cx="353.633" cy="60.8198" r="1.75336" fill="#C7DDFE"/>
<circle cx="362.4" cy="60.8198" r="1.75336" fill="#C7DDFE"/>
<circle cx="371.166" cy="60.8198" r="1.75336" fill="#C7DDFE"/>
<circle cx="379.933" cy="60.8198" r="1.75336" fill="#C7DDFE"/>
<circle cx="388.7" cy="60.8198" r="1.75336" fill="#C7DDFE"/>
<circle cx="397.467" cy="60.8198" r="1.75336" fill="#C7DDFE"/>
<circle cx="38.0273" cy="69.5873" r="1.75336" fill="#C7DDFE"/>
<circle cx="46.7939" cy="69.5873" r="1.75336" fill="#C7DDFE"/>
<circle cx="55.561" cy="69.5873" r="1.75336" fill="#C7DDFE"/>
<circle cx="64.3276" cy="69.5873" r="1.75336" fill="#C7DDFE"/>
<circle cx="73.0947" cy="69.5873" r="1.75336" fill="#C7DDFE"/>
<circle cx="81.8613" cy="69.5873" r="1.75336" fill="#C7DDFE"/>
<circle cx="90.6284" cy="69.5873" r="1.75336" fill="#C7DDFE"/>
<circle cx="99.395" cy="69.5873" r="1.75336" fill="#C7DDFE"/>
<circle cx="108.162" cy="69.5873" r="1.75336" fill="#C7DDFE"/>
<circle cx="116.929" cy="69.5873" r="1.75336" fill="#C7DDFE"/>
<circle cx="125.695" cy="69.5873" r="1.75336" fill="#C7DDFE"/>
<circle cx="134.462" cy="69.5873" r="1.75336" fill="#C7DDFE"/>
<circle cx="143.229" cy="69.5873" r="1.75336" fill="#C7DDFE"/>
<circle cx="151.996" cy="69.5873" r="1.75336" fill="#C7DDFE"/>
<circle cx="160.763" cy="69.5873" r="1.75336" fill="#C7DDFE"/>
<circle cx="169.53" cy="69.5873" r="1.75336" fill="#C7DDFE"/>
<circle cx="178.296" cy="69.5873" r="1.75336" fill="#C7DDFE"/>
<circle cx="187.063" cy="69.5873" r="1.75336" fill="#C7DDFE"/>
<circle cx="195.83" cy="69.5873" r="1.75336" fill="#C7DDFE"/>
<circle cx="204.597" cy="69.5873" r="1.75336" fill="#C7DDFE"/>
<circle cx="213.364" cy="69.5873" r="1.75336" fill="#C7DDFE"/>
<circle cx="222.13" cy="69.5873" r="1.75336" fill="#C7DDFE"/>
<circle cx="230.897" cy="69.5873" r="1.75336" fill="#C7DDFE"/>
<circle cx="239.664" cy="69.5873" r="1.75336" fill="#C7DDFE"/>
<circle cx="248.431" cy="69.5873" r="1.75336" fill="#C7DDFE"/>
<circle cx="257.198" cy="69.5873" r="1.75336" fill="#C7DDFE"/>
<circle cx="265.964" cy="69.5873" r="1.75336" fill="#C7DDFE"/>
<circle cx="274.731" cy="69.5873" r="1.75336" fill="#C7DDFE"/>
<circle cx="283.498" cy="69.5873" r="1.75336" fill="#C7DDFE"/>
<circle cx="292.265" cy="69.5873" r="1.75336" fill="#C7DDFE"/>
<circle cx="301.032" cy="69.5873" r="1.75336" fill="#C7DDFE"/>
<circle cx="309.799" cy="69.5873" r="1.75336" fill="#C7DDFE"/>
<circle cx="318.565" cy="69.5873" r="1.75336" fill="#C7DDFE"/>
<circle cx="327.332" cy="69.5873" r="1.75336" fill="#C7DDFE"/>
<circle cx="336.099" cy="69.5873" r="1.75336" fill="#C7DDFE"/>
<circle cx="344.866" cy="69.5873" r="1.75336" fill="#C7DDFE"/>
<circle cx="353.633" cy="69.5873" r="1.75336" fill="#C7DDFE"/>
<circle cx="362.399" cy="69.5873" r="1.75336" fill="#C7DDFE"/>
<circle cx="371.166" cy="69.5873" r="1.75336" fill="#C7DDFE"/>
<circle cx="379.933" cy="69.5873" r="1.75336" fill="#C7DDFE"/>
<circle cx="388.7" cy="69.5873" r="1.75336" fill="#C7DDFE"/>
<circle cx="397.467" cy="69.5873" r="1.75336" fill="#C7DDFE"/>
<circle cx="38.0273" cy="78.353" r="1.75336" fill="#C7DDFE"/>
<circle cx="46.7939" cy="78.353" r="1.75336" fill="#C7DDFE"/>
<circle cx="55.561" cy="78.353" r="1.75336" fill="#C7DDFE"/>
<circle cx="64.3276" cy="78.353" r="1.75336" fill="#C7DDFE"/>
<circle cx="73.0947" cy="78.353" r="1.75336" fill="#C7DDFE"/>
<circle cx="81.8613" cy="78.353" r="1.75336" fill="#C7DDFE"/>
<circle cx="90.6284" cy="78.353" r="1.75336" fill="#C7DDFE"/>
<circle cx="99.395" cy="78.353" r="1.75336" fill="#C7DDFE"/>
<circle cx="108.162" cy="78.353" r="1.75336" fill="#C7DDFE"/>
<circle cx="116.929" cy="78.353" r="1.75336" fill="#C7DDFE"/>
<circle cx="125.695" cy="78.353" r="1.75336" fill="#C7DDFE"/>
<circle cx="134.462" cy="78.353" r="1.75336" fill="#C7DDFE"/>
<circle cx="143.229" cy="78.353" r="1.75336" fill="#C7DDFE"/>
<circle cx="151.996" cy="78.353" r="1.75336" fill="#C7DDFE"/>
<circle cx="160.763" cy="78.353" r="1.75336" fill="#C7DDFE"/>
<circle cx="169.53" cy="78.353" r="1.75336" fill="#C7DDFE"/>
<circle cx="178.296" cy="78.353" r="1.75336" fill="#C7DDFE"/>
<circle cx="187.063" cy="78.353" r="1.75336" fill="#C7DDFE"/>
<circle cx="195.83" cy="78.353" r="1.75336" fill="#C7DDFE"/>
<circle cx="204.597" cy="78.353" r="1.75336" fill="#C7DDFE"/>
<circle cx="213.364" cy="78.353" r="1.75336" fill="#C7DDFE"/>
<circle cx="222.13" cy="78.353" r="1.75336" fill="#C7DDFE"/>
<circle cx="230.897" cy="78.353" r="1.75336" fill="#C7DDFE"/>
<circle cx="239.664" cy="78.353" r="1.75336" fill="#C7DDFE"/>
<circle cx="248.431" cy="78.353" r="1.75336" fill="#C7DDFE"/>
<circle cx="257.198" cy="78.353" r="1.75336" fill="#C7DDFE"/>
<circle cx="265.964" cy="78.353" r="1.75336" fill="#C7DDFE"/>
<circle cx="274.731" cy="78.353" r="1.75336" fill="#C7DDFE"/>
<circle cx="283.498" cy="78.353" r="1.75336" fill="#C7DDFE"/>
<circle cx="292.265" cy="78.353" r="1.75336" fill="#C7DDFE"/>
<circle cx="301.032" cy="78.353" r="1.75336" fill="#C7DDFE"/>
<circle cx="309.799" cy="78.353" r="1.75336" fill="#C7DDFE"/>
<circle cx="318.565" cy="78.353" r="1.75336" fill="#C7DDFE"/>
<circle cx="327.332" cy="78.353" r="1.75336" fill="#C7DDFE"/>
<circle cx="336.099" cy="78.353" r="1.75336" fill="#C7DDFE"/>
<circle cx="344.866" cy="78.353" r="1.75336" fill="#C7DDFE"/>
<circle cx="353.633" cy="78.353" r="1.75336" fill="#C7DDFE"/>
<circle cx="362.399" cy="78.353" r="1.75336" fill="#C7DDFE"/>
<circle cx="371.166" cy="78.353" r="1.75336" fill="#C7DDFE"/>
<circle cx="379.933" cy="78.353" r="1.75336" fill="#C7DDFE"/>
<circle cx="388.7" cy="78.353" r="1.75336" fill="#C7DDFE"/>
<circle cx="397.467" cy="78.353" r="1.75336" fill="#C7DDFE"/>
<circle cx="38.0273" cy="87.1206" r="1.75336" fill="#C7DDFE"/>
<circle cx="46.7939" cy="87.1206" r="1.75336" fill="#C7DDFE"/>
<circle cx="55.561" cy="87.1206" r="1.75336" fill="#C7DDFE"/>
<circle cx="64.3276" cy="87.1206" r="1.75336" fill="#C7DDFE"/>
<circle cx="73.0947" cy="87.1206" r="1.75336" fill="#C7DDFE"/>
<circle cx="81.8613" cy="87.1206" r="1.75336" fill="#C7DDFE"/>
<circle cx="90.6284" cy="87.1206" r="1.75336" fill="#C7DDFE"/>
<circle cx="99.395" cy="87.1206" r="1.75336" fill="#C7DDFE"/>
<circle cx="108.162" cy="87.1206" r="1.75336" fill="#C7DDFE"/>
<circle cx="116.929" cy="87.1206" r="1.75336" fill="#C7DDFE"/>
<circle cx="125.695" cy="87.1206" r="1.75336" fill="#C7DDFE"/>
<circle cx="134.462" cy="87.1206" r="1.75336" fill="#C7DDFE"/>
<circle cx="143.229" cy="87.1206" r="1.75336" fill="#C7DDFE"/>
<circle cx="151.996" cy="87.1206" r="1.75336" fill="#C7DDFE"/>
<circle cx="160.763" cy="87.1206" r="1.75336" fill="#C7DDFE"/>
<circle cx="169.53" cy="87.1206" r="1.75336" fill="#C7DDFE"/>
<circle cx="178.296" cy="87.1206" r="1.75336" fill="#C7DDFE"/>
<circle cx="187.063" cy="87.1206" r="1.75336" fill="#C7DDFE"/>
<circle cx="195.83" cy="87.1206" r="1.75336" fill="#C7DDFE"/>
<circle cx="204.597" cy="87.1206" r="1.75336" fill="#C7DDFE"/>
<circle cx="213.364" cy="87.1206" r="1.75336" fill="#C7DDFE"/>
<circle cx="222.13" cy="87.1206" r="1.75336" fill="#C7DDFE"/>
<circle cx="230.897" cy="87.1206" r="1.75336" fill="#C7DDFE"/>
<circle cx="239.664" cy="87.1206" r="1.75336" fill="#C7DDFE"/>
<circle cx="248.431" cy="87.1206" r="1.75336" fill="#C7DDFE"/>
<circle cx="257.198" cy="87.1206" r="1.75336" fill="#C7DDFE"/>
<circle cx="265.964" cy="87.1206" r="1.75336" fill="#C7DDFE"/>
<circle cx="274.731" cy="87.1206" r="1.75336" fill="#C7DDFE"/>
<circle cx="283.498" cy="87.1206" r="1.75336" fill="#C7DDFE"/>
<circle cx="292.265" cy="87.1206" r="1.75336" fill="#C7DDFE"/>
<circle cx="301.032" cy="87.1206" r="1.75336" fill="#C7DDFE"/>
<circle cx="309.799" cy="87.1206" r="1.75336" fill="#C7DDFE"/>
<circle cx="318.565" cy="87.1206" r="1.75336" fill="#C7DDFE"/>
<circle cx="327.332" cy="87.1206" r="1.75336" fill="#C7DDFE"/>
<circle cx="336.099" cy="87.1206" r="1.75336" fill="#C7DDFE"/>
<circle cx="344.866" cy="87.1206" r="1.75336" fill="#C7DDFE"/>
<circle cx="353.633" cy="87.1206" r="1.75336" fill="#C7DDFE"/>
<circle cx="362.399" cy="87.1206" r="1.75336" fill="#C7DDFE"/>
<circle cx="371.166" cy="87.1206" r="1.75336" fill="#C7DDFE"/>
<circle cx="379.933" cy="87.1206" r="1.75336" fill="#C7DDFE"/>
<circle cx="388.7" cy="87.1206" r="1.75336" fill="#C7DDFE"/>
<circle cx="397.467" cy="87.1206" r="1.75336" fill="#C7DDFE"/>
<circle cx="38.0273" cy="95.8881" r="1.75336" fill="#C7DDFE"/>
<circle cx="46.7939" cy="95.8881" r="1.75336" fill="#C7DDFE"/>
<circle cx="55.561" cy="95.8881" r="1.75336" fill="#C7DDFE"/>
<circle cx="64.3276" cy="95.8881" r="1.75336" fill="#C7DDFE"/>
<circle cx="73.0947" cy="95.8881" r="1.75336" fill="#C7DDFE"/>
<circle cx="81.8613" cy="95.8881" r="1.75336" fill="#C7DDFE"/>
<circle cx="90.6284" cy="95.8881" r="1.75336" fill="#C7DDFE"/>
<circle cx="99.395" cy="95.8881" r="1.75336" fill="#C7DDFE"/>
<circle cx="108.162" cy="95.8881" r="1.75336" fill="#C7DDFE"/>
<circle cx="116.929" cy="95.8881" r="1.75336" fill="#C7DDFE"/>
<circle cx="125.695" cy="95.8881" r="1.75336" fill="#C7DDFE"/>
<circle cx="134.462" cy="95.8881" r="1.75336" fill="#C7DDFE"/>
<circle cx="143.229" cy="95.8881" r="1.75336" fill="#C7DDFE"/>
<circle cx="151.996" cy="95.8881" r="1.75336" fill="#C7DDFE"/>
<circle cx="160.763" cy="95.8881" r="1.75336" fill="#C7DDFE"/>
<circle cx="169.53" cy="95.8881" r="1.75336" fill="#C7DDFE"/>
<circle cx="178.296" cy="95.8881" r="1.75336" fill="#C7DDFE"/>
<circle cx="187.063" cy="95.8881" r="1.75336" fill="#C7DDFE"/>
<circle cx="195.83" cy="95.8881" r="1.75336" fill="#C7DDFE"/>
<circle cx="204.597" cy="95.8881" r="1.75336" fill="#C7DDFE"/>
<circle cx="213.364" cy="95.8881" r="1.75336" fill="#C7DDFE"/>
<circle cx="222.13" cy="95.8881" r="1.75336" fill="#C7DDFE"/>
<circle cx="230.897" cy="95.8881" r="1.75336" fill="#C7DDFE"/>
<circle cx="239.664" cy="95.8881" r="1.75336" fill="#C7DDFE"/>
<circle cx="248.431" cy="95.8881" r="1.75336" fill="#C7DDFE"/>
<circle cx="257.198" cy="95.8881" r="1.75336" fill="#C7DDFE"/>
<circle cx="265.964" cy="95.8881" r="1.75336" fill="#C7DDFE"/>
<circle cx="274.731" cy="95.8881" r="1.75336" fill="#C7DDFE"/>
<circle cx="283.498" cy="95.8881" r="1.75336" fill="#C7DDFE"/>
<circle cx="292.265" cy="95.8881" r="1.75336" fill="#C7DDFE"/>
<circle cx="301.032" cy="95.8881" r="1.75336" fill="#C7DDFE"/>
<circle cx="309.799" cy="95.8881" r="1.75336" fill="#C7DDFE"/>
<circle cx="318.565" cy="95.8881" r="1.75336" fill="#C7DDFE"/>
<circle cx="327.332" cy="95.8881" r="1.75336" fill="#C7DDFE"/>
<circle cx="336.099" cy="95.8881" r="1.75336" fill="#C7DDFE"/>
<circle cx="344.866" cy="95.8881" r="1.75336" fill="#C7DDFE"/>
<circle cx="353.633" cy="95.8881" r="1.75336" fill="#C7DDFE"/>
<circle cx="362.399" cy="95.8881" r="1.75336" fill="#C7DDFE"/>
<circle cx="371.166" cy="95.8881" r="1.75336" fill="#C7DDFE"/>
<circle cx="379.933" cy="95.8881" r="1.75336" fill="#C7DDFE"/>
<circle cx="388.7" cy="95.8881" r="1.75336" fill="#C7DDFE"/>
<circle cx="397.467" cy="95.8881" r="1.75336" fill="#C7DDFE"/>
<circle cx="38.0273" cy="104.654" r="1.75336" fill="#C7DDFE"/>
<circle cx="46.7944" cy="104.654" r="1.75336" fill="#C7DDFE"/>
<circle cx="55.561" cy="104.654" r="1.75336" fill="#C7DDFE"/>
<circle cx="64.3281" cy="104.654" r="1.75336" fill="#C7DDFE"/>
<circle cx="73.0947" cy="104.654" r="1.75336" fill="#C7DDFE"/>
<circle cx="81.8613" cy="104.654" r="1.75336" fill="#C7DDFE"/>
<circle cx="90.6284" cy="104.654" r="1.75336" fill="#C7DDFE"/>
<circle cx="99.395" cy="104.654" r="1.75336" fill="#C7DDFE"/>
<circle cx="108.162" cy="104.654" r="1.75336" fill="#C7DDFE"/>
<circle cx="116.929" cy="104.654" r="1.75336" fill="#C7DDFE"/>
<circle cx="125.696" cy="104.654" r="1.75336" fill="#C7DDFE"/>
<circle cx="134.462" cy="104.654" r="1.75336" fill="#C7DDFE"/>
<circle cx="143.229" cy="104.654" r="1.75336" fill="#C7DDFE"/>
<circle cx="151.996" cy="104.654" r="1.75336" fill="#C7DDFE"/>
<circle cx="160.763" cy="104.654" r="1.75336" fill="#C7DDFE"/>
<circle cx="169.53" cy="104.654" r="1.75336" fill="#C7DDFE"/>
<circle cx="178.296" cy="104.654" r="1.75336" fill="#C7DDFE"/>
<circle cx="187.063" cy="104.654" r="1.75336" fill="#C7DDFE"/>
<circle cx="195.83" cy="104.654" r="1.75336" fill="#C7DDFE"/>
<circle cx="204.597" cy="104.654" r="1.75336" fill="#C7DDFE"/>
<circle cx="213.364" cy="104.654" r="1.75336" fill="#C7DDFE"/>
<circle cx="222.13" cy="104.654" r="1.75336" fill="#C7DDFE"/>
<circle cx="230.897" cy="104.654" r="1.75336" fill="#C7DDFE"/>
<circle cx="239.664" cy="104.654" r="1.75336" fill="#C7DDFE"/>
<circle cx="248.431" cy="104.654" r="1.75336" fill="#C7DDFE"/>
<circle cx="257.198" cy="104.654" r="1.75336" fill="#C7DDFE"/>
<circle cx="265.965" cy="104.654" r="1.75336" fill="#C7DDFE"/>
<circle cx="274.731" cy="104.654" r="1.75336" fill="#C7DDFE"/>
<circle cx="283.498" cy="104.654" r="1.75336" fill="#C7DDFE"/>
<circle cx="292.265" cy="104.654" r="1.75336" fill="#C7DDFE"/>
<circle cx="301.032" cy="104.654" r="1.75336" fill="#C7DDFE"/>
<circle cx="309.799" cy="104.654" r="1.75336" fill="#C7DDFE"/>
<circle cx="318.565" cy="104.654" r="1.75336" fill="#C7DDFE"/>
<circle cx="327.332" cy="104.654" r="1.75336" fill="#C7DDFE"/>
<circle cx="336.099" cy="104.654" r="1.75336" fill="#C7DDFE"/>
<circle cx="344.866" cy="104.654" r="1.75336" fill="#C7DDFE"/>
<circle cx="353.633" cy="104.654" r="1.75336" fill="#C7DDFE"/>
<circle cx="362.4" cy="104.654" r="1.75336" fill="#C7DDFE"/>
<circle cx="371.166" cy="104.654" r="1.75336" fill="#C7DDFE"/>
<circle cx="379.933" cy="104.654" r="1.75336" fill="#C7DDFE"/>
<circle cx="388.7" cy="104.654" r="1.75336" fill="#C7DDFE"/>
<circle cx="397.467" cy="104.654" r="1.75336" fill="#C7DDFE"/>
<circle cx="38.0273" cy="113.421" r="1.75336" fill="#C7DDFE"/>
<circle cx="46.7939" cy="113.421" r="1.75336" fill="#C7DDFE"/>
<circle cx="55.561" cy="113.421" r="1.75336" fill="#C7DDFE"/>
<circle cx="64.3276" cy="113.421" r="1.75336" fill="#C7DDFE"/>
<circle cx="73.0947" cy="113.421" r="1.75336" fill="#C7DDFE"/>
<circle cx="81.8613" cy="113.421" r="1.75336" fill="#C7DDFE"/>
<circle cx="90.6284" cy="113.421" r="1.75336" fill="#C7DDFE"/>
<circle cx="99.395" cy="113.421" r="1.75336" fill="#C7DDFE"/>
<circle cx="108.162" cy="113.421" r="1.75336" fill="#C7DDFE"/>
<circle cx="116.929" cy="113.421" r="1.75336" fill="#C7DDFE"/>
<circle cx="125.695" cy="113.421" r="1.75336" fill="#C7DDFE"/>
<circle cx="134.462" cy="113.421" r="1.75336" fill="#C7DDFE"/>
<circle cx="143.229" cy="113.421" r="1.75336" fill="#C7DDFE"/>
<circle cx="151.996" cy="113.421" r="1.75336" fill="#C7DDFE"/>
<circle cx="160.763" cy="113.421" r="1.75336" fill="#C7DDFE"/>
<circle cx="169.53" cy="113.421" r="1.75336" fill="#C7DDFE"/>
<circle cx="178.296" cy="113.421" r="1.75336" fill="#C7DDFE"/>
<circle cx="187.063" cy="113.421" r="1.75336" fill="#C7DDFE"/>
<circle cx="195.83" cy="113.421" r="1.75336" fill="#C7DDFE"/>
<circle cx="204.597" cy="113.421" r="1.75336" fill="#C7DDFE"/>
<circle cx="213.364" cy="113.421" r="1.75336" fill="#C7DDFE"/>
<circle cx="222.13" cy="113.421" r="1.75336" fill="#C7DDFE"/>
<circle cx="230.897" cy="113.421" r="1.75336" fill="#C7DDFE"/>
<circle cx="239.664" cy="113.421" r="1.75336" fill="#C7DDFE"/>
<circle cx="248.431" cy="113.421" r="1.75336" fill="#C7DDFE"/>
<circle cx="257.198" cy="113.421" r="1.75336" fill="#C7DDFE"/>
<circle cx="265.964" cy="113.421" r="1.75336" fill="#C7DDFE"/>
<circle cx="274.731" cy="113.421" r="1.75336" fill="#C7DDFE"/>
<circle cx="283.498" cy="113.421" r="1.75336" fill="#C7DDFE"/>
<circle cx="292.265" cy="113.421" r="1.75336" fill="#C7DDFE"/>
<circle cx="301.032" cy="113.421" r="1.75336" fill="#C7DDFE"/>
<circle cx="309.799" cy="113.421" r="1.75336" fill="#C7DDFE"/>
<circle cx="318.565" cy="113.421" r="1.75336" fill="#C7DDFE"/>
<circle cx="327.332" cy="113.421" r="1.75336" fill="#C7DDFE"/>
<circle cx="336.099" cy="113.421" r="1.75336" fill="#C7DDFE"/>
<circle cx="344.866" cy="113.421" r="1.75336" fill="#C7DDFE"/>
<circle cx="353.633" cy="113.421" r="1.75336" fill="#C7DDFE"/>
<circle cx="362.399" cy="113.421" r="1.75336" fill="#C7DDFE"/>
<circle cx="371.166" cy="113.421" r="1.75336" fill="#C7DDFE"/>
<circle cx="379.933" cy="113.421" r="1.75336" fill="#C7DDFE"/>
<circle cx="388.7" cy="113.421" r="1.75336" fill="#C7DDFE"/>
<circle cx="397.467" cy="113.421" r="1.75336" fill="#C7DDFE"/>
<circle cx="38.0273" cy="122.187" r="1.75336" fill="#C7DDFE"/>
<circle cx="46.7939" cy="122.187" r="1.75336" fill="#C7DDFE"/>
<circle cx="55.561" cy="122.187" r="1.75336" fill="#C7DDFE"/>
<circle cx="64.3276" cy="122.187" r="1.75336" fill="#C7DDFE"/>
<circle cx="73.0947" cy="122.187" r="1.75336" fill="#C7DDFE"/>
<circle cx="81.8613" cy="122.187" r="1.75336" fill="#C7DDFE"/>
<circle cx="90.6284" cy="122.187" r="1.75336" fill="#C7DDFE"/>
<circle cx="99.395" cy="122.187" r="1.75336" fill="#C7DDFE"/>
<circle cx="108.162" cy="122.187" r="1.75336" fill="#C7DDFE"/>
<circle cx="116.929" cy="122.187" r="1.75336" fill="#C7DDFE"/>
<circle cx="125.695" cy="122.187" r="1.75336" fill="#C7DDFE"/>
<circle cx="134.462" cy="122.187" r="1.75336" fill="#C7DDFE"/>
<circle cx="143.229" cy="122.187" r="1.75336" fill="#C7DDFE"/>
<circle cx="151.996" cy="122.187" r="1.75336" fill="#C7DDFE"/>
<circle cx="160.763" cy="122.187" r="1.75336" fill="#C7DDFE"/>
<circle cx="169.53" cy="122.187" r="1.75336" fill="#C7DDFE"/>
<circle cx="178.296" cy="122.187" r="1.75336" fill="#C7DDFE"/>
<circle cx="187.063" cy="122.187" r="1.75336" fill="#C7DDFE"/>
<circle cx="195.83" cy="122.187" r="1.75336" fill="#C7DDFE"/>
<circle cx="204.597" cy="122.187" r="1.75336" fill="#C7DDFE"/>
<circle cx="213.364" cy="122.187" r="1.75336" fill="#C7DDFE"/>
<circle cx="222.13" cy="122.187" r="1.75336" fill="#C7DDFE"/>
<circle cx="230.897" cy="122.187" r="1.75336" fill="#C7DDFE"/>
<circle cx="239.664" cy="122.187" r="1.75336" fill="#C7DDFE"/>
<circle cx="248.431" cy="122.187" r="1.75336" fill="#C7DDFE"/>
<circle cx="257.198" cy="122.187" r="1.75336" fill="#C7DDFE"/>
<circle cx="265.964" cy="122.187" r="1.75336" fill="#C7DDFE"/>
<circle cx="274.731" cy="122.187" r="1.75336" fill="#C7DDFE"/>
<circle cx="283.498" cy="122.187" r="1.75336" fill="#C7DDFE"/>
<circle cx="292.265" cy="122.187" r="1.75336" fill="#C7DDFE"/>
<circle cx="301.032" cy="122.187" r="1.75336" fill="#C7DDFE"/>
<circle cx="309.799" cy="122.187" r="1.75336" fill="#C7DDFE"/>
<circle cx="318.565" cy="122.187" r="1.75336" fill="#C7DDFE"/>
<circle cx="327.332" cy="122.187" r="1.75336" fill="#C7DDFE"/>
<circle cx="336.099" cy="122.187" r="1.75336" fill="#C7DDFE"/>
<circle cx="344.866" cy="122.187" r="1.75336" fill="#C7DDFE"/>
<circle cx="353.633" cy="122.187" r="1.75336" fill="#C7DDFE"/>
<circle cx="362.399" cy="122.187" r="1.75336" fill="#C7DDFE"/>
<circle cx="371.166" cy="122.187" r="1.75336" fill="#C7DDFE"/>
<circle cx="379.933" cy="122.187" r="1.75336" fill="#C7DDFE"/>
<circle cx="388.7" cy="122.187" r="1.75336" fill="#C7DDFE"/>
<circle cx="397.467" cy="122.187" r="1.75336" fill="#C7DDFE"/>
<circle cx="38.0273" cy="130.955" r="1.75336" fill="#C7DDFE"/>
<circle cx="46.7944" cy="130.955" r="1.75336" fill="#C7DDFE"/>
<circle cx="55.561" cy="130.955" r="1.75336" fill="#C7DDFE"/>
<circle cx="64.3281" cy="130.955" r="1.75336" fill="#C7DDFE"/>
<circle cx="73.0947" cy="130.955" r="1.75336" fill="#C7DDFE"/>
<circle cx="81.8613" cy="130.955" r="1.75336" fill="#C7DDFE"/>
<circle cx="90.6284" cy="130.955" r="1.75336" fill="#C7DDFE"/>
<circle cx="99.395" cy="130.955" r="1.75336" fill="#C7DDFE"/>
<circle cx="108.162" cy="130.955" r="1.75336" fill="#C7DDFE"/>
<circle cx="116.929" cy="130.955" r="1.75336" fill="#C7DDFE"/>
<circle cx="125.696" cy="130.955" r="1.75336" fill="#C7DDFE"/>
<circle cx="134.462" cy="130.955" r="1.75336" fill="#C7DDFE"/>
<circle cx="143.229" cy="130.955" r="1.75336" fill="#C7DDFE"/>
<circle cx="151.996" cy="130.955" r="1.75336" fill="#C7DDFE"/>
<circle cx="160.763" cy="130.955" r="1.75336" fill="#C7DDFE"/>
<circle cx="169.53" cy="130.955" r="1.75336" fill="#C7DDFE"/>
<circle cx="178.296" cy="130.955" r="1.75336" fill="#C7DDFE"/>
<circle cx="187.063" cy="130.955" r="1.75336" fill="#C7DDFE"/>
<circle cx="195.83" cy="130.955" r="1.75336" fill="#C7DDFE"/>
<circle cx="204.597" cy="130.955" r="1.75336" fill="#C7DDFE"/>
<circle cx="213.364" cy="130.955" r="1.75336" fill="#C7DDFE"/>
<circle cx="222.13" cy="130.955" r="1.75336" fill="#C7DDFE"/>
<circle cx="230.897" cy="130.955" r="1.75336" fill="#C7DDFE"/>
<circle cx="239.664" cy="130.955" r="1.75336" fill="#C7DDFE"/>
<circle cx="248.431" cy="130.955" r="1.75336" fill="#C7DDFE"/>
<circle cx="257.198" cy="130.955" r="1.75336" fill="#C7DDFE"/>
<circle cx="265.965" cy="130.955" r="1.75336" fill="#C7DDFE"/>
<circle cx="274.731" cy="130.955" r="1.75336" fill="#C7DDFE"/>
<circle cx="283.498" cy="130.955" r="1.75336" fill="#C7DDFE"/>
<circle cx="292.265" cy="130.955" r="1.75336" fill="#C7DDFE"/>
<circle cx="301.032" cy="130.955" r="1.75336" fill="#C7DDFE"/>
<circle cx="309.799" cy="130.955" r="1.75336" fill="#C7DDFE"/>
<circle cx="318.565" cy="130.955" r="1.75336" fill="#C7DDFE"/>
<circle cx="327.332" cy="130.955" r="1.75336" fill="#C7DDFE"/>
<circle cx="336.099" cy="130.955" r="1.75336" fill="#C7DDFE"/>
<circle cx="344.866" cy="130.955" r="1.75336" fill="#C7DDFE"/>
<circle cx="353.633" cy="130.955" r="1.75336" fill="#C7DDFE"/>
<circle cx="362.4" cy="130.955" r="1.75336" fill="#C7DDFE"/>
<circle cx="371.166" cy="130.955" r="1.75336" fill="#C7DDFE"/>
<circle cx="379.933" cy="130.955" r="1.75336" fill="#C7DDFE"/>
<circle cx="388.7" cy="130.955" r="1.75336" fill="#C7DDFE"/>
<circle cx="397.467" cy="130.955" r="1.75336" fill="#C7DDFE"/>
<circle cx="38.0273" cy="139.722" r="1.75336" fill="#C7DDFE"/>
<circle cx="46.7939" cy="139.722" r="1.75336" fill="#C7DDFE"/>
<circle cx="55.561" cy="139.722" r="1.75336" fill="#C7DDFE"/>
<circle cx="64.3276" cy="139.722" r="1.75336" fill="#C7DDFE"/>
<circle cx="73.0947" cy="139.722" r="1.75336" fill="#C7DDFE"/>
<circle cx="81.8613" cy="139.722" r="1.75336" fill="#C7DDFE"/>
<circle cx="90.6284" cy="139.722" r="1.75336" fill="#C7DDFE"/>
<circle cx="99.395" cy="139.722" r="1.75336" fill="#C7DDFE"/>
<circle cx="108.162" cy="139.722" r="1.75336" fill="#C7DDFE"/>
<circle cx="116.929" cy="139.722" r="1.75336" fill="#C7DDFE"/>
<circle cx="125.695" cy="139.722" r="1.75336" fill="#C7DDFE"/>
<circle cx="134.462" cy="139.722" r="1.75336" fill="#C7DDFE"/>
<circle cx="143.229" cy="139.722" r="1.75336" fill="#C7DDFE"/>
<circle cx="151.996" cy="139.722" r="1.75336" fill="#C7DDFE"/>
<circle cx="160.763" cy="139.722" r="1.75336" fill="#C7DDFE"/>
<circle cx="169.53" cy="139.722" r="1.75336" fill="#C7DDFE"/>
<circle cx="178.296" cy="139.722" r="1.75336" fill="#C7DDFE"/>
<circle cx="187.063" cy="139.722" r="1.75336" fill="#C7DDFE"/>
<circle cx="195.83" cy="139.722" r="1.75336" fill="#C7DDFE"/>
<circle cx="204.597" cy="139.722" r="1.75336" fill="#C7DDFE"/>
<circle cx="213.364" cy="139.722" r="1.75336" fill="#C7DDFE"/>
<circle cx="222.13" cy="139.722" r="1.75336" fill="#C7DDFE"/>
<circle cx="230.897" cy="139.722" r="1.75336" fill="#C7DDFE"/>
<circle cx="239.664" cy="139.722" r="1.75336" fill="#C7DDFE"/>
<circle cx="248.431" cy="139.722" r="1.75336" fill="#C7DDFE"/>
<circle cx="257.198" cy="139.722" r="1.75336" fill="#C7DDFE"/>
<circle cx="265.964" cy="139.722" r="1.75336" fill="#C7DDFE"/>
<circle cx="274.731" cy="139.722" r="1.75336" fill="#C7DDFE"/>
<circle cx="283.498" cy="139.722" r="1.75336" fill="#C7DDFE"/>
<circle cx="292.265" cy="139.722" r="1.75336" fill="#C7DDFE"/>
<circle cx="301.032" cy="139.722" r="1.75336" fill="#C7DDFE"/>
<circle cx="309.799" cy="139.722" r="1.75336" fill="#C7DDFE"/>
<circle cx="318.565" cy="139.722" r="1.75336" fill="#C7DDFE"/>
<circle cx="327.332" cy="139.722" r="1.75336" fill="#C7DDFE"/>
<circle cx="336.099" cy="139.722" r="1.75336" fill="#C7DDFE"/>
<circle cx="344.866" cy="139.722" r="1.75336" fill="#C7DDFE"/>
<circle cx="353.633" cy="139.722" r="1.75336" fill="#C7DDFE"/>
<circle cx="362.399" cy="139.722" r="1.75336" fill="#C7DDFE"/>
<circle cx="371.166" cy="139.722" r="1.75336" fill="#C7DDFE"/>
<circle cx="379.933" cy="139.722" r="1.75336" fill="#C7DDFE"/>
<circle cx="388.7" cy="139.722" r="1.75336" fill="#C7DDFE"/>
<circle cx="397.467" cy="139.722" r="1.75336" fill="#C7DDFE"/>
<circle cx="38.0273" cy="148.488" r="1.75336" fill="#C7DDFE"/>
<circle cx="46.7944" cy="148.488" r="1.75336" fill="#C7DDFE"/>
<circle cx="55.561" cy="148.488" r="1.75336" fill="#C7DDFE"/>
<circle cx="64.3281" cy="148.488" r="1.75336" fill="#C7DDFE"/>
<circle cx="73.0947" cy="148.488" r="1.75336" fill="#C7DDFE"/>
<circle cx="81.8613" cy="148.488" r="1.75336" fill="#C7DDFE"/>
<circle cx="90.6284" cy="148.488" r="1.75336" fill="#C7DDFE"/>
<circle cx="99.395" cy="148.488" r="1.75336" fill="#C7DDFE"/>
<circle cx="108.162" cy="148.488" r="1.75336" fill="#C7DDFE"/>
<circle cx="116.929" cy="148.488" r="1.75336" fill="#C7DDFE"/>
<circle cx="125.696" cy="148.488" r="1.75336" fill="#C7DDFE"/>
<circle cx="134.462" cy="148.488" r="1.75336" fill="#C7DDFE"/>
<circle cx="143.229" cy="148.488" r="1.75336" fill="#C7DDFE"/>
<circle cx="151.996" cy="148.488" r="1.75336" fill="#C7DDFE"/>
<circle cx="160.763" cy="148.488" r="1.75336" fill="#C7DDFE"/>
<circle cx="169.53" cy="148.488" r="1.75336" fill="#C7DDFE"/>
<circle cx="178.296" cy="148.488" r="1.75336" fill="#C7DDFE"/>
<circle cx="187.063" cy="148.488" r="1.75336" fill="#C7DDFE"/>
<circle cx="195.83" cy="148.488" r="1.75336" fill="#C7DDFE"/>
<circle cx="204.597" cy="148.488" r="1.75336" fill="#C7DDFE"/>
<circle cx="213.364" cy="148.488" r="1.75336" fill="#C7DDFE"/>
<circle cx="222.13" cy="148.488" r="1.75336" fill="#C7DDFE"/>
<circle cx="230.897" cy="148.488" r="1.75336" fill="#C7DDFE"/>
<circle cx="239.664" cy="148.488" r="1.75336" fill="#C7DDFE"/>
<circle cx="248.431" cy="148.488" r="1.75336" fill="#C7DDFE"/>
<circle cx="257.198" cy="148.488" r="1.75336" fill="#C7DDFE"/>
<circle cx="265.965" cy="148.488" r="1.75336" fill="#C7DDFE"/>
<circle cx="274.731" cy="148.488" r="1.75336" fill="#C7DDFE"/>
<circle cx="283.498" cy="148.488" r="1.75336" fill="#C7DDFE"/>
<circle cx="292.265" cy="148.488" r="1.75336" fill="#C7DDFE"/>
<circle cx="301.032" cy="148.488" r="1.75336" fill="#C7DDFE"/>
<circle cx="309.799" cy="148.488" r="1.75336" fill="#C7DDFE"/>
<circle cx="318.565" cy="148.488" r="1.75336" fill="#C7DDFE"/>
<circle cx="327.332" cy="148.488" r="1.75336" fill="#C7DDFE"/>
<circle cx="336.099" cy="148.488" r="1.75336" fill="#C7DDFE"/>
<circle cx="344.866" cy="148.488" r="1.75336" fill="#C7DDFE"/>
<circle cx="353.633" cy="148.488" r="1.75336" fill="#C7DDFE"/>
<circle cx="362.4" cy="148.488" r="1.75336" fill="#C7DDFE"/>
<circle cx="371.166" cy="148.488" r="1.75336" fill="#C7DDFE"/>
<circle cx="379.933" cy="148.488" r="1.75336" fill="#C7DDFE"/>
<circle cx="388.7" cy="148.488" r="1.75336" fill="#C7DDFE"/>
<circle cx="397.467" cy="148.488" r="1.75336" fill="#C7DDFE"/>
<circle cx="38.0273" cy="157.255" r="1.75336" fill="#C7DDFE"/>
<circle cx="46.7939" cy="157.255" r="1.75336" fill="#C7DDFE"/>
<circle cx="55.561" cy="157.255" r="1.75336" fill="#C7DDFE"/>
<circle cx="64.3276" cy="157.255" r="1.75336" fill="#C7DDFE"/>
<circle cx="73.0947" cy="157.255" r="1.75336" fill="#C7DDFE"/>
<circle cx="81.8613" cy="157.255" r="1.75336" fill="#C7DDFE"/>
<circle cx="90.6284" cy="157.255" r="1.75336" fill="#C7DDFE"/>
<circle cx="99.395" cy="157.255" r="1.75336" fill="#C7DDFE"/>
<circle cx="108.162" cy="157.255" r="1.75336" fill="#C7DDFE"/>
<circle cx="116.929" cy="157.255" r="1.75336" fill="#C7DDFE"/>
<circle cx="125.695" cy="157.255" r="1.75336" fill="#C7DDFE"/>
<circle cx="134.462" cy="157.255" r="1.75336" fill="#C7DDFE"/>
<circle cx="143.229" cy="157.255" r="1.75336" fill="#C7DDFE"/>
<circle cx="151.996" cy="157.255" r="1.75336" fill="#C7DDFE"/>
<circle cx="160.763" cy="157.255" r="1.75336" fill="#C7DDFE"/>
<circle cx="169.53" cy="157.255" r="1.75336" fill="#C7DDFE"/>
<circle cx="178.296" cy="157.255" r="1.75336" fill="#C7DDFE"/>
<circle cx="187.063" cy="157.255" r="1.75336" fill="#C7DDFE"/>
<circle cx="195.83" cy="157.255" r="1.75336" fill="#C7DDFE"/>
<circle cx="204.597" cy="157.255" r="1.75336" fill="#C7DDFE"/>
<circle cx="213.364" cy="157.255" r="1.75336" fill="#C7DDFE"/>
<circle cx="222.13" cy="157.255" r="1.75336" fill="#C7DDFE"/>
<circle cx="230.897" cy="157.255" r="1.75336" fill="#C7DDFE"/>
<circle cx="239.664" cy="157.255" r="1.75336" fill="#C7DDFE"/>
<circle cx="248.431" cy="157.255" r="1.75336" fill="#C7DDFE"/>
<circle cx="257.198" cy="157.255" r="1.75336" fill="#C7DDFE"/>
<circle cx="265.964" cy="157.255" r="1.75336" fill="#C7DDFE"/>
<circle cx="274.731" cy="157.255" r="1.75336" fill="#C7DDFE"/>
<circle cx="283.498" cy="157.255" r="1.75336" fill="#C7DDFE"/>
<circle cx="292.265" cy="157.255" r="1.75336" fill="#C7DDFE"/>
<circle cx="301.032" cy="157.255" r="1.75336" fill="#C7DDFE"/>
<circle cx="309.799" cy="157.255" r="1.75336" fill="#C7DDFE"/>
<circle cx="318.565" cy="157.255" r="1.75336" fill="#C7DDFE"/>
<circle cx="327.332" cy="157.255" r="1.75336" fill="#C7DDFE"/>
<circle cx="336.099" cy="157.255" r="1.75336" fill="#C7DDFE"/>
<circle cx="344.866" cy="157.255" r="1.75336" fill="#C7DDFE"/>
<circle cx="353.633" cy="157.255" r="1.75336" fill="#C7DDFE"/>
<circle cx="362.399" cy="157.255" r="1.75336" fill="#C7DDFE"/>
<circle cx="371.166" cy="157.255" r="1.75336" fill="#C7DDFE"/>
<circle cx="379.933" cy="157.255" r="1.75336" fill="#C7DDFE"/>
<circle cx="388.7" cy="157.255" r="1.75336" fill="#C7DDFE"/>
<circle cx="397.467" cy="157.255" r="1.75336" fill="#C7DDFE"/>
<circle cx="38.0273" cy="166.023" r="1.75336" fill="#C7DDFE"/>
<circle cx="46.7939" cy="166.023" r="1.75336" fill="#C7DDFE"/>
<circle cx="55.561" cy="166.023" r="1.75336" fill="#C7DDFE"/>
<circle cx="64.3276" cy="166.023" r="1.75336" fill="#C7DDFE"/>
<circle cx="73.0947" cy="166.023" r="1.75336" fill="#C7DDFE"/>
<circle cx="81.8613" cy="166.023" r="1.75336" fill="#C7DDFE"/>
<circle cx="90.6284" cy="166.023" r="1.75336" fill="#C7DDFE"/>
<circle cx="99.395" cy="166.023" r="1.75336" fill="#C7DDFE"/>
<circle cx="108.162" cy="166.023" r="1.75336" fill="#C7DDFE"/>
<circle cx="116.929" cy="166.023" r="1.75336" fill="#C7DDFE"/>
<circle cx="125.695" cy="166.023" r="1.75336" fill="#C7DDFE"/>
<circle cx="134.462" cy="166.023" r="1.75336" fill="#C7DDFE"/>
<circle cx="143.229" cy="166.023" r="1.75336" fill="#C7DDFE"/>
<circle cx="151.996" cy="166.023" r="1.75336" fill="#C7DDFE"/>
<circle cx="160.763" cy="166.023" r="1.75336" fill="#C7DDFE"/>
<circle cx="169.53" cy="166.023" r="1.75336" fill="#C7DDFE"/>
<circle cx="178.296" cy="166.023" r="1.75336" fill="#C7DDFE"/>
<circle cx="187.063" cy="166.023" r="1.75336" fill="#C7DDFE"/>
<circle cx="195.83" cy="166.023" r="1.75336" fill="#C7DDFE"/>
<circle cx="204.597" cy="166.023" r="1.75336" fill="#C7DDFE"/>
<circle cx="213.364" cy="166.023" r="1.75336" fill="#C7DDFE"/>
<circle cx="222.13" cy="166.023" r="1.75336" fill="#C7DDFE"/>
<circle cx="230.897" cy="166.023" r="1.75336" fill="#C7DDFE"/>
<circle cx="239.664" cy="166.023" r="1.75336" fill="#C7DDFE"/>
<circle cx="248.431" cy="166.023" r="1.75336" fill="#C7DDFE"/>
<circle cx="257.198" cy="166.023" r="1.75336" fill="#C7DDFE"/>
<circle cx="265.964" cy="166.023" r="1.75336" fill="#C7DDFE"/>
<circle cx="274.731" cy="166.023" r="1.75336" fill="#C7DDFE"/>
<circle cx="283.498" cy="166.023" r="1.75336" fill="#C7DDFE"/>
<circle cx="292.265" cy="166.023" r="1.75336" fill="#C7DDFE"/>
<circle cx="301.032" cy="166.023" r="1.75336" fill="#C7DDFE"/>
<circle cx="309.799" cy="166.023" r="1.75336" fill="#C7DDFE"/>
<circle cx="318.565" cy="166.023" r="1.75336" fill="#C7DDFE"/>
<circle cx="327.332" cy="166.023" r="1.75336" fill="#C7DDFE"/>
<circle cx="336.099" cy="166.023" r="1.75336" fill="#C7DDFE"/>
<circle cx="344.866" cy="166.023" r="1.75336" fill="#C7DDFE"/>
<circle cx="353.633" cy="166.023" r="1.75336" fill="#C7DDFE"/>
<circle cx="362.399" cy="166.023" r="1.75336" fill="#C7DDFE"/>
<circle cx="371.166" cy="166.023" r="1.75336" fill="#C7DDFE"/>
<circle cx="379.933" cy="166.023" r="1.75336" fill="#C7DDFE"/>
<circle cx="388.7" cy="166.023" r="1.75336" fill="#C7DDFE"/>
<circle cx="397.467" cy="166.023" r="1.75336" fill="#C7DDFE"/>
<circle cx="38.0273" cy="174.789" r="1.75336" fill="#C7DDFE"/>
<circle cx="46.7944" cy="174.789" r="1.75336" fill="#C7DDFE"/>
<circle cx="55.561" cy="174.789" r="1.75336" fill="#C7DDFE"/>
<circle cx="64.3281" cy="174.789" r="1.75336" fill="#C7DDFE"/>
<circle cx="73.0947" cy="174.789" r="1.75336" fill="#C7DDFE"/>
<circle cx="81.8613" cy="174.789" r="1.75336" fill="#C7DDFE"/>
<circle cx="90.6284" cy="174.789" r="1.75336" fill="#C7DDFE"/>
<circle cx="99.395" cy="174.789" r="1.75336" fill="#C7DDFE"/>
<circle cx="108.162" cy="174.789" r="1.75336" fill="#C7DDFE"/>
<circle cx="116.929" cy="174.789" r="1.75336" fill="#C7DDFE"/>
<circle cx="125.696" cy="174.789" r="1.75336" fill="#C7DDFE"/>
<circle cx="134.462" cy="174.789" r="1.75336" fill="#C7DDFE"/>
<circle cx="143.229" cy="174.789" r="1.75336" fill="#C7DDFE"/>
<circle cx="151.996" cy="174.789" r="1.75336" fill="#C7DDFE"/>
<circle cx="160.763" cy="174.789" r="1.75336" fill="#C7DDFE"/>
<circle cx="169.53" cy="174.789" r="1.75336" fill="#C7DDFE"/>
<circle cx="178.296" cy="174.789" r="1.75336" fill="#C7DDFE"/>
<circle cx="187.063" cy="174.789" r="1.75336" fill="#C7DDFE"/>
<circle cx="195.83" cy="174.789" r="1.75336" fill="#C7DDFE"/>
<circle cx="204.597" cy="174.789" r="1.75336" fill="#C7DDFE"/>
<circle cx="213.364" cy="174.789" r="1.75336" fill="#C7DDFE"/>
<circle cx="222.13" cy="174.789" r="1.75336" fill="#C7DDFE"/>
<circle cx="230.897" cy="174.789" r="1.75336" fill="#C7DDFE"/>
<circle cx="239.664" cy="174.789" r="1.75336" fill="#C7DDFE"/>
<circle cx="248.431" cy="174.789" r="1.75336" fill="#C7DDFE"/>
<circle cx="257.198" cy="174.789" r="1.75336" fill="#C7DDFE"/>
<circle cx="265.965" cy="174.789" r="1.75336" fill="#C7DDFE"/>
<circle cx="274.731" cy="174.789" r="1.75336" fill="#C7DDFE"/>
<circle cx="283.498" cy="174.789" r="1.75336" fill="#C7DDFE"/>
<circle cx="292.265" cy="174.789" r="1.75336" fill="#C7DDFE"/>
<circle cx="301.032" cy="174.789" r="1.75336" fill="#C7DDFE"/>
<circle cx="309.799" cy="174.789" r="1.75336" fill="#C7DDFE"/>
<circle cx="318.565" cy="174.789" r="1.75336" fill="#C7DDFE"/>
<circle cx="327.332" cy="174.789" r="1.75336" fill="#C7DDFE"/>
<circle cx="336.099" cy="174.789" r="1.75336" fill="#C7DDFE"/>
<circle cx="344.866" cy="174.789" r="1.75336" fill="#C7DDFE"/>
<circle cx="353.633" cy="174.789" r="1.75336" fill="#C7DDFE"/>
<circle cx="362.4" cy="174.789" r="1.75336" fill="#C7DDFE"/>
<circle cx="371.166" cy="174.789" r="1.75336" fill="#C7DDFE"/>
<circle cx="379.933" cy="174.789" r="1.75336" fill="#C7DDFE"/>
<circle cx="388.7" cy="174.789" r="1.75336" fill="#C7DDFE"/>
<circle cx="397.467" cy="174.789" r="1.75336" fill="#C7DDFE"/>
<circle cx="38.0273" cy="183.556" r="1.75336" fill="#C7DDFE"/>
<circle cx="46.7939" cy="183.556" r="1.75336" fill="#C7DDFE"/>
<circle cx="55.561" cy="183.556" r="1.75336" fill="#C7DDFE"/>
<circle cx="64.3276" cy="183.556" r="1.75336" fill="#C7DDFE"/>
<circle cx="73.0947" cy="183.556" r="1.75336" fill="#C7DDFE"/>
<circle cx="81.8613" cy="183.556" r="1.75336" fill="#C7DDFE"/>
<circle cx="90.6284" cy="183.556" r="1.75336" fill="#C7DDFE"/>
<circle cx="99.395" cy="183.556" r="1.75336" fill="#C7DDFE"/>
<circle cx="108.162" cy="183.556" r="1.75336" fill="#C7DDFE"/>
<circle cx="116.929" cy="183.556" r="1.75336" fill="#C7DDFE"/>
<circle cx="125.695" cy="183.556" r="1.75336" fill="#C7DDFE"/>
<circle cx="134.462" cy="183.556" r="1.75336" fill="#C7DDFE"/>
<circle cx="143.229" cy="183.556" r="1.75336" fill="#C7DDFE"/>
<circle cx="151.996" cy="183.556" r="1.75336" fill="#C7DDFE"/>
<circle cx="160.763" cy="183.556" r="1.75336" fill="#C7DDFE"/>
<circle cx="169.53" cy="183.556" r="1.75336" fill="#C7DDFE"/>
<circle cx="178.296" cy="183.556" r="1.75336" fill="#C7DDFE"/>
<circle cx="187.063" cy="183.556" r="1.75336" fill="#C7DDFE"/>
<circle cx="195.83" cy="183.556" r="1.75336" fill="#C7DDFE"/>
<circle cx="204.597" cy="183.556" r="1.75336" fill="#C7DDFE"/>
<circle cx="213.364" cy="183.556" r="1.75336" fill="#C7DDFE"/>
<circle cx="222.13" cy="183.556" r="1.75336" fill="#C7DDFE"/>
<circle cx="230.897" cy="183.556" r="1.75336" fill="#C7DDFE"/>
<circle cx="239.664" cy="183.556" r="1.75336" fill="#C7DDFE"/>
<circle cx="248.431" cy="183.556" r="1.75336" fill="#C7DDFE"/>
<circle cx="257.198" cy="183.556" r="1.75336" fill="#C7DDFE"/>
<circle cx="265.964" cy="183.556" r="1.75336" fill="#C7DDFE"/>
<circle cx="274.731" cy="183.556" r="1.75336" fill="#C7DDFE"/>
<circle cx="283.498" cy="183.556" r="1.75336" fill="#C7DDFE"/>
<circle cx="292.265" cy="183.556" r="1.75336" fill="#C7DDFE"/>
<circle cx="301.032" cy="183.556" r="1.75336" fill="#C7DDFE"/>
<circle cx="309.799" cy="183.556" r="1.75336" fill="#C7DDFE"/>
<circle cx="318.565" cy="183.556" r="1.75336" fill="#C7DDFE"/>
<circle cx="327.332" cy="183.556" r="1.75336" fill="#C7DDFE"/>
<circle cx="336.099" cy="183.556" r="1.75336" fill="#C7DDFE"/>
<circle cx="344.866" cy="183.556" r="1.75336" fill="#C7DDFE"/>
<circle cx="353.633" cy="183.556" r="1.75336" fill="#C7DDFE"/>
<circle cx="362.399" cy="183.556" r="1.75336" fill="#C7DDFE"/>
<circle cx="371.166" cy="183.556" r="1.75336" fill="#C7DDFE"/>
<circle cx="379.933" cy="183.556" r="1.75336" fill="#C7DDFE"/>
<circle cx="388.7" cy="183.556" r="1.75336" fill="#C7DDFE"/>
<circle cx="397.467" cy="183.556" r="1.75336" fill="#C7DDFE"/>
<circle cx="38.0273" cy="192.322" r="1.75336" fill="#C7DDFE"/>
<circle cx="46.7939" cy="192.322" r="1.75336" fill="#C7DDFE"/>
<circle cx="55.561" cy="192.322" r="1.75336" fill="#C7DDFE"/>
<circle cx="64.3276" cy="192.322" r="1.75336" fill="#C7DDFE"/>
<circle cx="73.0947" cy="192.322" r="1.75336" fill="#C7DDFE"/>
<circle cx="81.8613" cy="192.322" r="1.75336" fill="#C7DDFE"/>
<circle cx="90.6284" cy="192.322" r="1.75336" fill="#C7DDFE"/>
<circle cx="99.395" cy="192.322" r="1.75336" fill="#C7DDFE"/>
<circle cx="108.162" cy="192.322" r="1.75336" fill="#C7DDFE"/>
<circle cx="116.929" cy="192.322" r="1.75336" fill="#C7DDFE"/>
<circle cx="125.695" cy="192.322" r="1.75336" fill="#C7DDFE"/>
<circle cx="134.462" cy="192.322" r="1.75336" fill="#C7DDFE"/>
<circle cx="143.229" cy="192.322" r="1.75336" fill="#C7DDFE"/>
<circle cx="151.996" cy="192.322" r="1.75336" fill="#C7DDFE"/>
<circle cx="160.763" cy="192.322" r="1.75336" fill="#C7DDFE"/>
<circle cx="169.53" cy="192.322" r="1.75336" fill="#C7DDFE"/>
<circle cx="178.296" cy="192.322" r="1.75336" fill="#C7DDFE"/>
<circle cx="187.063" cy="192.322" r="1.75336" fill="#C7DDFE"/>
<circle cx="195.83" cy="192.322" r="1.75336" fill="#C7DDFE"/>
<circle cx="204.597" cy="192.322" r="1.75336" fill="#C7DDFE"/>
<circle cx="213.364" cy="192.322" r="1.75336" fill="#C7DDFE"/>
<circle cx="222.13" cy="192.322" r="1.75336" fill="#C7DDFE"/>
<circle cx="230.897" cy="192.322" r="1.75336" fill="#C7DDFE"/>
<circle cx="239.664" cy="192.322" r="1.75336" fill="#C7DDFE"/>
<circle cx="248.431" cy="192.322" r="1.75336" fill="#C7DDFE"/>
<circle cx="257.198" cy="192.322" r="1.75336" fill="#C7DDFE"/>
<circle cx="265.964" cy="192.322" r="1.75336" fill="#C7DDFE"/>
<circle cx="274.731" cy="192.322" r="1.75336" fill="#C7DDFE"/>
<circle cx="283.498" cy="192.322" r="1.75336" fill="#C7DDFE"/>
<circle cx="292.265" cy="192.322" r="1.75336" fill="#C7DDFE"/>
<circle cx="301.032" cy="192.322" r="1.75336" fill="#C7DDFE"/>
<circle cx="309.799" cy="192.322" r="1.75336" fill="#C7DDFE"/>
<circle cx="318.565" cy="192.322" r="1.75336" fill="#C7DDFE"/>
<circle cx="327.332" cy="192.322" r="1.75336" fill="#C7DDFE"/>
<circle cx="336.099" cy="192.322" r="1.75336" fill="#C7DDFE"/>
<circle cx="344.866" cy="192.322" r="1.75336" fill="#C7DDFE"/>
<circle cx="353.633" cy="192.322" r="1.75336" fill="#C7DDFE"/>
<circle cx="362.399" cy="192.322" r="1.75336" fill="#C7DDFE"/>
<circle cx="371.166" cy="192.322" r="1.75336" fill="#C7DDFE"/>
<circle cx="379.933" cy="192.322" r="1.75336" fill="#C7DDFE"/>
<circle cx="388.7" cy="192.322" r="1.75336" fill="#C7DDFE"/>
<circle cx="397.467" cy="192.322" r="1.75336" fill="#C7DDFE"/>
<circle cx="38.0273" cy="201.089" r="1.75336" fill="#C7DDFE"/>
<circle cx="46.7939" cy="201.089" r="1.75336" fill="#C7DDFE"/>
<circle cx="55.561" cy="201.089" r="1.75336" fill="#C7DDFE"/>
<circle cx="64.3276" cy="201.089" r="1.75336" fill="#C7DDFE"/>
<circle cx="73.0947" cy="201.089" r="1.75336" fill="#C7DDFE"/>
<circle cx="81.8613" cy="201.089" r="1.75336" fill="#C7DDFE"/>
<circle cx="90.6284" cy="201.089" r="1.75336" fill="#C7DDFE"/>
<circle cx="99.395" cy="201.089" r="1.75336" fill="#C7DDFE"/>
<circle cx="108.162" cy="201.089" r="1.75336" fill="#C7DDFE"/>
<circle cx="116.929" cy="201.089" r="1.75336" fill="#C7DDFE"/>
<circle cx="125.695" cy="201.089" r="1.75336" fill="#C7DDFE"/>
<circle cx="134.462" cy="201.089" r="1.75336" fill="#C7DDFE"/>
<circle cx="143.229" cy="201.089" r="1.75336" fill="#C7DDFE"/>
<circle cx="151.996" cy="201.089" r="1.75336" fill="#C7DDFE"/>
<circle cx="160.763" cy="201.089" r="1.75336" fill="#C7DDFE"/>
<circle cx="169.53" cy="201.089" r="1.75336" fill="#C7DDFE"/>
<circle cx="178.296" cy="201.089" r="1.75336" fill="#C7DDFE"/>
<circle cx="187.063" cy="201.089" r="1.75336" fill="#C7DDFE"/>
<circle cx="195.83" cy="201.089" r="1.75336" fill="#C7DDFE"/>
<circle cx="204.597" cy="201.089" r="1.75336" fill="#C7DDFE"/>
<circle cx="213.364" cy="201.089" r="1.75336" fill="#C7DDFE"/>
<circle cx="222.13" cy="201.089" r="1.75336" fill="#C7DDFE"/>
<circle cx="230.897" cy="201.089" r="1.75336" fill="#C7DDFE"/>
<circle cx="239.664" cy="201.089" r="1.75336" fill="#C7DDFE"/>
<circle cx="248.431" cy="201.089" r="1.75336" fill="#C7DDFE"/>
<circle cx="257.198" cy="201.089" r="1.75336" fill="#C7DDFE"/>
<circle cx="265.964" cy="201.089" r="1.75336" fill="#C7DDFE"/>
<circle cx="274.731" cy="201.089" r="1.75336" fill="#C7DDFE"/>
<circle cx="283.498" cy="201.089" r="1.75336" fill="#C7DDFE"/>
<circle cx="292.265" cy="201.089" r="1.75336" fill="#C7DDFE"/>
<circle cx="301.032" cy="201.089" r="1.75336" fill="#C7DDFE"/>
<circle cx="309.799" cy="201.089" r="1.75336" fill="#C7DDFE"/>
<circle cx="318.565" cy="201.089" r="1.75336" fill="#C7DDFE"/>
<circle cx="327.332" cy="201.089" r="1.75336" fill="#C7DDFE"/>
<circle cx="336.099" cy="201.089" r="1.75336" fill="#C7DDFE"/>
<circle cx="344.866" cy="201.089" r="1.75336" fill="#C7DDFE"/>
<circle cx="353.633" cy="201.089" r="1.75336" fill="#C7DDFE"/>
<circle cx="362.399" cy="201.089" r="1.75336" fill="#C7DDFE"/>
<circle cx="371.166" cy="201.089" r="1.75336" fill="#C7DDFE"/>
<circle cx="379.933" cy="201.089" r="1.75336" fill="#C7DDFE"/>
<circle cx="388.7" cy="201.089" r="1.75336" fill="#C7DDFE"/>
<circle cx="397.467" cy="201.089" r="1.75336" fill="#C7DDFE"/>
<circle cx="38.0273" cy="209.857" r="1.75336" fill="#C7DDFE"/>
<circle cx="46.7939" cy="209.857" r="1.75336" fill="#C7DDFE"/>
<circle cx="55.561" cy="209.857" r="1.75336" fill="#C7DDFE"/>
<circle cx="64.3276" cy="209.857" r="1.75336" fill="#C7DDFE"/>
<circle cx="73.0947" cy="209.857" r="1.75336" fill="#C7DDFE"/>
<circle cx="81.8613" cy="209.857" r="1.75336" fill="#C7DDFE"/>
<circle cx="90.6284" cy="209.857" r="1.75336" fill="#C7DDFE"/>
<circle cx="99.395" cy="209.857" r="1.75336" fill="#C7DDFE"/>
<circle cx="108.162" cy="209.857" r="1.75336" fill="#C7DDFE"/>
<circle cx="116.929" cy="209.857" r="1.75336" fill="#C7DDFE"/>
<circle cx="125.695" cy="209.857" r="1.75336" fill="#C7DDFE"/>
<circle cx="134.462" cy="209.857" r="1.75336" fill="#C7DDFE"/>
<circle cx="143.229" cy="209.857" r="1.75336" fill="#C7DDFE"/>
<circle cx="151.996" cy="209.857" r="1.75336" fill="#C7DDFE"/>
<circle cx="160.763" cy="209.857" r="1.75336" fill="#C7DDFE"/>
<circle cx="169.53" cy="209.857" r="1.75336" fill="#C7DDFE"/>
<circle cx="178.296" cy="209.857" r="1.75336" fill="#C7DDFE"/>
<circle cx="187.063" cy="209.857" r="1.75336" fill="#C7DDFE"/>
<circle cx="195.83" cy="209.857" r="1.75336" fill="#C7DDFE"/>
<circle cx="204.597" cy="209.857" r="1.75336" fill="#C7DDFE"/>
<circle cx="213.364" cy="209.857" r="1.75336" fill="#C7DDFE"/>
<circle cx="222.13" cy="209.857" r="1.75336" fill="#C7DDFE"/>
<circle cx="230.897" cy="209.857" r="1.75336" fill="#C7DDFE"/>
<circle cx="239.664" cy="209.857" r="1.75336" fill="#C7DDFE"/>
<circle cx="248.431" cy="209.857" r="1.75336" fill="#C7DDFE"/>
<circle cx="257.198" cy="209.857" r="1.75336" fill="#C7DDFE"/>
<circle cx="265.964" cy="209.857" r="1.75336" fill="#C7DDFE"/>
<circle cx="274.731" cy="209.857" r="1.75336" fill="#C7DDFE"/>
<circle cx="283.498" cy="209.857" r="1.75336" fill="#C7DDFE"/>
<circle cx="292.265" cy="209.857" r="1.75336" fill="#C7DDFE"/>
<circle cx="301.032" cy="209.857" r="1.75336" fill="#C7DDFE"/>
<circle cx="309.799" cy="209.857" r="1.75336" fill="#C7DDFE"/>
<circle cx="318.565" cy="209.857" r="1.75336" fill="#C7DDFE"/>
<circle cx="327.332" cy="209.857" r="1.75336" fill="#C7DDFE"/>
<circle cx="336.099" cy="209.857" r="1.75336" fill="#C7DDFE"/>
<circle cx="344.866" cy="209.857" r="1.75336" fill="#C7DDFE"/>
<circle cx="353.633" cy="209.857" r="1.75336" fill="#C7DDFE"/>
<circle cx="362.399" cy="209.857" r="1.75336" fill="#C7DDFE"/>
<circle cx="371.166" cy="209.857" r="1.75336" fill="#C7DDFE"/>
<circle cx="379.933" cy="209.857" r="1.75336" fill="#C7DDFE"/>
<circle cx="388.7" cy="209.857" r="1.75336" fill="#C7DDFE"/>
<circle cx="397.467" cy="209.857" r="1.75336" fill="#C7DDFE"/>
</g>
<path d="M26.6299 212.048C122.188 212.048 320.318 187.062 399.658 41.5332" stroke="url(#paint0_linear_137_12152)" stroke-width="3.50673" stroke-linecap="round"/>
<path d="M283.733 57.2045V45.4091H286.409V57.2045H283.733ZM279.173 52.6449V49.9688H290.969V52.6449H279.173ZM307.045 60.2386C306.21 60.233 305.394 60.0881 304.599 59.804C303.803 59.5142 303.087 59.0455 302.451 58.3977C301.815 57.7443 301.309 56.8778 300.934 55.7983C300.559 54.7131 300.374 53.3693 300.38 51.767C300.38 50.2727 300.539 48.9403 300.857 47.7699C301.175 46.5994 301.633 45.6108 302.229 44.804C302.826 43.9915 303.545 43.3722 304.386 42.946C305.232 42.5199 306.178 42.3068 307.224 42.3068C308.32 42.3068 309.292 42.5227 310.138 42.9545C310.991 43.3864 311.678 43.9773 312.201 44.7273C312.724 45.4716 313.048 46.3125 313.173 47.25H310.062C309.903 46.5795 309.576 46.0455 309.082 45.6477C308.593 45.2443 307.974 45.0426 307.224 45.0426C306.013 45.0426 305.082 45.5682 304.428 46.6193C303.781 47.6705 303.454 49.1136 303.448 50.9489H303.567C303.846 50.4489 304.207 50.0199 304.65 49.6619C305.093 49.304 305.593 49.0284 306.15 48.8352C306.712 48.6364 307.306 48.5369 307.931 48.5369C308.954 48.5369 309.871 48.7812 310.684 49.2699C311.502 49.7585 312.15 50.4318 312.627 51.2898C313.104 52.142 313.34 53.1193 313.335 54.2216C313.34 55.3693 313.079 56.4006 312.55 57.3153C312.022 58.2244 311.286 58.9403 310.343 59.4631C309.4 59.9858 308.3 60.2443 307.045 60.2386ZM307.028 57.6818C307.647 57.6818 308.201 57.5312 308.69 57.2301C309.178 56.929 309.565 56.5227 309.849 56.0114C310.133 55.5 310.272 54.9261 310.266 54.2898C310.272 53.6648 310.136 53.0994 309.857 52.5938C309.585 52.0881 309.207 51.6875 308.724 51.392C308.241 51.0966 307.69 50.9489 307.07 50.9489C306.61 50.9489 306.181 51.0369 305.783 51.2131C305.386 51.3892 305.039 51.6335 304.744 51.946C304.448 52.2528 304.215 52.6108 304.045 53.0199C303.88 53.4233 303.795 53.8551 303.789 54.3153C303.795 54.9233 303.937 55.483 304.215 55.9943C304.494 56.5057 304.877 56.9148 305.366 57.2216C305.854 57.5284 306.408 57.6818 307.028 57.6818ZM322.667 60.3324C321.263 60.3324 320.059 59.9773 319.053 59.267C318.053 58.5511 317.283 57.5199 316.744 56.1733C316.21 54.821 315.942 53.1932 315.942 51.2898C315.948 49.3864 316.218 47.767 316.752 46.4318C317.292 45.0909 318.062 44.0682 319.062 43.3636C320.067 42.6591 321.269 42.3068 322.667 42.3068C324.065 42.3068 325.266 42.6591 326.272 43.3636C327.278 44.0682 328.048 45.0909 328.582 46.4318C329.121 47.7727 329.391 49.392 329.391 51.2898C329.391 53.1989 329.121 54.8295 328.582 56.1818C328.048 57.5284 327.278 58.5568 326.272 59.267C325.272 59.9773 324.07 60.3324 322.667 60.3324ZM322.667 57.6648C323.758 57.6648 324.619 57.1278 325.249 56.054C325.886 54.9744 326.204 53.3864 326.204 51.2898C326.204 49.9034 326.059 48.7386 325.769 47.7955C325.479 46.8523 325.07 46.142 324.542 45.6648C324.013 45.1818 323.388 44.9403 322.667 44.9403C321.582 44.9403 320.724 45.4801 320.093 46.5597C319.462 47.6335 319.144 49.2102 319.138 51.2898C319.133 52.6818 319.272 53.8523 319.556 54.8011C319.846 55.75 320.255 56.4659 320.783 56.9489C321.312 57.4261 321.94 57.6648 322.667 57.6648ZM338.675 60.3324C337.271 60.3324 336.067 59.9773 335.061 59.267C334.061 58.5511 333.291 57.5199 332.751 56.1733C332.217 54.821 331.95 53.1932 331.95 51.2898C331.956 49.3864 332.226 47.767 332.76 46.4318C333.3 45.0909 334.07 44.0682 335.07 43.3636C336.075 42.6591 337.277 42.3068 338.675 42.3068C340.072 42.3068 341.274 42.6591 342.28 43.3636C343.286 44.0682 344.055 45.0909 344.589 46.4318C345.129 47.7727 345.399 49.392 345.399 51.2898C345.399 53.1989 345.129 54.8295 344.589 56.1818C344.055 57.5284 343.286 58.5568 342.28 59.267C341.28 59.9773 340.078 60.3324 338.675 60.3324ZM338.675 57.6648C339.766 57.6648 340.626 57.1278 341.257 56.054C341.893 54.9744 342.212 53.3864 342.212 51.2898C342.212 49.9034 342.067 48.7386 341.777 47.7955C341.487 46.8523 341.078 46.142 340.55 45.6648C340.021 45.1818 339.396 44.9403 338.675 44.9403C337.589 44.9403 336.732 45.4801 336.101 46.5597C335.47 47.6335 335.152 49.2102 335.146 51.2898C335.141 52.6818 335.28 53.8523 335.564 54.8011C335.854 55.75 336.263 56.4659 336.791 56.9489C337.32 57.4261 337.947 57.6648 338.675 57.6648ZM363.516 56.7273V55.8068C363.516 55.1307 363.658 54.5085 363.942 53.9403C364.232 53.3722 364.653 52.9148 365.204 52.5682C365.755 52.2216 366.423 52.0483 367.207 52.0483C368.013 52.0483 368.69 52.2216 369.235 52.5682C369.781 52.9091 370.192 53.3636 370.471 53.9318C370.755 54.5 370.897 55.125 370.897 55.8068V56.7273C370.897 57.4034 370.755 58.0256 370.471 58.5938C370.187 59.1619 369.769 59.6193 369.218 59.9659C368.673 60.3125 368.002 60.4858 367.207 60.4858C366.411 60.4858 365.738 60.3125 365.187 59.9659C364.636 59.6193 364.218 59.1619 363.934 58.5938C363.656 58.0256 363.516 57.4034 363.516 56.7273ZM365.741 55.8068V56.7273C365.741 57.1761 365.849 57.5881 366.065 57.9631C366.281 58.3381 366.661 58.5256 367.207 58.5256C367.758 58.5256 368.136 58.3409 368.34 57.9716C368.55 57.5966 368.656 57.1818 368.656 56.7273V55.8068C368.656 55.3523 368.556 54.9375 368.357 54.5625C368.158 54.1818 367.775 53.9915 367.207 53.9915C366.673 53.9915 366.295 54.1818 366.073 54.5625C365.852 54.9375 365.741 55.3523 365.741 55.8068ZM354.644 46.7386V45.8182C354.644 45.1364 354.789 44.5114 355.079 43.9432C355.369 43.375 355.789 42.9205 356.34 42.5795C356.891 42.233 357.559 42.0597 358.343 42.0597C359.144 42.0597 359.817 42.233 360.363 42.5795C360.914 42.9205 361.329 43.375 361.607 43.9432C361.886 44.5114 362.025 45.1364 362.025 45.8182V46.7386C362.025 47.4205 361.883 48.0455 361.599 48.6136C361.32 49.1761 360.906 49.6278 360.354 49.9688C359.803 50.3097 359.133 50.4801 358.343 50.4801C357.542 50.4801 356.866 50.3097 356.315 49.9688C355.769 49.6278 355.354 49.1733 355.07 48.6051C354.786 48.0369 354.644 47.4148 354.644 46.7386ZM356.886 45.8182V46.7386C356.886 47.1932 356.991 47.608 357.201 47.983C357.417 48.3523 357.798 48.5369 358.343 48.5369C358.888 48.5369 359.263 48.3523 359.468 47.983C359.678 47.608 359.783 47.1932 359.783 46.7386V45.8182C359.783 45.3636 359.684 44.9489 359.485 44.5739C359.286 44.1932 358.906 44.0028 358.343 44.0028C357.803 44.0028 357.425 44.1932 357.21 44.5739C356.994 44.9545 356.886 45.3693 356.886 45.8182ZM355.616 60L367.616 42.5455H369.746L357.746 60H355.616Z" fill="#748FFE"/>
<defs>
<linearGradient id="paint0_linear_137_12152" x1="415" y1="25.7529" x2="37.15" y2="212.486" gradientUnits="userSpaceOnUse">
<stop stop-color="#748FFE"/>
<stop offset="1" stop-color="white"/>
</linearGradient>
</defs>
</svg>
