<svg width="507" height="317" viewBox="0 0 507 317" fill="none" xmlns="http://www.w3.org/2000/svg">
<g clip-path="url(#clip0_875_1322)">
<path d="M508.544 222.282C506.946 223.389 504.39 223.942 501.194 223.942C494.483 223.942 488.091 221.175 481.86 215.916H502.312L498.478 209.274H475.788C474.829 208.167 474.19 207.06 473.391 205.676C472.752 204.569 472.113 203.462 471.793 202.908H494.803L490.968 196.266H469.876C469.876 193.499 470.515 191.285 472.432 189.624C474.03 187.963 476.746 187.133 480.262 187.133C483.458 187.133 486.813 187.41 489.689 188.517C492.565 189.624 496.081 191.285 500.076 193.775L502.472 186.856C493.364 181.044 484.256 178 474.669 178C468.278 178 463.804 179.661 460.768 183.258C457.572 186.58 456.613 191.008 457.892 196.543H448.624L452.139 202.632H459.809C460.128 203.185 460.768 204.292 461.407 205.399C462.046 206.506 462.845 207.89 463.803 208.997H455.814L459.649 215.639H469.556C474.509 220.898 480.421 225.049 486.973 228.094C493.524 231.138 500.235 232.799 506.307 232.799C515.575 232.799 521.327 230.031 523.245 223.942L513.018 217.3C511.74 219.514 510.142 221.175 508.544 222.282Z" fill="white" fill-opacity="0.1"/>
</g>
<g clip-path="url(#clip1_875_1322)">
<path d="M385.407 20.5451C387.537 21.1128 389.279 22.4848 390.245 24.3559L393.185 30.0204C393.717 31.0458 395.055 31.4062 396.174 30.8255L400.538 28.5607C401.657 27.98 402.133 26.6779 401.601 25.6526L398.661 19.9881C394.436 11.8399 383.803 8.97228 374.911 13.5831C370.636 15.8 367.344 19.4841 365.762 23.823L362.374 33.0962L355.79 31.3233C354.579 30.9973 353.248 31.6878 352.818 32.8656L351.257 37.1372C350.827 38.315 351.46 39.5342 352.671 39.8602L359.254 41.6331L356.915 48.0358C355.407 52.1642 351.136 54.7969 346.842 54.5116C345.759 54.4396 344.708 55.062 344.342 56.0648L342.652 60.6899C342.237 61.8256 342.847 63.0012 344.014 63.3156L381.474 73.4025C382.641 73.7169 383.924 73.0511 384.339 71.9154L385.955 67.4913C386.37 66.3555 385.76 65.18 384.593 64.8656L360.203 58.2978C362.702 56.1245 364.596 53.3987 365.691 50.399L368.031 43.9963L379.081 46.972C380.249 47.2864 381.531 46.6205 381.946 45.4848L383.563 41.0607C383.978 39.925 383.368 38.7495 382.2 38.4351L371.15 35.4594L374.538 26.1862C376.117 21.8822 380.979 19.359 385.407 20.5451Z" fill="white" fill-opacity="0.1"/>
</g>
<g clip-path="url(#clip2_875_1322)">
<path d="M46.2098 281.641C43.5422 281.169 40.8849 280.977 38.2324 280.749C36.6948 280.619 35.1665 280.395 33.6559 279.919C30.6786 278.976 29.6698 276.421 31.5776 274.791C32.118 274.329 32.7986 274.045 33.5184 273.807C36.2995 272.904 39.2891 272.645 42.5207 273.068C44.131 273.28 44.4551 272.99 44.1967 271.669C43.9205 270.274 43.5567 268.88 43.2422 267.483C43.0287 266.546 42.3516 266.072 41.2364 265.952C39.1984 265.741 37.2241 265.728 35.2867 265.953C32.764 266.256 32.7583 266.246 31.5324 264.145C29.8093 261.182 29.8093 261.182 26.4905 262.071C26.0101 262.2 25.5241 262.319 25.0494 262.457C23.5218 262.912 23.4011 263.227 24.1655 264.638C24.5053 265.27 24.8888 265.891 25.2452 266.53C26.308 268.393 26.2802 268.366 24.6662 269.545C20.7669 272.398 19.4928 276.13 21.8887 280.913C24.0066 285.149 28.052 287.309 33.0432 288.333C36.1193 288.967 39.1471 289.015 42.2069 289.337C43.3989 289.458 44.5812 289.65 45.7394 290.04C49.1531 291.171 50.4174 294.234 48.2232 296.111C47.0504 297.114 45.5304 297.691 43.7745 297.947C41.067 298.345 38.2877 298.4 35.3792 297.947C33.6747 297.681 33.3778 297.952 33.6709 299.377C33.9277 300.608 34.2339 301.837 34.5401 303.066C34.9522 304.719 35.336 305.034 37.3751 305.313C39.9693 305.657 42.451 305.524 44.8974 305.241C46.8129 305.022 46.907 305.076 47.8782 306.714C48.3186 307.455 48.7538 308.209 49.1941 308.95C49.7476 309.886 50.5662 310.3 51.6583 310.03C52.8923 309.722 54.1259 309.391 55.3317 309.034C56.3248 308.746 56.5553 308.119 56.0298 307.209C55.4421 306.191 54.9033 305.148 54.2719 304.142C53.6183 303.119 53.8153 302.456 54.7706 301.884C56.9745 300.57 58.4458 298.751 59.0647 296.461C60.7986 290.119 54.7186 283.147 46.2098 281.641Z" fill="white" fill-opacity="0.1"/>
</g>
<g clip-path="url(#clip3_875_1322)">
<path d="M79.8119 12.5061C79.518 11.886 79.0493 11.5589 78.4068 11.5252L67.5693 10.9572C66.7749 10.9156 66.1758 11.2439 65.7733 11.9399L51.6146 35.0037C51.2596 35.6277 50.5785 36.7445 49.5726 38.3548C48.5652 39.9646 47.8093 41.2095 47.3045 42.0901C46.3637 38.7528 45.6339 36.3529 45.1154 34.8898L36.2763 10.3376C35.9918 9.6424 35.4916 9.27611 34.7727 9.23843L23.7647 8.66153C23.0846 8.62589 22.5124 8.89845 22.0498 9.47891C21.6633 10.063 21.5789 10.6632 21.7968 11.2794L35.4398 44.7554L23.2968 44.119C22.8051 44.0933 22.3547 44.2483 21.9453 44.5858C21.536 44.9241 21.297 45.3358 21.2285 45.8234L20.406 51.6754C20.3322 52.2008 20.4514 52.6419 20.7631 52.9979C21.0752 53.3539 21.4768 53.5447 21.9685 53.5705L38.3098 54.4269L37.6376 59.21L21.2963 58.3536C20.8046 58.3278 20.3541 58.4835 19.9447 58.8208C19.5355 59.1583 19.2964 59.5708 19.2277 60.0591L18.4134 65.8536C18.3395 66.3796 18.4587 66.8206 18.7704 67.1767C19.0825 67.5329 19.4841 67.7237 19.9758 67.7494L36.3177 68.6059L33.7081 87.1739C33.6344 87.6985 33.7532 88.1397 34.0653 88.4955C34.3775 88.8513 34.779 89.0431 35.2706 89.0689L45.0306 89.5804C45.5217 89.6061 45.9716 89.4504 46.3836 89.1125C46.7915 88.7743 47.0304 88.3624 47.0988 87.8755L49.7084 69.3075L66.1636 70.1698C66.6547 70.1956 67.1041 70.0494 67.5106 69.7308C67.9179 69.4125 68.1572 68.9903 68.2311 68.4643L69.0455 62.6698C69.1141 62.1814 68.9954 61.7501 68.6849 61.3749C68.376 60.9994 67.9752 60.7997 67.4841 60.774L51.0289 59.9116L51.701 55.1291L68.1562 55.9914C68.6473 56.0172 69.0967 55.871 69.5032 55.5526C69.9105 55.2343 70.1498 54.8121 70.2237 54.2867L71.0461 48.4346C71.1146 47.947 70.9958 47.5166 70.6854 47.1406C70.3763 46.766 69.9756 46.5658 69.4846 46.54L57.2853 45.9007L79.6242 14.2532C80.0154 13.6317 80.0787 13.0493 79.8119 12.5061Z" fill="white" fill-opacity="0.1"/>
</g>
<defs>
<clipPath id="clip0_875_1322">
<rect width="63.2761" height="63.2761" fill="white" transform="matrix(1 0 0.5 0.866025 436 178)"/>
</clipPath>
<clipPath id="clip1_875_1322">
<rect width="64.589" height="64.589" fill="white" transform="matrix(0.965604 0.260015 -0.343184 0.939268 353.645 0.939453)"/>
</clipPath>
<clipPath id="clip2_875_1322">
<rect width="54.7233" height="54.7233" fill="white" transform="matrix(0.965926 -0.258819 0.5 0.866025 0 269.164)"/>
</clipPath>
<clipPath id="clip3_875_1322">
<rect width="80" height="80" fill="white" transform="matrix(0.99863 0.052336 -0.139173 0.990268 11.1338 8)"/>
</clipPath>
</defs>
</svg>
