<svg width="81" height="62" viewBox="0 0 81 62" fill="none" xmlns="http://www.w3.org/2000/svg">
<g clip-path="url(#clip0_126_8806)">
<path d="M46.2098 26.6409C43.5422 26.1689 40.8849 25.9768 38.2324 25.7494C36.6948 25.6189 35.1665 25.3955 33.6559 24.9187C30.6786 23.9759 29.6698 21.4207 31.5776 19.7906C32.118 19.3293 32.7986 19.0452 33.5184 18.8072C36.2995 17.9037 39.2891 17.6452 42.5207 18.0677C44.131 18.2805 44.4551 17.9902 44.1967 16.6693C43.9205 15.274 43.5567 13.8796 43.2422 12.4833C43.0287 11.5459 42.3516 11.0718 41.2364 10.9524C39.1984 10.7413 37.2241 10.7278 35.2867 10.953C32.764 11.256 32.7583 11.2462 31.5324 9.14474C29.8093 6.18191 29.8093 6.18191 26.4905 7.07117C26.0101 7.19988 25.5241 7.3188 25.0494 7.4573C23.5218 7.91183 23.4011 8.22674 24.1655 9.63812C24.5053 10.2704 24.8888 10.891 25.2452 11.5301C26.308 13.3928 26.2802 13.3663 24.6662 14.5447C20.7669 17.3979 19.4928 21.1299 21.8887 25.913C24.0066 30.1489 28.052 32.3087 33.0432 33.3335C36.1193 33.9672 39.1471 34.0149 42.2069 34.3365C43.3989 34.4579 44.5812 34.6497 45.7394 35.0401C49.1531 36.1711 50.4174 39.2343 48.2232 41.1107C47.0504 42.1143 45.5304 42.6912 43.7745 42.9469C41.067 43.3446 38.2877 43.3999 35.3792 42.9473C33.6747 42.6807 33.3778 42.9524 33.6709 44.377C33.9277 45.608 34.2339 46.837 34.5401 48.066C34.9522 49.7187 35.336 50.034 37.3751 50.3127C39.9693 50.6574 42.451 50.5236 44.8974 50.2411C46.8129 50.0217 46.907 50.0756 47.8782 51.7141C48.3186 52.4551 48.7538 53.2087 49.1941 53.9497C49.7476 54.8864 50.5662 55.3 51.6583 55.03C52.8923 54.7219 54.1259 54.3914 55.3317 54.0344C56.3248 53.7457 56.5553 53.1188 56.0298 52.2085C55.4421 51.1906 54.9033 50.1482 54.2719 49.142C53.6183 48.1191 53.8153 47.456 54.7706 46.8835C56.9745 45.5697 58.4458 43.7513 59.0647 41.4607C60.7986 35.119 54.7186 28.1472 46.2098 26.6409Z" fill="white" fill-opacity="0.1"/>
</g>
<defs>
<clipPath id="clip0_126_8806">
<rect width="54.7233" height="54.7233" fill="white" transform="matrix(0.965926 -0.258819 0.5 0.866025 0 14.1641)"/>
</clipPath>
</defs>
</svg>
