<svg width="71" height="55" viewBox="0 0 71 55" fill="none" xmlns="http://www.w3.org/2000/svg">
<g clip-path="url(#clip0_126_8787)">
<path d="M72.5443 44.2817C70.9464 45.3887 68.3898 45.9423 65.194 45.9423C58.4829 45.9423 52.0914 43.1747 45.8596 37.9162H66.3125L62.4776 31.2739H39.7877C38.8291 30.1669 38.1899 29.0598 37.391 27.6761C36.7519 26.5691 36.1127 25.4619 35.7931 24.9085H58.8026L54.9677 18.2662H33.8757C33.8756 15.4987 34.5147 13.2845 36.4322 11.624C38.0301 9.9634 40.7465 9.13312 44.2619 9.13312C47.4576 9.13312 50.8132 9.40983 53.6894 10.517C56.5655 11.624 60.0809 13.2845 64.0756 15.7754L66.4724 8.8564C57.3645 3.04442 48.2565 0 38.6692 0C32.2778 0 27.8036 1.66057 24.7677 5.25842C21.572 8.57955 20.6132 13.0077 21.8915 18.5429H12.6237L16.1391 24.6317H23.8089C24.1285 25.1852 24.7676 26.2922 25.4067 27.3992C26.0459 28.5062 26.8448 29.8901 27.8035 30.9971H19.8141L23.649 37.6393H33.5559C38.5093 42.8978 44.4215 47.0492 50.9728 50.0936C57.5241 53.138 64.2353 54.7987 70.3072 54.7987C79.575 54.7987 85.3273 52.0311 87.2447 45.9423L77.0182 39.3C75.7401 41.5142 74.1421 43.1747 72.5443 44.2817Z" fill="white" fill-opacity="0.1"/>
</g>
<defs>
<clipPath id="clip0_126_8787">
<rect width="63.2761" height="63.2761" fill="white" transform="matrix(1 0 0.5 0.866025 0 0)"/>
</clipPath>
</defs>
</svg>
