<svg width="1320" height="403" viewBox="0 0 1320 403" fill="none" xmlns="http://www.w3.org/2000/svg">
<line x1="0.570695" y1="-2" x2="0.570695" y2="594" stroke="#414148" stroke-opacity="0.47" stroke-width="1.14139"/>
<line x1="88.5707" y1="-2" x2="88.5707" y2="594" stroke="#414148" stroke-opacity="0.47" stroke-width="1.14139"/>
<line x1="176.571" y1="-2" x2="176.571" y2="594" stroke="#414148" stroke-opacity="0.47" stroke-width="1.14139"/>
<line x1="264.571" y1="-2" x2="264.571" y2="594" stroke="#414148" stroke-opacity="0.47" stroke-width="1.14139"/>
<line x1="352.571" y1="-2" x2="352.571" y2="594" stroke="#414148" stroke-opacity="0.47" stroke-width="1.14139"/>
<line x1="440.571" y1="-2" x2="440.571" y2="594" stroke="#414148" stroke-opacity="0.47" stroke-width="1.14139"/>
<line x1="528.571" y1="-2" x2="528.571" y2="594" stroke="#414148" stroke-opacity="0.47" stroke-width="1.14139"/>
<line x1="616.571" y1="-2" x2="616.571" y2="594" stroke="#414148" stroke-opacity="0.47" stroke-width="1.14139"/>
<line x1="704.571" y1="-2" x2="704.571" y2="594" stroke="#414148" stroke-opacity="0.47" stroke-width="1.14139"/>
<line x1="792.571" y1="-2" x2="792.571" y2="594" stroke="#414148" stroke-opacity="0.47" stroke-width="1.14139"/>
<line x1="880.571" y1="-2" x2="880.571" y2="594" stroke="#414148" stroke-opacity="0.47" stroke-width="1.14139"/>
<line x1="968.571" y1="-2" x2="968.571" y2="594" stroke="#414148" stroke-opacity="0.47" stroke-width="1.14139"/>
<line x1="1056.57" y1="-2" x2="1056.57" y2="594" stroke="#414148" stroke-opacity="0.47" stroke-width="1.14139"/>
<line x1="1144.57" y1="-2" x2="1144.57" y2="594" stroke="#414148" stroke-opacity="0.47" stroke-width="1.14139"/>
<line x1="1232.57" y1="-2" x2="1232.57" y2="594" stroke="#414148" stroke-opacity="0.47" stroke-width="1.14139"/>
<line x1="1453" y1="39.5707" x2="-26" y2="39.5707" stroke="#414148" stroke-opacity="0.47" stroke-width="1.14139"/>
<line x1="1453" y1="127.571" x2="-26" y2="127.571" stroke="#414148" stroke-opacity="0.47" stroke-width="1.14139"/>
<line x1="1453" y1="215.571" x2="-26" y2="215.571" stroke="#414148" stroke-opacity="0.47" stroke-width="1.14139"/>
<line x1="1453" y1="303.571" x2="-26" y2="303.571" stroke="#414148" stroke-opacity="0.47" stroke-width="1.14139"/>
<line x1="1453" y1="391.571" x2="-26" y2="391.571" stroke="#414148" stroke-opacity="0.47" stroke-width="1.14139"/>
</svg>
