<svg width="86" height="79" viewBox="0 0 86 79" fill="none" xmlns="http://www.w3.org/2000/svg">
<g clip-path="url(#clip0_126_8785)">
<path d="M54.4074 20.5451C56.5374 21.1128 58.279 22.4848 59.2447 24.3559L62.1845 30.0204C62.7167 31.0458 64.0553 31.4062 65.1743 30.8255L69.538 28.5607C70.657 27.98 71.1327 26.6779 70.6006 25.6526L67.6607 19.9881C63.4363 11.8399 52.8033 8.97228 43.9115 13.5831C39.6362 15.8 36.3444 19.4841 34.7617 23.823L31.3735 33.0962L24.7897 31.3233C23.5789 30.9973 22.2484 31.6878 21.818 32.8656L20.2573 37.1372C19.827 38.315 20.4597 39.5342 21.6706 39.8602L28.2544 41.6331L25.915 48.0358C24.4066 52.1642 20.1355 54.7969 15.8423 54.5116C14.7591 54.4396 13.7081 55.062 13.3417 56.0648L11.6518 60.6899C11.2368 61.8256 11.8469 63.0012 13.0145 63.3156L50.4736 73.4025C51.6412 73.7169 52.9241 73.0511 53.339 71.9154L54.9555 67.4913C55.3704 66.3555 54.7603 65.18 53.5928 64.8656L29.2025 58.2978C31.702 56.1245 33.5961 53.3987 34.6913 50.399L37.0306 43.9963L48.081 46.972C49.2485 47.2864 50.5314 46.6205 50.9464 45.4848L52.5628 41.0607C52.9778 39.925 52.3677 38.7495 51.2001 38.4351L40.1498 35.4594L43.538 26.1862C45.1172 21.8822 49.9788 19.359 54.4074 20.5451Z" fill="white" fill-opacity="0.1"/>
</g>
<defs>
<clipPath id="clip0_126_8785">
<rect width="64.589" height="64.589" fill="white" transform="matrix(0.965604 0.260015 -0.343184 0.939268 22.6445 0.939453)"/>
</clipPath>
</defs>
</svg>
