<svg width="92" height="84" viewBox="0 0 92 84" fill="none" xmlns="http://www.w3.org/2000/svg">
<g clip-path="url(#clip0_126_8824)">
<path d="M79.8119 4.50609C79.518 3.88599 79.0493 3.55887 78.4068 3.5252L67.5693 2.95723C66.7749 2.9156 66.1758 3.24392 65.7733 3.9399L51.6146 27.0037C51.2596 27.6277 50.5785 28.7445 49.5726 30.3548C48.5652 31.9646 47.8093 33.2095 47.3045 34.0901C46.3637 30.7528 45.6339 28.3529 45.1154 26.8898L36.2763 2.33765C35.9918 1.6424 35.4916 1.27611 34.7727 1.23843L23.7647 0.661527C23.0846 0.625886 22.5124 0.898447 22.0498 1.47891C21.6633 2.06296 21.5789 2.66324 21.7968 3.27937L35.4398 36.7554L23.2968 36.119C22.8051 36.0933 22.3547 36.2483 21.9453 36.5858C21.536 36.9241 21.297 37.3358 21.2285 37.8234L20.406 43.6754C20.3322 44.2008 20.4514 44.6419 20.7631 44.9979C21.0752 45.3539 21.4768 45.5447 21.9685 45.5705L38.3098 46.4269L37.6376 51.21L21.2963 50.3536C20.8046 50.3278 20.3541 50.4835 19.9447 50.8208C19.5355 51.1583 19.2964 51.5708 19.2277 52.0591L18.4134 57.8536C18.3395 58.3796 18.4587 58.8206 18.7704 59.1767C19.0825 59.5329 19.4841 59.7237 19.9758 59.7494L36.3177 60.6059L33.7081 79.1739C33.6344 79.6985 33.7532 80.1397 34.0653 80.4955C34.3775 80.8513 34.779 81.0431 35.2706 81.0689L45.0306 81.5804C45.5217 81.6061 45.9716 81.4504 46.3836 81.1125C46.7915 80.7743 47.0304 80.3624 47.0988 79.8755L49.7084 61.3075L66.1636 62.1698C66.6547 62.1956 67.1041 62.0494 67.5106 61.7308C67.9179 61.4125 68.1572 60.9903 68.2311 60.4643L69.0455 54.6698C69.1141 54.1814 68.9954 53.7501 68.6849 53.3749C68.376 52.9994 67.9752 52.7997 67.4841 52.774L51.0289 51.9116L51.701 47.1291L68.1562 47.9914C68.6473 48.0172 69.0967 47.871 69.5032 47.5526C69.9105 47.2343 70.1498 46.8121 70.2237 46.2867L71.0461 40.4346C71.1146 39.947 70.9958 39.5166 70.6854 39.1406C70.3763 38.766 69.9756 38.5658 69.4846 38.54L57.2853 37.9007L79.6242 6.25319C80.0154 5.63167 80.0787 5.04934 79.8119 4.50609Z" fill="white" fill-opacity="0.1"/>
</g>
<defs>
<clipPath id="clip0_126_8824">
<rect width="80" height="80" fill="white" transform="matrix(0.99863 0.052336 -0.139173 0.990268 11.1338 0)"/>
</clipPath>
</defs>
</svg>
