<svg width="42" height="25" viewBox="0 0 42 25" fill="none" xmlns="http://www.w3.org/2000/svg">
<rect y="0.730469" width="42" height="24" rx="8" fill="#57575d" fill-opacity="1"/>
<path d="M8.75852 17.2305V8.5032H12.2528C12.8949 8.5032 13.4304 8.59837 13.8594 8.78871C14.2884 8.97905 14.6108 9.24325 14.8267 9.58132C15.0426 9.91655 15.1506 10.3029 15.1506 10.7404C15.1506 11.0813 15.0824 11.381 14.946 11.6396C14.8097 11.8952 14.6222 12.1055 14.3835 12.2702C14.1477 12.4322 13.8778 12.5472 13.5739 12.6154V12.7006C13.9063 12.7148 14.2173 12.8086 14.5071 12.9819C14.7997 13.1552 15.0369 13.3981 15.2188 13.7106C15.4006 14.0202 15.4915 14.3896 15.4915 14.8185C15.4915 15.2816 15.3764 15.695 15.1463 16.0586C14.919 16.4194 14.5824 16.7049 14.1364 16.9151C13.6903 17.1254 13.1406 17.2305 12.4872 17.2305H8.75852ZM10.6037 15.7219H12.108C12.6222 15.7219 12.9972 15.6239 13.233 15.4279C13.4688 15.229 13.5866 14.9648 13.5866 14.6353C13.5866 14.3938 13.5284 14.1808 13.4119 13.9961C13.2955 13.8114 13.1293 13.6665 12.9134 13.5614C12.7003 13.4563 12.446 13.4038 12.1506 13.4038H10.6037V15.7219ZM10.6037 12.1552H11.9716C12.2244 12.1552 12.4489 12.1112 12.6449 12.0231C12.8438 11.9322 13 11.8043 13.1136 11.6396C13.2301 11.4748 13.2884 11.2773 13.2884 11.0472C13.2884 10.7319 13.1761 10.4776 12.9517 10.2844C12.7301 10.0913 12.4148 9.99467 12.0057 9.99467H10.6037V12.1552ZM22.0827 8.5032H23.9279V14.1708C23.9279 14.8072 23.7759 15.364 23.4719 15.8413C23.1708 16.3185 22.7489 16.6907 22.2063 16.9577C21.6637 17.2219 21.0316 17.354 20.31 17.354C19.5856 17.354 18.9521 17.2219 18.4094 16.9577C17.8668 16.6907 17.445 16.3185 17.1438 15.8413C16.8427 15.364 16.6921 14.8072 16.6921 14.1708V8.5032H18.5373V14.0131C18.5373 14.3455 18.6097 14.641 18.7546 14.8995C18.9023 15.158 19.1097 15.3612 19.3768 15.5089C19.6438 15.6566 19.9549 15.7305 20.31 15.7305C20.668 15.7305 20.979 15.6566 21.2433 15.5089C21.5103 15.3612 21.7163 15.158 21.8612 14.8995C22.0089 14.641 22.0827 14.3455 22.0827 14.0131V8.5032ZM24.9347 8.5032H27.0014L28.9915 12.2617H29.0767L31.0668 8.5032H33.1335L29.9503 14.1452V17.2305H28.1179V14.1452L24.9347 8.5032Z" fill="white"/>
</svg>
