<svg width="311" height="249" viewBox="0 0 311 249" fill="none" xmlns="http://www.w3.org/2000/svg">
<g clip-path="url(#clip0_862_1132)">
<rect width="311" height="248.164" rx="18.1572" fill="url(#paint0_linear_862_1132)"/>
<line x1="0.557445" y1="-3.39453" x2="0.557445" y2="219.939" stroke="#414148" stroke-opacity="0.47" stroke-width="0.907858"/>
<line x1="28.7" y1="-3.39453" x2="28.7" y2="219.939" stroke="#414148" stroke-opacity="0.47" stroke-width="0.907858"/>
<line x1="56.8446" y1="-3.39453" x2="56.8446" y2="219.939" stroke="#414148" stroke-opacity="0.47" stroke-width="0.907858"/>
<line x1="84.9871" y1="-3.39453" x2="84.9871" y2="219.939" stroke="#414148" stroke-opacity="0.47" stroke-width="0.907858"/>
<line x1="113.132" y1="-3.39453" x2="113.132" y2="219.939" stroke="#414148" stroke-opacity="0.47" stroke-width="0.907858"/>
<line x1="141.274" y1="-3.39453" x2="141.274" y2="219.939" stroke="#414148" stroke-opacity="0.47" stroke-width="0.907858"/>
<line x1="169.419" y1="-3.39453" x2="169.419" y2="219.939" stroke="#414148" stroke-opacity="0.47" stroke-width="0.907858"/>
<line x1="197.561" y1="-3.39453" x2="197.561" y2="219.939" stroke="#414148" stroke-opacity="0.47" stroke-width="0.907858"/>
<line x1="225.706" y1="-3.39453" x2="225.706" y2="219.939" stroke="#414148" stroke-opacity="0.47" stroke-width="0.907858"/>
<line x1="253.848" y1="-3.39453" x2="253.848" y2="219.939" stroke="#414148" stroke-opacity="0.47" stroke-width="0.907858"/>
<line x1="281.993" y1="-3.84863" x2="281.993" y2="220.392" stroke="#414148" stroke-opacity="0.47" stroke-width="0.907858"/>
<line x1="281.57" y1="22.9334" x2="-123.286" y2="22.9334" stroke="#414148" stroke-opacity="0.47" stroke-width="0.907858"/>
<line x1="281.57" y1="51.077" x2="-123.286" y2="51.077" stroke="#414148" stroke-opacity="0.47" stroke-width="0.907858"/>
<line x1="281.57" y1="79.2205" x2="-123.286" y2="79.2205" stroke="#414148" stroke-opacity="0.47" stroke-width="0.907858"/>
<line x1="281.57" y1="107.364" x2="-123.286" y2="107.364" stroke="#414148" stroke-opacity="0.47" stroke-width="0.907858"/>
<line x1="281.57" y1="135.508" x2="-123.286" y2="135.508" stroke="#414148" stroke-opacity="0.47" stroke-width="0.907858"/>
<line x1="281.57" y1="163.651" x2="-123.286" y2="163.651" stroke="#414148" stroke-opacity="0.47" stroke-width="0.907858"/>
<line x1="281.57" y1="191.795" x2="-123.286" y2="191.795" stroke="#414148" stroke-opacity="0.47" stroke-width="0.907858"/>
<line x1="281.57" y1="219.938" x2="-123.286" y2="219.938" stroke="#414148" stroke-opacity="0.47" stroke-width="0.907858"/>
<rect x="-3.26562" y="34.4473" width="5.44715" height="19.9729" rx="2.72357" fill="#FFBC35"/>
<rect x="5.8125" y="51.6963" width="5.44715" height="89.8779" rx="2.72357" fill="#FFBC35"/>
<path d="M8.53711 48.9727L8.53711 152.468" stroke="#FFBC35" stroke-width="0.907858" stroke-linecap="round"/>
<rect x="33.0488" y="95.2734" width="5.44715" height="39.9458" rx="2.72357" fill="#2E56FF"/>
<path d="M35.7715 90.7344V137.943" stroke="#2E56FF" stroke-width="0.907858" stroke-linecap="round"/>
<rect x="42.127" y="95.2734" width="5.44715" height="38.13" rx="2.72357" fill="#FFBC35"/>
<path d="M44.8496 94.3662L44.8496 170.626" stroke="#FFBC35" stroke-width="0.907858" stroke-linecap="round"/>
<rect x="248.211" y="89.8164" width="5.44715" height="22.6964" rx="2.72357" fill="#2E56FF"/>
<path d="M250.936 88.9082V128.854" stroke="#2E56FF" stroke-width="0.907858" stroke-linecap="round"/>
<rect x="51.207" y="129.772" width="5.44715" height="30.8672" rx="2.72357" fill="#FFBC35"/>
<path d="M53.9297 126.142V166.087" stroke="#FFBC35" stroke-width="0.907858" stroke-linecap="round"/>
<rect x="60.2852" y="145.206" width="5.44715" height="16.3414" rx="2.72357" fill="#2E56FF"/>
<path d="M63.0078 142.483V165.18" stroke="#2E56FF" stroke-width="0.907858" stroke-linecap="round"/>
<rect x="221.883" y="39.249" width="5.44715" height="16.3414" rx="2.72357" fill="#FFBC35"/>
<path d="M224.605 36.5254V59.2218" stroke="#FFBC35" stroke-width="0.907858" stroke-linecap="round"/>
<rect x="69.3633" y="159.73" width="5.44715" height="16.3414" rx="2.72357" fill="#FFBC35"/>
<path d="M72.0859 155.191V177.888" stroke="#FFBC35" stroke-width="0.907858" stroke-linecap="round"/>
<rect x="78.4414" y="157.008" width="5.44715" height="18.1572" rx="2.72357" fill="#2E56FF"/>
<path d="M81.166 155.192V178.797" stroke="#2E56FF" stroke-width="0.907858" stroke-linecap="round"/>
<rect x="15" y="83.4453" width="5.44715" height="16.3414" rx="2.72357" fill="#FFBC35"/>
<path d="M17.7227 78.9062V101.603" stroke="#FFBC35" stroke-width="0.907858" stroke-linecap="round"/>
<rect x="24.0781" y="80.7227" width="5.44715" height="18.1572" rx="2.72357" fill="#2E56FF"/>
<path d="M26.8027 78.9072V102.512" stroke="#2E56FF" stroke-width="0.907858" stroke-linecap="round"/>
<rect x="239.133" y="74.3926" width="5.44715" height="18.1572" rx="2.72357" fill="#2E56FF"/>
<path d="M241.857 72.5762V96.1805" stroke="#2E56FF" stroke-width="0.907858" stroke-linecap="round"/>
<rect x="87.5195" y="157.008" width="5.44715" height="32.6829" rx="2.72357" fill="#FFBC35"/>
<path d="M90.2422 155.192V196.046" stroke="#FFBC35" stroke-width="0.907858" stroke-linecap="round"/>
<rect x="95.6914" y="182.427" width="5.44715" height="7.26286" rx="2.72357" fill="#2E56FF"/>
<path d="M98.4141 170.626V193.322" stroke="#2E56FF" stroke-width="0.907858" stroke-linecap="round"/>
<rect x="104.77" y="182.43" width="5.44715" height="16.3414" rx="2.72357" fill="#FFBC35"/>
<path d="M107.494 179.706V211.481" stroke="#FFBC35" stroke-width="0.907858" stroke-linecap="round"/>
<rect x="230.055" y="53.6309" width="5.44715" height="16.3414" rx="2.72357" fill="#2E56FF"/>
<path d="M232.777 50.9072V82.6823" stroke="#2E56FF" stroke-width="0.907858" stroke-linecap="round"/>
<rect x="113.848" y="169.718" width="5.44715" height="16.3414" rx="2.72357" fill="#2E56FF"/>
<path d="M116.57 170.626V189.691" stroke="#2E56FF" stroke-width="0.907858" stroke-linecap="round"/>
<rect x="122.928" y="164.271" width="5.44715" height="8.17072" rx="2.72357" fill="#2E56FF"/>
<path d="M125.652 152.47V176.074" stroke="#2E56FF" stroke-width="0.907858" stroke-linecap="round"/>
<rect x="132.006" y="164.271" width="5.44715" height="32.6829" rx="2.72357" fill="#FFBC35"/>
<path d="M134.73 160.641V203.31" stroke="#FFBC35" stroke-width="0.907858" stroke-linecap="round"/>
<rect x="141.084" y="177.889" width="5.44715" height="19.065" rx="2.72357" fill="#2E56FF"/>
<path d="M143.807 177.889V199.677" stroke="#2E56FF" stroke-width="0.907858" stroke-linecap="round"/>
<rect x="150.162" y="164.271" width="5.44715" height="15.4336" rx="2.72357" fill="#2E56FF"/>
<path d="M152.885 160.641V184.245" stroke="#2E56FF" stroke-width="0.907858" stroke-linecap="round"/>
<rect x="159.242" y="145.206" width="5.44715" height="19.9729" rx="2.72357" fill="#2E56FF"/>
<path d="M161.965 142.483V163.364" stroke="#2E56FF" stroke-width="0.907858" stroke-linecap="round"/>
<rect x="168.32" y="145.205" width="5.44715" height="15.4336" rx="2.72357" fill="#FFBC35"/>
<path d="M171.043 125.231V166.993" stroke="#FFBC35" stroke-width="0.907858" stroke-linecap="round"/>
<rect x="177.398" y="94.3662" width="5.44715" height="66.2736" rx="2.72357" fill="#2E56FF"/>
<path d="M180.121 125.232V170.625" stroke="#2E56FF" stroke-width="0.907858" stroke-linecap="round"/>
<rect x="204" y="33.5391" width="5.44715" height="38.13" rx="2.72357" fill="#FFBC35"/>
<path d="M206.725 29.9082V76.209" stroke="#FFBC35" stroke-width="0.907858" stroke-linecap="round"/>
<rect x="257.289" y="82.54" width="5.44715" height="38.13" rx="2.72357" fill="#FFBC35"/>
<path d="M260.014 78.9082V125.209" stroke="#FFBC35" stroke-width="0.907858" stroke-linecap="round"/>
<rect x="212.805" y="38.3428" width="5.44715" height="57.1951" rx="2.72357" fill="#2E56FF"/>
<path d="M215.527 22.9082V109.155" stroke="#2E56FF" stroke-width="0.907858" stroke-linecap="round"/>
<rect x="195.555" y="92.2637" width="5.44715" height="9.07858" rx="2.72357" fill="#FFBC35"/>
<path d="M198.277 85.9092V102.251" stroke="#FFBC35" stroke-width="0.907858" stroke-linecap="round"/>
<rect x="187" y="103.632" width="5.44715" height="1.81572" rx="0.907858" fill="#FFBC35"/>
<path d="M189.723 100.908V108.171" stroke="#FFBC35" stroke-width="0.907858" stroke-linecap="round"/>
<path d="M-81.4917 232.285C-81.9774 232.285 -82.3911 232.153 -82.7329 231.889C-83.0746 231.622 -83.3358 231.236 -83.5163 230.731C-83.6968 230.224 -83.7871 229.611 -83.7871 228.894C-83.7871 228.18 -83.6968 227.571 -83.5163 227.066C-83.3336 226.558 -83.0714 226.171 -82.7297 225.905C-82.3858 225.636 -81.9731 225.502 -81.4917 225.502C-81.0102 225.502 -80.5986 225.636 -80.2569 225.905C-79.913 226.171 -79.6508 226.558 -79.4703 227.066C-79.2876 227.571 -79.1962 228.18 -79.1962 228.894C-79.1962 229.611 -79.2865 230.224 -79.467 230.731C-79.6476 231.236 -79.9087 231.622 -80.2505 231.889C-80.5922 232.153 -81.0059 232.285 -81.4917 232.285ZM-81.4917 231.576C-81.0102 231.576 -80.6363 231.344 -80.3697 230.879C-80.1032 230.415 -79.97 229.753 -79.97 228.894C-79.97 228.322 -80.0312 227.835 -80.1537 227.433C-80.2741 227.031 -80.4482 226.725 -80.676 226.514C-80.9017 226.304 -81.1736 226.198 -81.4917 226.198C-81.9688 226.198 -82.3417 226.434 -82.6104 226.904C-82.879 227.373 -83.0134 228.036 -83.0134 228.894C-83.0134 229.465 -82.9532 229.951 -82.8328 230.351C-82.7125 230.751 -82.5394 231.055 -82.3138 231.263C-82.086 231.472 -81.8119 231.576 -81.4917 231.576Z" fill="#5C5C62"/>
<path d="M-75.8176 232.285C-76.3033 232.285 -76.717 232.153 -77.0588 231.889C-77.4005 231.622 -77.6616 231.236 -77.8422 230.731C-78.0227 230.224 -78.113 229.611 -78.113 228.894C-78.113 228.18 -78.0227 227.571 -77.8422 227.066C-77.6595 226.558 -77.3973 226.171 -77.0555 225.905C-76.7117 225.636 -76.299 225.502 -75.8176 225.502C-75.3361 225.502 -74.9245 225.636 -74.5828 225.905C-74.2389 226.171 -73.9767 226.558 -73.7962 227.066C-73.6135 227.571 -73.5221 228.18 -73.5221 228.894C-73.5221 229.611 -73.6124 230.224 -73.7929 230.731C-73.9735 231.236 -74.2346 231.622 -74.5763 231.889C-74.9181 232.153 -75.3318 232.285 -75.8176 232.285ZM-75.8176 231.576C-75.3361 231.576 -74.9621 231.344 -74.6956 230.879C-74.4291 230.415 -74.2959 229.753 -74.2959 228.894C-74.2959 228.322 -74.3571 227.835 -74.4796 227.433C-74.6 227.031 -74.7741 226.725 -75.0019 226.514C-75.2276 226.304 -75.4995 226.198 -75.8176 226.198C-76.2947 226.198 -76.6676 226.434 -76.9363 226.904C-77.2049 227.373 -77.3393 228.036 -77.3393 228.894C-77.3393 229.465 -77.2791 229.951 -77.1587 230.351C-77.0384 230.751 -76.8653 231.055 -76.6397 231.263C-76.4118 231.472 -76.1378 231.576 -75.8176 231.576Z" fill="#5C5C62"/>
<path d="M-71.7296 231.35C-71.8887 231.35 -72.0251 231.293 -72.1391 231.179C-72.253 231.065 -72.3099 230.929 -72.3099 230.77C-72.3099 230.611 -72.253 230.474 -72.1391 230.36C-72.0251 230.246 -71.8887 230.19 -71.7296 230.19C-71.5706 230.19 -71.4341 230.246 -71.3202 230.36C-71.2063 230.474 -71.1493 230.611 -71.1493 230.77C-71.1493 230.875 -71.1762 230.972 -71.2299 231.06C-71.2815 231.148 -71.3513 231.219 -71.4395 231.273C-71.5254 231.324 -71.6222 231.35 -71.7296 231.35ZM-71.7296 228.01C-71.8887 228.01 -72.0251 227.953 -72.1391 227.839C-72.253 227.725 -72.3099 227.589 -72.3099 227.43C-72.3099 227.271 -72.253 227.134 -72.1391 227.02C-72.0251 226.907 -71.8887 226.85 -71.7296 226.85C-71.5706 226.85 -71.4341 226.907 -71.3202 227.02C-71.2063 227.134 -71.1493 227.271 -71.1493 227.43C-71.1493 227.535 -71.1762 227.632 -71.2299 227.72C-71.2815 227.808 -71.3513 227.879 -71.4395 227.933C-71.5254 227.984 -71.6222 228.01 -71.7296 228.01Z" fill="#5C5C62"/>
<path d="M-67.4756 225.592V232.195H-68.2752V226.43H-68.3139L-69.9258 227.501V226.688L-68.2752 225.592H-67.4756Z" fill="#5C5C62"/>
<path d="M-63.5134 232.285C-63.8917 232.285 -64.2324 232.21 -64.5354 232.059C-64.8385 231.909 -65.0813 231.703 -65.264 231.44C-65.4467 231.178 -65.5467 230.879 -65.5639 230.544H-64.7901C-64.76 230.843 -64.6246 231.09 -64.3839 231.286C-64.141 231.479 -63.8509 231.576 -63.5134 231.576C-63.2426 231.576 -63.0019 231.512 -62.7913 231.386C-62.5785 231.259 -62.4119 231.085 -62.2916 230.863C-62.1691 230.64 -62.1078 230.387 -62.1078 230.106C-62.1078 229.818 -62.1712 229.561 -62.298 229.335C-62.4227 229.107 -62.5946 228.928 -62.8138 228.797C-63.0331 228.666 -63.2835 228.599 -63.565 228.597C-63.7671 228.595 -63.9745 228.626 -64.1872 228.69C-64.4 228.753 -64.5752 228.833 -64.7127 228.932L-65.4607 228.842L-65.0609 225.592H-61.6307V226.301H-64.3903L-64.6225 228.249H-64.5838C-64.4484 228.141 -64.2786 228.052 -64.0744 227.981C-63.8702 227.91 -63.6574 227.875 -63.4361 227.875C-63.032 227.875 -62.672 227.971 -62.3561 228.165C-62.038 228.356 -61.7886 228.618 -61.6081 228.952C-61.4254 229.285 -61.3341 229.665 -61.3341 230.093C-61.3341 230.514 -61.4286 230.89 -61.6178 231.221C-61.8048 231.55 -62.0627 231.81 -62.3915 232.001C-62.7204 232.191 -63.0943 232.285 -63.5134 232.285Z" fill="#5C5C62"/>
<path d="M-33.6346 232.285C-34.1203 232.285 -34.5341 232.153 -34.8758 231.889C-35.2175 231.622 -35.4787 231.236 -35.6592 230.731C-35.8398 230.224 -35.93 229.611 -35.93 228.894C-35.93 228.18 -35.8398 227.571 -35.6592 227.066C-35.4765 226.558 -35.2143 226.171 -34.8726 225.905C-34.5287 225.636 -34.116 225.502 -33.6346 225.502C-33.1531 225.502 -32.7416 225.636 -32.3998 225.905C-32.0559 226.171 -31.7937 226.558 -31.6132 227.066C-31.4305 227.571 -31.3391 228.18 -31.3391 228.894C-31.3391 229.611 -31.4294 230.224 -31.61 230.731C-31.7905 231.236 -32.0516 231.622 -32.3934 231.889C-32.7351 232.153 -33.1488 232.285 -33.6346 232.285ZM-33.6346 231.576C-33.1531 231.576 -32.7792 231.344 -32.5127 230.879C-32.2461 230.415 -32.1129 229.753 -32.1129 228.894C-32.1129 228.322 -32.1741 227.835 -32.2967 227.433C-32.417 227.031 -32.5911 226.725 -32.8189 226.514C-33.0446 226.304 -33.3165 226.198 -33.6346 226.198C-34.1117 226.198 -34.4846 226.434 -34.7533 226.904C-35.0219 227.373 -35.1563 228.036 -35.1563 228.894C-35.1563 229.465 -35.0961 229.951 -34.9757 230.351C-34.8554 230.751 -34.6824 231.055 -34.4567 231.263C-34.2289 231.472 -33.9548 231.576 -33.6346 231.576Z" fill="#5C5C62"/>
<path d="M-27.9605 232.285C-28.4462 232.285 -28.8599 232.153 -29.2017 231.889C-29.5434 231.622 -29.8046 231.236 -29.9851 230.731C-30.1656 230.224 -30.2559 229.611 -30.2559 228.894C-30.2559 228.18 -30.1656 227.571 -29.9851 227.066C-29.8024 226.558 -29.5402 226.171 -29.1985 225.905C-28.8546 225.636 -28.4419 225.502 -27.9605 225.502C-27.479 225.502 -27.0674 225.636 -26.7257 225.905C-26.3818 226.171 -26.1196 226.558 -25.9391 227.066C-25.7564 227.571 -25.665 228.18 -25.665 228.894C-25.665 229.611 -25.7553 230.224 -25.9358 230.731C-26.1164 231.236 -26.3775 231.622 -26.7193 231.889C-27.061 232.153 -27.4747 232.285 -27.9605 232.285ZM-27.9605 231.576C-27.479 231.576 -27.1051 231.344 -26.8385 230.879C-26.572 230.415 -26.4388 229.753 -26.4388 228.894C-26.4388 228.322 -26.5 227.835 -26.6225 227.433C-26.7429 227.031 -26.917 226.725 -27.1448 226.514C-27.3705 226.304 -27.6424 226.198 -27.9605 226.198C-28.4376 226.198 -28.8105 226.434 -29.0792 226.904C-29.3478 227.373 -29.4822 228.036 -29.4822 228.894C-29.4822 229.465 -29.422 229.951 -29.3016 230.351C-29.1813 230.751 -29.0083 231.055 -28.7826 231.263C-28.5548 231.472 -28.2807 231.576 -27.9605 231.576Z" fill="#5C5C62"/>
<path d="M-23.8725 231.35C-24.0316 231.35 -24.1681 231.293 -24.282 231.179C-24.3959 231.065 -24.4528 230.929 -24.4528 230.77C-24.4528 230.611 -24.3959 230.474 -24.282 230.36C-24.1681 230.246 -24.0316 230.19 -23.8725 230.19C-23.7135 230.19 -23.577 230.246 -23.4631 230.36C-23.3492 230.474 -23.2922 230.611 -23.2922 230.77C-23.2922 230.875 -23.3191 230.972 -23.3728 231.06C-23.4244 231.148 -23.4943 231.219 -23.5824 231.273C-23.6683 231.324 -23.7651 231.35 -23.8725 231.35ZM-23.8725 228.01C-24.0316 228.01 -24.1681 227.953 -24.282 227.839C-24.3959 227.725 -24.4528 227.589 -24.4528 227.43C-24.4528 227.271 -24.3959 227.134 -24.282 227.02C-24.1681 226.907 -24.0316 226.85 -23.8725 226.85C-23.7135 226.85 -23.577 226.907 -23.4631 227.02C-23.3492 227.134 -23.2922 227.271 -23.2922 227.43C-23.2922 227.535 -23.3191 227.632 -23.3728 227.72C-23.4244 227.808 -23.4943 227.879 -23.5824 227.933C-23.6683 227.984 -23.7651 228.01 -23.8725 228.01Z" fill="#5C5C62"/>
<path d="M-19.7088 232.285C-20.1344 232.285 -20.5137 232.212 -20.8469 232.066C-21.1779 231.92 -21.4412 231.717 -21.6367 231.457C-21.8302 231.194 -21.9355 230.89 -21.9527 230.544H-21.1403C-21.1231 230.757 -21.05 230.941 -20.921 231.095C-20.7921 231.248 -20.6234 231.366 -20.4149 231.45C-20.2064 231.534 -19.9753 231.576 -19.7217 231.576C-19.438 231.576 -19.1866 231.526 -18.9673 231.428C-18.7481 231.329 -18.5762 231.191 -18.4515 231.015C-18.3268 230.839 -18.2645 230.634 -18.2645 230.402C-18.2645 230.159 -18.3247 229.946 -18.445 229.761C-18.5654 229.574 -18.7417 229.428 -18.9738 229.322C-19.2059 229.217 -19.4896 229.164 -19.8249 229.164H-20.3536V228.455H-19.8249C-19.5627 228.455 -19.3327 228.408 -19.135 228.313C-18.9351 228.219 -18.7793 228.085 -18.6675 227.913C-18.5536 227.742 -18.4966 227.539 -18.4966 227.307C-18.4966 227.084 -18.5461 226.889 -18.6449 226.724C-18.7438 226.558 -18.8835 226.429 -19.064 226.337C-19.2424 226.245 -19.4531 226.198 -19.6959 226.198C-19.9238 226.198 -20.1387 226.24 -20.3407 226.324C-20.5406 226.406 -20.704 226.525 -20.8308 226.682C-20.9576 226.837 -21.0263 227.024 -21.0371 227.243H-21.8108C-21.7979 226.897 -21.6937 226.594 -21.4981 226.334C-21.3025 226.072 -21.0468 225.867 -20.7308 225.721C-20.4127 225.575 -20.0635 225.502 -19.683 225.502C-19.2747 225.502 -18.9243 225.585 -18.632 225.75C-18.3397 225.914 -18.1151 226.13 -17.9582 226.398C-17.8013 226.667 -17.7229 226.957 -17.7229 227.269C-17.7229 227.64 -17.8207 227.958 -18.0163 228.22C-18.2097 228.482 -18.473 228.664 -18.8061 228.765V228.816C-18.3892 228.885 -18.0635 229.062 -17.8293 229.348C-17.595 229.632 -17.4779 229.983 -17.4779 230.402C-17.4779 230.761 -17.5757 231.084 -17.7712 231.37C-17.9647 231.653 -18.229 231.877 -18.5643 232.04C-18.8996 232.203 -19.2811 232.285 -19.7088 232.285Z" fill="#5C5C62"/>
<path d="M-14.0057 232.285C-14.4914 232.285 -14.9052 232.153 -15.2469 231.889C-15.5886 231.622 -15.8498 231.236 -16.0303 230.731C-16.2109 230.224 -16.3011 229.611 -16.3011 228.894C-16.3011 228.18 -16.2109 227.571 -16.0303 227.066C-15.8476 226.558 -15.5854 226.171 -15.2437 225.905C-14.8998 225.636 -14.4871 225.502 -14.0057 225.502C-13.5243 225.502 -13.1127 225.636 -12.7709 225.905C-12.427 226.171 -12.1648 226.558 -11.9843 227.066C-11.8016 227.571 -11.7103 228.18 -11.7103 228.894C-11.7103 229.611 -11.8005 230.224 -11.9811 230.731C-12.1616 231.236 -12.4228 231.622 -12.7645 231.889C-13.1062 232.153 -13.52 232.285 -14.0057 232.285ZM-14.0057 231.576C-13.5243 231.576 -13.1503 231.344 -12.8838 230.879C-12.6173 230.415 -12.484 229.753 -12.484 228.894C-12.484 228.322 -12.5453 227.835 -12.6678 227.433C-12.7881 227.031 -12.9622 226.725 -13.19 226.514C-13.4157 226.304 -13.6876 226.198 -14.0057 226.198C-14.4828 226.198 -14.8557 226.434 -15.1244 226.904C-15.3931 227.373 -15.5274 228.036 -15.5274 228.894C-15.5274 229.465 -15.4672 229.951 -15.3469 230.351C-15.2265 230.751 -15.0535 231.055 -14.8278 231.263C-14.6 231.472 -14.3259 231.576 -14.0057 231.576Z" fill="#5C5C62"/>
<path d="M16.0382 232.285C15.5525 232.285 15.1387 232.153 14.797 231.889C14.4553 231.622 14.1941 231.236 14.0136 230.731C13.8331 230.224 13.7428 229.611 13.7428 228.894C13.7428 228.18 13.8331 227.571 14.0136 227.066C14.1963 226.558 14.4585 226.171 14.8002 225.905C15.1441 225.636 15.5568 225.502 16.0382 225.502C16.5197 225.502 16.9312 225.636 17.273 225.905C17.6169 226.171 17.8791 226.558 18.0596 227.066C18.2423 227.571 18.3337 228.18 18.3337 228.894C18.3337 229.611 18.2434 230.224 18.0628 230.731C17.8823 231.236 17.6212 231.622 17.2794 231.889C16.9377 232.153 16.524 232.285 16.0382 232.285ZM16.0382 231.576C16.5197 231.576 16.8936 231.344 17.1601 230.879C17.4267 230.415 17.5599 229.753 17.5599 228.894C17.5599 228.322 17.4987 227.835 17.3761 227.433C17.2558 227.031 17.0817 226.725 16.8539 226.514C16.6282 226.304 16.3563 226.198 16.0382 226.198C15.5611 226.198 15.1882 226.434 14.9195 226.904C14.6509 227.373 14.5165 228.036 14.5165 228.894C14.5165 229.465 14.5767 229.951 14.6971 230.351C14.8174 230.751 14.9904 231.055 15.2161 231.263C15.4439 231.472 15.718 231.576 16.0382 231.576Z" fill="#5C5C62"/>
<path d="M21.7123 232.285C21.2266 232.285 20.8129 232.153 20.4711 231.889C20.1294 231.622 19.8682 231.236 19.6877 230.731C19.5072 230.224 19.4169 229.611 19.4169 228.894C19.4169 228.18 19.5072 227.571 19.6877 227.066C19.8704 226.558 20.1326 226.171 20.4743 225.905C20.8182 225.636 21.2309 225.502 21.7123 225.502C22.1938 225.502 22.6054 225.636 22.9471 225.905C23.291 226.171 23.5532 226.558 23.7337 227.066C23.9164 227.571 24.0078 228.18 24.0078 228.894C24.0078 229.611 23.9175 230.224 23.737 230.731C23.5564 231.236 23.2953 231.622 22.9535 231.889C22.6118 232.153 22.1981 232.285 21.7123 232.285ZM21.7123 231.576C22.1938 231.576 22.5677 231.344 22.8343 230.879C23.1008 230.415 23.234 229.753 23.234 228.894C23.234 228.322 23.1728 227.835 23.0503 227.433C22.9299 227.031 22.7558 226.725 22.528 226.514C22.3023 226.304 22.0304 226.198 21.7123 226.198C21.2352 226.198 20.8623 226.434 20.5936 226.904C20.325 227.373 20.1906 228.036 20.1906 228.894C20.1906 229.465 20.2508 229.951 20.3712 230.351C20.4915 230.751 20.6646 231.055 20.8902 231.263C21.1181 231.472 21.3921 231.576 21.7123 231.576Z" fill="#5C5C62"/>
<path d="M25.8003 231.35C25.6412 231.35 25.5047 231.293 25.3908 231.179C25.2769 231.065 25.22 230.929 25.22 230.77C25.22 230.611 25.2769 230.474 25.3908 230.36C25.5047 230.246 25.6412 230.19 25.8003 230.19C25.9593 230.19 26.0958 230.246 26.2097 230.36C26.3236 230.474 26.3806 230.611 26.3806 230.77C26.3806 230.875 26.3537 230.972 26.3 231.06C26.2484 231.148 26.1785 231.219 26.0904 231.273C26.0045 231.324 25.9077 231.35 25.8003 231.35ZM25.8003 228.01C25.6412 228.01 25.5047 227.953 25.3908 227.839C25.2769 227.725 25.22 227.589 25.22 227.43C25.22 227.271 25.2769 227.134 25.3908 227.02C25.5047 226.907 25.6412 226.85 25.8003 226.85C25.9593 226.85 26.0958 226.907 26.2097 227.02C26.3236 227.134 26.3806 227.271 26.3806 227.43C26.3806 227.535 26.3537 227.632 26.3 227.72C26.2484 227.808 26.1785 227.879 26.0904 227.933C26.0045 227.984 25.9077 228.01 25.8003 228.01Z" fill="#5C5C62"/>
<path d="M27.5783 230.841V230.183L30.4798 225.592H30.9569V226.611H30.6346L28.4423 230.08V230.132H32.3497V230.841H27.5783ZM30.6861 232.195V225.592H31.447V232.195H30.6861Z" fill="#5C5C62"/>
<path d="M35.6212 232.285C35.2429 232.285 34.9022 232.21 34.5992 232.059C34.2961 231.909 34.0533 231.703 33.8706 231.44C33.6879 231.178 33.5879 230.879 33.5707 230.544H34.3445C34.3746 230.843 34.51 231.09 34.7507 231.286C34.9936 231.479 35.2837 231.576 35.6212 231.576C35.892 231.576 36.1327 231.512 36.3433 231.386C36.5561 231.259 36.7227 231.085 36.843 230.863C36.9655 230.64 37.0268 230.387 37.0268 230.106C37.0268 229.818 36.9634 229.561 36.8366 229.335C36.7119 229.107 36.54 228.928 36.3207 228.797C36.1015 228.666 35.8511 228.599 35.5696 228.597C35.3675 228.595 35.1601 228.626 34.9474 228.69C34.7346 228.753 34.5594 228.833 34.4219 228.932L33.6739 228.842L34.0737 225.592H37.5039V226.301H34.7443L34.5121 228.249H34.5508C34.6862 228.141 34.856 228.052 35.0602 227.981C35.2644 227.91 35.4772 227.875 35.6985 227.875C36.1026 227.875 36.4626 227.971 36.7786 228.165C37.0967 228.356 37.346 228.618 37.5265 228.952C37.7092 229.285 37.8005 229.665 37.8005 230.093C37.8005 230.514 37.706 230.89 37.5168 231.221C37.3298 231.55 37.0719 231.81 36.7431 232.001C36.4143 232.191 36.0403 232.285 35.6212 232.285Z" fill="#5C5C62"/>
<path d="M65.711 232.285C65.2253 232.285 64.8115 232.153 64.4698 231.889C64.1281 231.622 63.8669 231.236 63.6864 230.731C63.5058 230.224 63.4156 229.611 63.4156 228.894C63.4156 228.18 63.5058 227.571 63.6864 227.066C63.8691 226.558 64.1313 226.171 64.473 225.905C64.8169 225.636 65.2296 225.502 65.711 225.502C66.1925 225.502 66.604 225.636 66.9458 225.905C67.2897 226.171 67.5519 226.558 67.7324 227.066C67.9151 227.571 68.0065 228.18 68.0065 228.894C68.0065 229.611 67.9162 230.224 67.7356 230.731C67.5551 231.236 67.294 231.622 66.9522 231.889C66.6105 232.153 66.1968 232.285 65.711 232.285ZM65.711 231.576C66.1925 231.576 66.5664 231.344 66.8329 230.879C67.0995 230.415 67.2327 229.753 67.2327 228.894C67.2327 228.322 67.1715 227.835 67.049 227.433C66.9286 227.031 66.7545 226.725 66.5267 226.514C66.301 226.304 66.0291 226.198 65.711 226.198C65.2339 226.198 64.861 226.434 64.5923 226.904C64.3236 227.373 64.1893 228.036 64.1893 228.894C64.1893 229.465 64.2495 229.951 64.3699 230.351C64.4902 230.751 64.6632 231.055 64.8889 231.263C65.1167 231.472 65.3908 231.576 65.711 231.576Z" fill="#5C5C62"/>
<path d="M71.5528 225.592V232.195H70.7532V226.43H70.7146L69.1026 227.501V226.688L70.7532 225.592H71.5528Z" fill="#5C5C62"/>
<path d="M74.0191 231.35C73.86 231.35 73.7236 231.293 73.6096 231.179C73.4957 231.065 73.4388 230.929 73.4388 230.77C73.4388 230.611 73.4957 230.474 73.6096 230.36C73.7236 230.246 73.86 230.19 74.0191 230.19C74.1781 230.19 74.3146 230.246 74.4285 230.36C74.5424 230.474 74.5994 230.611 74.5994 230.77C74.5994 230.875 74.5725 230.972 74.5188 231.06C74.4672 231.148 74.3973 231.219 74.3092 231.273C74.2233 231.324 74.1265 231.35 74.0191 231.35ZM74.0191 228.01C73.86 228.01 73.7236 227.953 73.6096 227.839C73.4957 227.725 73.4388 227.589 73.4388 227.43C73.4388 227.271 73.4957 227.134 73.6096 227.02C73.7236 226.907 73.86 226.85 74.0191 226.85C74.1781 226.85 74.3146 226.907 74.4285 227.02C74.5424 227.134 74.5994 227.271 74.5994 227.43C74.5994 227.535 74.5725 227.632 74.5188 227.72C74.4672 227.808 74.3973 227.879 74.3092 227.933C74.2233 227.984 74.1265 228.01 74.0191 228.01Z" fill="#5C5C62"/>
<path d="M78.1054 232.285C77.6197 232.285 77.2059 232.153 76.8642 231.889C76.5225 231.622 76.2613 231.236 76.0808 230.731C75.9002 230.224 75.81 229.611 75.81 228.894C75.81 228.18 75.9002 227.571 76.0808 227.066C76.2635 226.558 76.5257 226.171 76.8674 225.905C77.2113 225.636 77.624 225.502 78.1054 225.502C78.5868 225.502 78.9984 225.636 79.3402 225.905C79.6841 226.171 79.9463 226.558 80.1268 227.066C80.3095 227.571 80.4008 228.18 80.4008 228.894C80.4008 229.611 80.3106 230.224 80.13 230.731C79.9495 231.236 79.6884 231.622 79.3466 231.889C79.0049 232.153 78.5911 232.285 78.1054 232.285ZM78.1054 231.576C78.5868 231.576 78.9608 231.344 79.2273 230.879C79.4938 230.415 79.6271 229.753 79.6271 228.894C79.6271 228.322 79.5658 227.835 79.4433 227.433C79.323 227.031 79.1489 226.725 78.9211 226.514C78.6954 226.304 78.4235 226.198 78.1054 226.198C77.6283 226.198 77.2554 226.434 76.9867 226.904C76.718 227.373 76.5837 228.036 76.5837 228.894C76.5837 229.465 76.6439 229.951 76.7642 230.351C76.8846 230.751 77.0576 231.055 77.2833 231.263C77.5111 231.472 77.7852 231.576 78.1054 231.576Z" fill="#5C5C62"/>
<path d="M83.7795 232.285C83.2938 232.285 82.88 232.153 82.5383 231.889C82.1966 231.622 81.9354 231.236 81.7549 230.731C81.5743 230.224 81.4841 229.611 81.4841 228.894C81.4841 228.18 81.5743 227.571 81.7549 227.066C81.9376 226.558 82.1998 226.171 82.5415 225.905C82.8854 225.636 83.2981 225.502 83.7795 225.502C84.261 225.502 84.6725 225.636 85.0143 225.905C85.3582 226.171 85.6204 226.558 85.8009 227.066C85.9836 227.571 86.075 228.18 86.075 228.894C86.075 229.611 85.9847 230.224 85.8042 230.731C85.6236 231.236 85.3625 231.622 85.0207 231.889C84.679 232.153 84.2653 232.285 83.7795 232.285ZM83.7795 231.576C84.261 231.576 84.6349 231.344 84.9014 230.879C85.168 230.415 85.3012 229.753 85.3012 228.894C85.3012 228.322 85.24 227.835 85.1175 227.433C84.9971 227.031 84.823 226.725 84.5952 226.514C84.3695 226.304 84.0976 226.198 83.7795 226.198C83.3024 226.198 82.9295 226.434 82.6608 226.904C82.3921 227.373 82.2578 228.036 82.2578 228.894C82.2578 229.465 82.318 229.951 82.4384 230.351C82.5587 230.751 82.7317 231.055 82.9574 231.263C83.1852 231.472 83.4593 231.576 83.7795 231.576Z" fill="#5C5C62"/>
<path d="M114.476 232.285C113.99 232.285 113.576 232.153 113.235 231.889C112.893 231.622 112.632 231.236 112.451 230.731C112.271 230.224 112.181 229.611 112.181 228.894C112.181 228.18 112.271 227.571 112.451 227.066C112.634 226.558 112.896 226.171 113.238 225.905C113.582 225.636 113.995 225.502 114.476 225.502C114.957 225.502 115.369 225.636 115.711 225.905C116.055 226.171 116.317 226.558 116.497 227.066C116.68 227.571 116.771 228.18 116.771 228.894C116.771 229.611 116.681 230.224 116.501 230.731C116.32 231.236 116.059 231.622 115.717 231.889C115.375 232.153 114.962 232.285 114.476 232.285ZM114.476 231.576C114.957 231.576 115.331 231.344 115.598 230.879C115.864 230.415 115.998 229.753 115.998 228.894C115.998 228.322 115.936 227.835 115.814 227.433C115.694 227.031 115.519 226.725 115.292 226.514C115.066 226.304 114.794 226.198 114.476 226.198C113.999 226.198 113.626 226.434 113.357 226.904C113.089 227.373 112.954 228.036 112.954 228.894C112.954 229.465 113.014 229.951 113.135 230.351C113.255 230.751 113.428 231.055 113.654 231.263C113.882 231.472 114.156 231.576 114.476 231.576Z" fill="#5C5C62"/>
<path d="M120.318 225.592V232.195H119.518V226.43H119.48L117.868 227.501V226.688L119.518 225.592H120.318Z" fill="#5C5C62"/>
<path d="M122.784 231.35C122.625 231.35 122.489 231.293 122.375 231.179C122.261 231.065 122.204 230.929 122.204 230.77C122.204 230.611 122.261 230.474 122.375 230.36C122.489 230.246 122.625 230.19 122.784 230.19C122.943 230.19 123.08 230.246 123.193 230.36C123.307 230.474 123.364 230.611 123.364 230.77C123.364 230.875 123.337 230.972 123.284 231.06C123.232 231.148 123.162 231.219 123.074 231.273C122.988 231.324 122.891 231.35 122.784 231.35ZM122.784 228.01C122.625 228.01 122.489 227.953 122.375 227.839C122.261 227.725 122.204 227.589 122.204 227.43C122.204 227.271 122.261 227.134 122.375 227.02C122.489 226.907 122.625 226.85 122.784 226.85C122.943 226.85 123.08 226.907 123.193 227.02C123.307 227.134 123.364 227.271 123.364 227.43C123.364 227.535 123.337 227.632 123.284 227.72C123.232 227.808 123.162 227.879 123.074 227.933C122.988 227.984 122.891 228.01 122.784 228.01Z" fill="#5C5C62"/>
<path d="M127.038 225.592V232.195H126.238V226.43H126.2L124.588 227.501V226.688L126.238 225.592H127.038Z" fill="#5C5C62"/>
<path d="M131 232.285C130.622 232.285 130.281 232.21 129.978 232.059C129.675 231.909 129.432 231.703 129.25 231.44C129.067 231.178 128.967 230.879 128.95 230.544H129.724C129.754 230.843 129.889 231.09 130.13 231.286C130.373 231.479 130.663 231.576 131 231.576C131.271 231.576 131.512 231.512 131.722 231.386C131.935 231.259 132.102 231.085 132.222 230.863C132.345 230.64 132.406 230.387 132.406 230.106C132.406 229.818 132.342 229.561 132.216 229.335C132.091 229.107 131.919 228.928 131.7 228.797C131.481 228.666 131.23 228.599 130.949 228.597C130.747 228.595 130.539 228.626 130.326 228.69C130.114 228.753 129.938 228.833 129.801 228.932L129.053 228.842L129.453 225.592H132.883V226.301H130.123L129.891 228.249H129.93C130.065 228.141 130.235 228.052 130.439 227.981C130.643 227.91 130.856 227.875 131.078 227.875C131.482 227.875 131.842 227.971 132.158 228.165C132.476 228.356 132.725 228.618 132.906 228.952C133.088 229.285 133.18 229.665 133.18 230.093C133.18 230.514 133.085 230.89 132.896 231.221C132.709 231.55 132.451 231.81 132.122 232.001C131.793 232.191 131.419 232.285 131 232.285Z" fill="#5C5C62"/>
<path d="M161.425 232.285C160.939 232.285 160.526 232.153 160.184 231.889C159.842 231.622 159.581 231.236 159.401 230.731C159.22 230.224 159.13 229.611 159.13 228.894C159.13 228.18 159.22 227.571 159.401 227.066C159.583 226.558 159.845 226.171 160.187 225.905C160.531 225.636 160.944 225.502 161.425 225.502C161.907 225.502 162.318 225.636 162.66 225.905C163.004 226.171 163.266 226.558 163.447 227.066C163.629 227.571 163.721 228.18 163.721 228.894C163.721 229.611 163.63 230.224 163.45 230.731C163.269 231.236 163.008 231.622 162.666 231.889C162.325 232.153 161.911 232.285 161.425 232.285ZM161.425 231.576C161.907 231.576 162.281 231.344 162.547 230.879C162.814 230.415 162.947 229.753 162.947 228.894C162.947 228.322 162.886 227.835 162.763 227.433C162.643 227.031 162.469 226.725 162.241 226.514C162.015 226.304 161.743 226.198 161.425 226.198C160.948 226.198 160.575 226.434 160.307 226.904C160.038 227.373 159.904 228.036 159.904 228.894C159.904 229.465 159.964 229.951 160.084 230.351C160.204 230.751 160.377 231.055 160.603 231.263C160.831 231.472 161.105 231.576 161.425 231.576Z" fill="#5C5C62"/>
<path d="M167.267 225.592V232.195H166.467V226.43H166.429L164.817 227.501V226.688L166.467 225.592H167.267Z" fill="#5C5C62"/>
<path d="M169.733 231.35C169.574 231.35 169.438 231.293 169.324 231.179C169.21 231.065 169.153 230.929 169.153 230.77C169.153 230.611 169.21 230.474 169.324 230.36C169.438 230.246 169.574 230.19 169.733 230.19C169.892 230.19 170.029 230.246 170.143 230.36C170.257 230.474 170.314 230.611 170.314 230.77C170.314 230.875 170.287 230.972 170.233 231.06C170.181 231.148 170.112 231.219 170.023 231.273C169.937 231.324 169.841 231.35 169.733 231.35ZM169.733 228.01C169.574 228.01 169.438 227.953 169.324 227.839C169.21 227.725 169.153 227.589 169.153 227.43C169.153 227.271 169.21 227.134 169.324 227.02C169.438 226.907 169.574 226.85 169.733 226.85C169.892 226.85 170.029 226.907 170.143 227.02C170.257 227.134 170.314 227.271 170.314 227.43C170.314 227.535 170.287 227.632 170.233 227.72C170.181 227.808 170.112 227.879 170.023 227.933C169.937 227.984 169.841 228.01 169.733 228.01Z" fill="#5C5C62"/>
<path d="M173.897 232.285C173.471 232.285 173.092 232.212 172.759 232.066C172.428 231.92 172.165 231.717 171.969 231.457C171.776 231.194 171.67 230.89 171.653 230.544H172.466C172.483 230.757 172.556 230.941 172.685 231.095C172.814 231.248 172.982 231.366 173.191 231.45C173.399 231.534 173.63 231.576 173.884 231.576C174.168 231.576 174.419 231.526 174.638 231.428C174.858 231.329 175.03 231.191 175.154 231.015C175.279 230.839 175.341 230.634 175.341 230.402C175.341 230.159 175.281 229.946 175.161 229.761C175.04 229.574 174.864 229.428 174.632 229.322C174.4 229.217 174.116 229.164 173.781 229.164H173.252V228.455H173.781C174.043 228.455 174.273 228.408 174.471 228.313C174.671 228.219 174.827 228.085 174.938 227.913C175.052 227.742 175.109 227.539 175.109 227.307C175.109 227.084 175.06 226.889 174.961 226.724C174.862 226.558 174.722 226.429 174.542 226.337C174.363 226.245 174.153 226.198 173.91 226.198C173.682 226.198 173.467 226.24 173.265 226.324C173.065 226.406 172.902 226.525 172.775 226.682C172.648 226.837 172.579 227.024 172.569 227.243H171.795C171.808 226.897 171.912 226.594 172.108 226.334C172.303 226.072 172.559 225.867 172.875 225.721C173.193 225.575 173.542 225.502 173.923 225.502C174.331 225.502 174.681 225.585 174.974 225.75C175.266 225.914 175.491 226.13 175.648 226.398C175.804 226.667 175.883 226.957 175.883 227.269C175.883 227.64 175.785 227.958 175.59 228.22C175.396 228.482 175.133 228.664 174.8 228.765V228.816C175.217 228.885 175.542 229.062 175.777 229.348C176.011 229.632 176.128 229.983 176.128 230.402C176.128 230.761 176.03 231.084 175.835 231.37C175.641 231.653 175.377 231.877 175.041 232.04C174.706 232.203 174.325 232.285 173.897 232.285Z" fill="#5C5C62"/>
<path d="M179.6 232.285C179.114 232.285 178.701 232.153 178.359 231.889C178.017 231.622 177.756 231.236 177.575 230.731C177.395 230.224 177.305 229.611 177.305 228.894C177.305 228.18 177.395 227.571 177.575 227.066C177.758 226.558 178.02 226.171 178.362 225.905C178.706 225.636 179.119 225.502 179.6 225.502C180.082 225.502 180.493 225.636 180.835 225.905C181.179 226.171 181.441 226.558 181.622 227.066C181.804 227.571 181.896 228.18 181.896 228.894C181.896 229.611 181.805 230.224 181.625 230.731C181.444 231.236 181.183 231.622 180.841 231.889C180.5 232.153 180.086 232.285 179.6 232.285ZM179.6 231.576C180.082 231.576 180.455 231.344 180.722 230.879C180.989 230.415 181.122 229.753 181.122 228.894C181.122 228.322 181.061 227.835 180.938 227.433C180.818 227.031 180.644 226.725 180.416 226.514C180.19 226.304 179.918 226.198 179.6 226.198C179.123 226.198 178.75 226.434 178.481 226.904C178.213 227.373 178.078 228.036 178.078 228.894C178.078 229.465 178.139 229.951 178.259 230.351C178.379 230.751 178.552 231.055 178.778 231.263C179.006 231.472 179.28 231.576 179.6 231.576Z" fill="#5C5C62"/>
<path d="M210.19 232.285C209.704 232.285 209.291 232.153 208.949 231.889C208.607 231.622 208.346 231.236 208.166 230.731C207.985 230.224 207.895 229.611 207.895 228.894C207.895 228.18 207.985 227.571 208.166 227.066C208.348 226.558 208.61 226.171 208.952 225.905C209.296 225.636 209.709 225.502 210.19 225.502C210.672 225.502 211.083 225.636 211.425 225.905C211.769 226.171 212.031 226.558 212.212 227.066C212.394 227.571 212.486 228.18 212.486 228.894C212.486 229.611 212.395 230.224 212.215 230.731C212.034 231.236 211.773 231.622 211.431 231.889C211.09 232.153 210.676 232.285 210.19 232.285ZM210.19 231.576C210.672 231.576 211.046 231.344 211.312 230.879C211.579 230.415 211.712 229.753 211.712 228.894C211.712 228.322 211.651 227.835 211.528 227.433C211.408 227.031 211.234 226.725 211.006 226.514C210.78 226.304 210.508 226.198 210.19 226.198C209.713 226.198 209.34 226.434 209.071 226.904C208.803 227.373 208.668 228.036 208.668 228.894C208.668 229.465 208.729 229.951 208.849 230.351C208.969 230.751 209.142 231.055 209.368 231.263C209.596 231.472 209.87 231.576 210.19 231.576Z" fill="#5C5C62"/>
<path d="M216.032 225.592V232.195H215.232V226.43H215.194L213.582 227.501V226.688L215.232 225.592H216.032Z" fill="#5C5C62"/>
<path d="M218.498 231.35C218.339 231.35 218.203 231.293 218.089 231.179C217.975 231.065 217.918 230.929 217.918 230.77C217.918 230.611 217.975 230.474 218.089 230.36C218.203 230.246 218.339 230.19 218.498 230.19C218.657 230.19 218.794 230.246 218.908 230.36C219.022 230.474 219.079 230.611 219.079 230.77C219.079 230.875 219.052 230.972 218.998 231.06C218.946 231.148 218.877 231.219 218.788 231.273C218.702 231.324 218.606 231.35 218.498 231.35ZM218.498 228.01C218.339 228.01 218.203 227.953 218.089 227.839C217.975 227.725 217.918 227.589 217.918 227.43C217.918 227.271 217.975 227.134 218.089 227.02C218.203 226.907 218.339 226.85 218.498 226.85C218.657 226.85 218.794 226.907 218.908 227.02C219.022 227.134 219.079 227.271 219.079 227.43C219.079 227.535 219.052 227.632 218.998 227.72C218.946 227.808 218.877 227.879 218.788 227.933C218.702 227.984 218.606 228.01 218.498 228.01Z" fill="#5C5C62"/>
<path d="M220.276 230.841V230.183L223.178 225.592H223.655V226.611H223.332L221.14 230.08V230.132H225.048V230.841H220.276ZM223.384 232.195V225.592H224.145V232.195H223.384Z" fill="#5C5C62"/>
<path d="M228.319 232.285C227.941 232.285 227.6 232.21 227.297 232.059C226.994 231.909 226.751 231.703 226.569 231.44C226.386 231.178 226.286 230.879 226.269 230.544H227.042C227.073 230.843 227.208 231.09 227.449 231.286C227.692 231.479 227.982 231.576 228.319 231.576C228.59 231.576 228.831 231.512 229.041 231.386C229.254 231.259 229.421 231.085 229.541 230.863C229.663 230.64 229.725 230.387 229.725 230.106C229.725 229.818 229.661 229.561 229.535 229.335C229.41 229.107 229.238 228.928 229.019 228.797C228.799 228.666 228.549 228.599 228.268 228.597C228.065 228.595 227.858 228.626 227.645 228.69C227.433 228.753 227.257 228.833 227.12 228.932L226.372 228.842L226.772 225.592H230.202V226.301H227.442L227.21 228.249H227.249C227.384 228.141 227.554 228.052 227.758 227.981C227.962 227.91 228.175 227.875 228.396 227.875C228.801 227.875 229.161 227.971 229.476 228.165C229.795 228.356 230.044 228.618 230.224 228.952C230.407 229.285 230.498 229.665 230.498 230.093C230.498 230.514 230.404 230.89 230.215 231.221C230.028 231.55 229.77 231.81 229.441 232.001C229.112 232.191 228.738 232.285 228.319 232.285Z" fill="#5C5C62"/>
<path d="M258.955 232.285C258.469 232.285 258.056 232.153 257.714 231.889C257.372 231.622 257.111 231.236 256.93 230.731C256.75 230.224 256.66 229.611 256.66 228.894C256.66 228.18 256.75 227.571 256.93 227.066C257.113 226.558 257.375 226.171 257.717 225.905C258.061 225.636 258.474 225.502 258.955 225.502C259.437 225.502 259.848 225.636 260.19 225.905C260.534 226.171 260.796 226.558 260.977 227.066C261.159 227.571 261.251 228.18 261.251 228.894C261.251 229.611 261.16 230.224 260.98 230.731C260.799 231.236 260.538 231.622 260.196 231.889C259.855 232.153 259.441 232.285 258.955 232.285ZM258.955 231.576C259.437 231.576 259.811 231.344 260.077 230.879C260.344 230.415 260.477 229.753 260.477 228.894C260.477 228.322 260.416 227.835 260.293 227.433C260.173 227.031 259.999 226.725 259.771 226.514C259.545 226.304 259.273 226.198 258.955 226.198C258.478 226.198 258.105 226.434 257.836 226.904C257.568 227.373 257.433 228.036 257.433 228.894C257.433 229.465 257.494 229.951 257.614 230.351C257.734 230.751 257.907 231.055 258.133 231.263C258.361 231.472 258.635 231.576 258.955 231.576Z" fill="#5C5C62"/>
<path d="M262.476 232.195V231.615L264.655 229.229C264.911 228.949 265.121 228.707 265.287 228.5C265.452 228.292 265.575 228.096 265.654 227.913C265.736 227.729 265.777 227.535 265.777 227.333C265.777 227.101 265.721 226.9 265.609 226.73C265.5 226.56 265.349 226.429 265.158 226.337C264.967 226.245 264.752 226.198 264.513 226.198C264.26 226.198 264.038 226.251 263.849 226.356C263.662 226.459 263.517 226.605 263.414 226.792C263.313 226.979 263.262 227.198 263.262 227.449H262.501C262.501 227.062 262.591 226.723 262.769 226.43C262.947 226.138 263.19 225.91 263.498 225.747C263.807 225.584 264.154 225.502 264.539 225.502C264.926 225.502 265.269 225.584 265.567 225.747C265.866 225.91 266.1 226.131 266.27 226.408C266.44 226.685 266.525 226.994 266.525 227.333C266.525 227.576 266.481 227.814 266.393 228.046C266.307 228.276 266.156 228.532 265.941 228.816C265.729 229.098 265.433 229.442 265.055 229.848L263.572 231.434V231.486H266.641V232.195H262.476Z" fill="#5C5C62"/>
<path d="M268.54 231.35C268.381 231.35 268.244 231.293 268.13 231.179C268.017 231.065 267.96 230.929 267.96 230.77C267.96 230.611 268.017 230.474 268.13 230.36C268.244 230.246 268.381 230.19 268.54 230.19C268.699 230.19 268.835 230.246 268.949 230.36C269.063 230.474 269.12 230.611 269.12 230.77C269.12 230.875 269.093 230.972 269.04 231.06C268.988 231.148 268.918 231.219 268.83 231.273C268.744 231.324 268.647 231.35 268.54 231.35ZM268.54 228.01C268.381 228.01 268.244 227.953 268.13 227.839C268.017 227.725 267.96 227.589 267.96 227.43C267.96 227.271 268.017 227.134 268.13 227.02C268.244 226.907 268.381 226.85 268.54 226.85C268.699 226.85 268.835 226.907 268.949 227.02C269.063 227.134 269.12 227.271 269.12 227.43C269.12 227.535 269.093 227.632 269.04 227.72C268.988 227.808 268.918 227.879 268.83 227.933C268.744 227.984 268.647 228.01 268.54 228.01Z" fill="#5C5C62"/>
<path d="M272.626 232.285C272.14 232.285 271.727 232.153 271.385 231.889C271.043 231.622 270.782 231.236 270.602 230.731C270.421 230.224 270.331 229.611 270.331 228.894C270.331 228.18 270.421 227.571 270.602 227.066C270.784 226.558 271.046 226.171 271.388 225.905C271.732 225.636 272.145 225.502 272.626 225.502C273.108 225.502 273.519 225.636 273.861 225.905C274.205 226.171 274.467 226.558 274.648 227.066C274.83 227.571 274.922 228.18 274.922 228.894C274.922 229.611 274.831 230.224 274.651 230.731C274.47 231.236 274.209 231.622 273.867 231.889C273.526 232.153 273.112 232.285 272.626 232.285ZM272.626 231.576C273.108 231.576 273.482 231.344 273.748 230.879C274.015 230.415 274.148 229.753 274.148 228.894C274.148 228.322 274.087 227.835 273.964 227.433C273.844 227.031 273.67 226.725 273.442 226.514C273.216 226.304 272.944 226.198 272.626 226.198C272.149 226.198 271.776 226.434 271.507 226.904C271.239 227.373 271.104 228.036 271.104 228.894C271.104 229.465 271.165 229.951 271.285 230.351C271.405 230.751 271.578 231.055 271.804 231.263C272.032 231.472 272.306 231.576 272.626 231.576Z" fill="#5C5C62"/>
<path d="M278.3 232.285C277.815 232.285 277.401 232.153 277.059 231.889C276.717 231.622 276.456 231.236 276.276 230.731C276.095 230.224 276.005 229.611 276.005 228.894C276.005 228.18 276.095 227.571 276.276 227.066C276.458 226.558 276.721 226.171 277.062 225.905C277.406 225.636 277.819 225.502 278.3 225.502C278.782 225.502 279.193 225.636 279.535 225.905C279.879 226.171 280.141 226.558 280.322 227.066C280.504 227.571 280.596 228.18 280.596 228.894C280.596 229.611 280.505 230.224 280.325 230.731C280.144 231.236 279.883 231.622 279.542 231.889C279.2 232.153 278.786 232.285 278.3 232.285ZM278.3 231.576C278.782 231.576 279.156 231.344 279.422 230.879C279.689 230.415 279.822 229.753 279.822 228.894C279.822 228.322 279.761 227.835 279.638 227.433C279.518 227.031 279.344 226.725 279.116 226.514C278.89 226.304 278.618 226.198 278.3 226.198C277.823 226.198 277.45 226.434 277.182 226.904C276.913 227.373 276.779 228.036 276.779 228.894C276.779 229.465 276.839 229.951 276.959 230.351C277.08 230.751 277.253 231.055 277.478 231.263C277.706 231.472 277.98 231.576 278.3 231.576Z" fill="#5C5C62"/>
<path d="M289.786 27.1093C289.343 27.1093 288.952 27.0309 288.612 26.874C288.275 26.7149 288.011 26.4968 287.822 26.2195C287.633 25.9401 287.54 25.622 287.542 25.2652C287.54 24.9858 287.595 24.7279 287.706 24.4915C287.818 24.2529 287.971 24.0541 288.164 23.8951C288.36 23.7339 288.578 23.6318 288.819 23.5888V23.5501C288.503 23.4684 288.251 23.2911 288.064 23.0182C287.877 22.743 287.785 22.4303 287.787 22.08C287.785 21.7447 287.87 21.4449 288.042 21.1805C288.213 20.9162 288.45 20.7077 288.751 20.5551C289.054 20.4025 289.399 20.3262 289.786 20.3262C290.168 20.3262 290.51 20.4025 290.811 20.5551C291.112 20.7077 291.348 20.9162 291.52 21.1805C291.694 21.4449 291.782 21.7447 291.785 22.08C291.782 22.4303 291.687 22.743 291.498 23.0182C291.311 23.2911 291.062 23.4684 290.753 23.5501V23.5888C290.991 23.6318 291.206 23.7339 291.398 23.8951C291.589 24.0541 291.742 24.2529 291.855 24.4915C291.969 24.7279 292.027 24.9858 292.03 25.2652C292.027 25.622 291.931 25.9401 291.739 26.2195C291.55 26.4968 291.287 26.7149 290.95 26.874C290.614 27.0309 290.226 27.1093 289.786 27.1093ZM289.786 26.4001C290.084 26.4001 290.342 26.3517 290.559 26.255C290.777 26.1583 290.944 26.0218 291.062 25.8455C291.181 25.6693 291.241 25.463 291.243 25.2265C291.241 24.9772 291.176 24.7569 291.049 24.5656C290.923 24.3744 290.75 24.2239 290.53 24.1143C290.313 24.0047 290.065 23.9499 289.786 23.9499C289.504 23.9499 289.253 24.0047 289.031 24.1143C288.812 24.2239 288.639 24.3744 288.512 24.5656C288.388 24.7569 288.326 24.9772 288.328 25.2265C288.326 25.463 288.383 25.6693 288.499 25.8455C288.618 26.0218 288.786 26.1583 289.006 26.255C289.225 26.3517 289.485 26.4001 289.786 26.4001ZM289.786 23.2664C290.022 23.2664 290.232 23.2191 290.414 23.1245C290.599 23.03 290.744 22.8978 290.85 22.728C290.955 22.5582 291.009 22.3594 291.011 22.1316C291.009 21.908 290.956 21.7135 290.853 21.548C290.75 21.3804 290.607 21.2514 290.424 21.1612C290.241 21.0687 290.029 21.0225 289.786 21.0225C289.539 21.0225 289.323 21.0687 289.138 21.1612C288.953 21.2514 288.81 21.3804 288.709 21.548C288.608 21.7135 288.558 21.908 288.561 22.1316C288.558 22.3594 288.609 22.5582 288.712 22.728C288.817 22.8978 288.963 23.03 289.147 23.1245C289.332 23.2191 289.545 23.2664 289.786 23.2664Z" fill="#5C5C62"/>
<path d="M295.419 27.1093C294.933 27.1093 294.519 26.9771 294.177 26.7128C293.836 26.4463 293.575 26.0605 293.394 25.5554C293.214 25.0482 293.123 24.4356 293.123 23.7177C293.123 23.0042 293.214 22.3949 293.394 21.8898C293.577 21.3825 293.839 20.9957 294.181 20.7292C294.525 20.4605 294.937 20.3262 295.419 20.3262C295.9 20.3262 296.312 20.4605 296.653 20.7292C296.997 20.9957 297.26 21.3825 297.44 21.8898C297.623 22.3949 297.714 23.0042 297.714 23.7177C297.714 24.4356 297.624 25.0482 297.443 25.5554C297.263 26.0605 297.002 26.4463 296.66 26.7128C296.318 26.9771 295.904 27.1093 295.419 27.1093ZM295.419 26.4001C295.9 26.4001 296.274 26.1679 296.541 25.7037C296.807 25.2394 296.94 24.5775 296.94 23.7177C296.94 23.146 296.879 22.6592 296.757 22.2573C296.636 21.8554 296.462 21.5491 296.234 21.3385C296.009 21.1279 295.737 21.0225 295.419 21.0225C294.942 21.0225 294.569 21.2579 294.3 21.7286C294.031 22.1971 293.897 22.8602 293.897 23.7177C293.897 24.2895 293.957 24.7752 294.078 25.175C294.198 25.5747 294.371 25.8788 294.597 26.0873C294.824 26.2958 295.098 26.4001 295.419 26.4001Z" fill="#5C5C62"/>
<path d="M301.093 27.1093C300.607 27.1093 300.193 26.9771 299.852 26.7128C299.51 26.4463 299.249 26.0605 299.068 25.5554C298.888 25.0482 298.797 24.4356 298.797 23.7177C298.797 23.0042 298.888 22.3949 299.068 21.8898C299.251 21.3825 299.513 20.9957 299.855 20.7292C300.199 20.4605 300.611 20.3262 301.093 20.3262C301.574 20.3262 301.986 20.4605 302.328 20.7292C302.671 20.9957 302.934 21.3825 303.114 21.8898C303.297 22.3949 303.388 23.0042 303.388 23.7177C303.388 24.4356 303.298 25.0482 303.117 25.5554C302.937 26.0605 302.676 26.4463 302.334 26.7128C301.992 26.9771 301.579 27.1093 301.093 27.1093ZM301.093 26.4001C301.574 26.4001 301.948 26.1679 302.215 25.7037C302.481 25.2394 302.615 24.5775 302.615 23.7177C302.615 23.146 302.553 22.6592 302.431 22.2573C302.31 21.8554 302.136 21.5491 301.908 21.3385C301.683 21.1279 301.411 21.0225 301.093 21.0225C300.616 21.0225 300.243 21.2579 299.974 21.7286C299.705 22.1971 299.571 22.8602 299.571 23.7177C299.571 24.2895 299.631 24.7752 299.752 25.175C299.872 25.5747 300.045 25.8788 300.271 26.0873C300.499 26.2958 300.773 26.4001 301.093 26.4001Z" fill="#5C5C62"/>
<path d="M287.877 54.86L290.83 49.0183V48.9667H287.426V48.2574H291.656V49.0054L288.715 54.86H287.877Z" fill="#5C5C62"/>
<path d="M294.869 54.9503C294.383 54.9503 293.97 54.8181 293.628 54.5537C293.286 54.2872 293.025 53.9014 292.844 53.3964C292.664 52.8891 292.574 52.2766 292.574 51.5587C292.574 50.8452 292.664 50.2358 292.844 49.7308C293.027 49.2235 293.289 48.8367 293.631 48.5701C293.975 48.3015 294.388 48.1671 294.869 48.1671C295.35 48.1671 295.762 48.3015 296.104 48.5701C296.448 48.8367 296.71 49.2235 296.89 49.7308C297.073 50.2358 297.164 50.8452 297.164 51.5587C297.164 52.2766 297.074 52.8891 296.894 53.3964C296.713 53.9014 296.452 54.2872 296.11 54.5537C295.768 54.8181 295.355 54.9503 294.869 54.9503ZM294.869 54.241C295.35 54.241 295.724 54.0089 295.991 53.5447C296.257 53.0804 296.391 52.4184 296.391 51.5587C296.391 50.987 296.329 50.5002 296.207 50.0983C296.087 49.6964 295.913 49.3901 295.685 49.1795C295.459 48.9688 295.187 48.8635 294.869 48.8635C294.392 48.8635 294.019 49.0989 293.75 49.5696C293.482 50.0381 293.347 50.7012 293.347 51.5587C293.347 52.1304 293.408 52.6162 293.528 53.0159C293.648 53.4157 293.821 53.7198 294.047 53.9283C294.275 54.1368 294.549 54.241 294.869 54.241Z" fill="#5C5C62"/>
<path d="M300.543 54.9503C300.057 54.9503 299.644 54.8181 299.302 54.5537C298.96 54.2872 298.699 53.9014 298.519 53.3964C298.338 52.8891 298.248 52.2766 298.248 51.5587C298.248 50.8452 298.338 50.2358 298.519 49.7308C298.701 49.2235 298.963 48.8367 299.305 48.5701C299.649 48.3015 300.062 48.1671 300.543 48.1671C301.025 48.1671 301.436 48.3015 301.778 48.5701C302.122 48.8367 302.384 49.2235 302.565 49.7308C302.747 50.2358 302.839 50.8452 302.839 51.5587C302.839 52.2766 302.748 52.8891 302.568 53.3964C302.387 53.9014 302.126 54.2872 301.784 54.5537C301.443 54.8181 301.029 54.9503 300.543 54.9503ZM300.543 54.241C301.025 54.241 301.399 54.0089 301.665 53.5447C301.932 53.0804 302.065 52.4184 302.065 51.5587C302.065 50.987 302.004 50.5002 301.881 50.0983C301.761 49.6964 301.587 49.3901 301.359 49.1795C301.133 48.9688 300.861 48.8635 300.543 48.8635C300.066 48.8635 299.693 49.0989 299.424 49.5696C299.156 50.0381 299.021 50.7012 299.021 51.5587C299.021 52.1304 299.082 52.6162 299.202 53.0159C299.322 53.4157 299.495 53.7198 299.721 53.9283C299.949 54.1368 300.223 54.241 300.543 54.241Z" fill="#5C5C62"/>
<path d="M289.863 82.7913C289.592 82.787 289.321 82.7354 289.051 82.6365C288.78 82.5377 288.533 82.3711 288.309 82.1368C288.086 81.9004 287.906 81.5812 287.771 81.1793C287.635 80.7752 287.568 80.268 287.568 79.6576C287.568 79.073 287.622 78.555 287.732 78.1037C287.842 77.6502 288.001 77.2687 288.209 76.9592C288.418 76.6475 288.669 76.4111 288.964 76.2499C289.26 76.0887 289.594 76.0081 289.966 76.0081C290.336 76.0081 290.665 76.0823 290.953 76.2306C291.243 76.3767 291.479 76.5809 291.662 76.8431C291.845 77.1053 291.963 77.4073 292.017 77.749H291.23C291.157 77.4524 291.015 77.2064 290.804 77.0108C290.594 76.8152 290.314 76.7174 289.966 76.7174C289.455 76.7174 289.052 76.9398 288.757 77.3847C288.465 77.8296 288.318 78.454 288.316 79.2578H288.367C288.488 79.0752 288.63 78.9193 288.796 78.7904C288.964 78.6593 289.148 78.5583 289.35 78.4873C289.552 78.4164 289.766 78.3809 289.992 78.3809C290.37 78.3809 290.716 78.4755 291.03 78.6646C291.344 78.8516 291.595 79.1106 291.785 79.4416C291.974 79.7705 292.068 80.1476 292.068 80.5732C292.068 80.9816 291.977 81.3555 291.794 81.6951C291.612 82.0326 291.355 82.3012 291.024 82.5011C290.695 82.6988 290.308 82.7956 289.863 82.7913ZM289.863 82.082C290.134 82.082 290.377 82.0143 290.592 81.8789C290.809 81.7435 290.98 81.5619 291.104 81.3341C291.231 81.1062 291.294 80.8526 291.294 80.5732C291.294 80.3002 291.233 80.052 291.111 79.8285C290.99 79.6028 290.824 79.4233 290.611 79.2901C290.4 79.1568 290.16 79.0902 289.889 79.0902C289.685 79.0902 289.494 79.131 289.318 79.2127C289.142 79.2922 288.987 79.4018 288.854 79.5416C288.723 79.6813 288.62 79.8414 288.544 80.0219C288.469 80.2003 288.432 80.3884 288.432 80.5861C288.432 80.8483 288.493 81.0933 288.615 81.3212C288.74 81.549 288.91 81.7327 289.125 81.8724C289.342 82.0122 289.588 82.082 289.863 82.082Z" fill="#5C5C62"/>
<path d="M295.49 82.7913C295.004 82.7913 294.59 82.6591 294.248 82.3947C293.907 82.1282 293.646 81.7424 293.465 81.2373C293.284 80.7301 293.194 80.1176 293.194 79.3997C293.194 78.6861 293.284 78.0768 293.465 77.5717C293.648 77.0645 293.91 76.6776 294.252 76.4111C294.596 76.1425 295.008 76.0081 295.49 76.0081C295.971 76.0081 296.383 76.1425 296.724 76.4111C297.068 76.6776 297.33 77.0645 297.511 77.5717C297.694 78.0768 297.785 78.6861 297.785 79.3997C297.785 80.1176 297.695 80.7301 297.514 81.2373C297.334 81.7424 297.073 82.1282 296.731 82.3947C296.389 82.6591 295.975 82.7913 295.49 82.7913ZM295.49 82.082C295.971 82.082 296.345 81.8499 296.612 81.3856C296.878 80.9214 297.011 80.2594 297.011 79.3997C297.011 78.828 296.95 78.3412 296.828 77.9393C296.707 77.5373 296.533 77.2311 296.305 77.0204C296.08 76.8098 295.808 76.7045 295.49 76.7045C295.012 76.7045 294.64 76.9398 294.371 77.4105C294.102 77.8791 293.968 78.5421 293.968 79.3997C293.968 79.9714 294.028 80.4571 294.148 80.8569C294.269 81.2567 294.442 81.5608 294.668 81.7693C294.895 81.9778 295.169 82.082 295.49 82.082Z" fill="#5C5C62"/>
<path d="M301.164 82.7913C300.678 82.7913 300.264 82.6591 299.923 82.3947C299.581 82.1282 299.32 81.7424 299.139 81.2373C298.959 80.7301 298.868 80.1176 298.868 79.3997C298.868 78.6861 298.959 78.0768 299.139 77.5717C299.322 77.0645 299.584 76.6776 299.926 76.4111C300.27 76.1425 300.682 76.0081 301.164 76.0081C301.645 76.0081 302.057 76.1425 302.399 76.4111C302.742 76.6776 303.005 77.0645 303.185 77.5717C303.368 78.0768 303.459 78.6861 303.459 79.3997C303.459 80.1176 303.369 80.7301 303.188 81.2373C303.008 81.7424 302.747 82.1282 302.405 82.3947C302.063 82.6591 301.649 82.7913 301.164 82.7913ZM301.164 82.082C301.645 82.082 302.019 81.8499 302.286 81.3856C302.552 80.9214 302.685 80.2594 302.685 79.3997C302.685 78.828 302.624 78.3412 302.502 77.9393C302.381 77.5373 302.207 77.2311 301.979 77.0204C301.754 76.8098 301.482 76.7045 301.164 76.7045C300.687 76.7045 300.314 76.9398 300.045 77.4105C299.776 77.8791 299.642 78.5421 299.642 79.3997C299.642 79.9714 299.702 80.4571 299.823 80.8569C299.943 81.2567 300.116 81.5608 300.342 81.7693C300.569 81.9778 300.843 82.082 301.164 82.082Z" fill="#5C5C62"/>
<path d="M289.734 110.632C289.356 110.632 289.015 110.557 288.712 110.407C288.409 110.256 288.166 110.05 287.984 109.788C287.801 109.525 287.701 109.227 287.684 108.891H288.457C288.488 109.19 288.623 109.437 288.864 109.633C289.107 109.826 289.397 109.923 289.734 109.923C290.005 109.923 290.246 109.86 290.456 109.733C290.669 109.606 290.836 109.432 290.956 109.21C291.078 108.987 291.14 108.734 291.14 108.453C291.14 108.165 291.076 107.908 290.95 107.682C290.825 107.455 290.653 107.275 290.434 107.144C290.214 107.013 289.964 106.946 289.683 106.944C289.48 106.942 289.273 106.973 289.06 107.038C288.848 107.1 288.672 107.18 288.535 107.279L287.787 107.189L288.187 103.939H291.617V104.649H288.857L288.625 106.596H288.664C288.799 106.488 288.969 106.399 289.173 106.328C289.377 106.257 289.59 106.222 289.811 106.222C290.216 106.222 290.576 106.319 290.892 106.512C291.21 106.703 291.459 106.966 291.639 107.299C291.822 107.632 291.913 108.012 291.913 108.44C291.913 108.861 291.819 109.237 291.63 109.568C291.443 109.897 291.185 110.157 290.856 110.349C290.527 110.538 290.153 110.632 289.734 110.632Z" fill="#5C5C62"/>
<path d="M295.348 110.632C294.862 110.632 294.448 110.5 294.107 110.236C293.765 109.969 293.504 109.583 293.323 109.078C293.143 108.571 293.052 107.959 293.052 107.241C293.052 106.527 293.143 105.918 293.323 105.413C293.506 104.905 293.768 104.519 294.11 104.252C294.454 103.983 294.866 103.849 295.348 103.849C295.829 103.849 296.241 103.983 296.583 104.252C296.926 104.519 297.189 104.905 297.369 105.413C297.552 105.918 297.643 106.527 297.643 107.241C297.643 107.959 297.553 108.571 297.372 109.078C297.192 109.583 296.931 109.969 296.589 110.236C296.247 110.5 295.834 110.632 295.348 110.632ZM295.348 109.923C295.829 109.923 296.203 109.691 296.47 109.227C296.736 108.762 296.869 108.1 296.869 107.241C296.869 106.669 296.808 106.182 296.686 105.78C296.565 105.378 296.391 105.072 296.163 104.861C295.938 104.651 295.666 104.545 295.348 104.545C294.871 104.545 294.498 104.781 294.229 105.252C293.96 105.72 293.826 106.383 293.826 107.241C293.826 107.812 293.886 108.298 294.007 108.698C294.127 109.098 294.3 109.402 294.526 109.61C294.753 109.819 295.028 109.923 295.348 109.923Z" fill="#5C5C62"/>
<path d="M301.022 110.632C300.536 110.632 300.122 110.5 299.781 110.236C299.439 109.969 299.178 109.583 298.997 109.078C298.817 108.571 298.726 107.959 298.726 107.241C298.726 106.527 298.817 105.918 298.997 105.413C299.18 104.905 299.442 104.519 299.784 104.252C300.128 103.983 300.54 103.849 301.022 103.849C301.503 103.849 301.915 103.983 302.257 104.252C302.601 104.519 302.863 104.905 303.043 105.413C303.226 105.918 303.317 106.527 303.317 107.241C303.317 107.959 303.227 108.571 303.047 109.078C302.866 109.583 302.605 109.969 302.263 110.236C301.921 110.5 301.508 110.632 301.022 110.632ZM301.022 109.923C301.503 109.923 301.877 109.691 302.144 109.227C302.41 108.762 302.544 108.1 302.544 107.241C302.544 106.669 302.482 106.182 302.36 105.78C302.239 105.378 302.065 105.072 301.838 104.861C301.612 104.651 301.34 104.545 301.022 104.545C300.545 104.545 300.172 104.781 299.903 105.252C299.635 105.72 299.5 106.383 299.5 107.241C299.5 107.812 299.56 108.298 299.681 108.698C299.801 109.098 299.974 109.402 300.2 109.61C300.428 109.819 300.702 109.923 301.022 109.923Z" fill="#5C5C62"/>
<path d="M287.516 137.029V136.371L290.418 131.78H290.895V132.799H290.572L288.38 136.268V136.32H292.287V137.029H287.516ZM290.624 138.383V131.78H291.385V138.383H290.624Z" fill="#5C5C62"/>
<path d="M295.649 138.473C295.163 138.473 294.75 138.341 294.408 138.077C294.066 137.81 293.805 137.424 293.625 136.919C293.444 136.412 293.354 135.8 293.354 135.082C293.354 134.368 293.444 133.759 293.625 133.254C293.807 132.746 294.069 132.36 294.411 132.093C294.755 131.824 295.168 131.69 295.649 131.69C296.131 131.69 296.542 131.824 296.884 132.093C297.228 132.36 297.49 132.746 297.671 133.254C297.853 133.759 297.945 134.368 297.945 135.082C297.945 135.8 297.854 136.412 297.674 136.919C297.493 137.424 297.232 137.81 296.89 138.077C296.549 138.341 296.135 138.473 295.649 138.473ZM295.649 137.764C296.131 137.764 296.505 137.532 296.771 137.068C297.038 136.603 297.171 135.941 297.171 135.082C297.171 134.51 297.11 134.023 296.987 133.621C296.867 133.219 296.693 132.913 296.465 132.702C296.239 132.492 295.967 132.386 295.649 132.386C295.172 132.386 294.799 132.622 294.531 133.092C294.262 133.561 294.128 134.224 294.128 135.082C294.128 135.653 294.188 136.139 294.308 136.539C294.428 136.939 294.601 137.243 294.827 137.451C295.055 137.66 295.329 137.764 295.649 137.764Z" fill="#5C5C62"/>
<path d="M301.323 138.473C300.838 138.473 300.424 138.341 300.082 138.077C299.74 137.81 299.479 137.424 299.299 136.919C299.118 136.412 299.028 135.8 299.028 135.082C299.028 134.368 299.118 133.759 299.299 133.254C299.481 132.746 299.744 132.36 300.085 132.093C300.429 131.824 300.842 131.69 301.323 131.69C301.805 131.69 302.216 131.824 302.558 132.093C302.902 132.36 303.164 132.746 303.345 133.254C303.527 133.759 303.619 134.368 303.619 135.082C303.619 135.8 303.528 136.412 303.348 136.919C303.167 137.424 302.906 137.81 302.565 138.077C302.223 138.341 301.809 138.473 301.323 138.473ZM301.323 137.764C301.805 137.764 302.179 137.532 302.445 137.068C302.712 136.603 302.845 135.941 302.845 135.082C302.845 134.51 302.784 134.023 302.661 133.621C302.541 133.219 302.367 132.913 302.139 132.702C301.913 132.492 301.641 132.386 301.323 132.386C300.846 132.386 300.473 132.622 300.205 133.092C299.936 133.561 299.802 134.224 299.802 135.082C299.802 135.653 299.862 136.139 299.982 136.539C300.103 136.939 300.276 137.243 300.501 137.451C300.729 137.66 301.003 137.764 301.323 137.764Z" fill="#5C5C62"/>
<path d="M289.902 166.314C289.476 166.314 289.097 166.241 288.764 166.095C288.433 165.949 288.169 165.746 287.974 165.486C287.78 165.223 287.675 164.919 287.658 164.573H288.47C288.488 164.786 288.561 164.97 288.69 165.125C288.819 165.277 288.987 165.395 289.196 165.479C289.404 165.563 289.635 165.605 289.889 165.605C290.173 165.605 290.424 165.556 290.643 165.457C290.862 165.358 291.034 165.22 291.159 165.044C291.284 164.868 291.346 164.664 291.346 164.431C291.346 164.189 291.286 163.975 291.166 163.79C291.045 163.603 290.869 163.457 290.637 163.351C290.405 163.246 290.121 163.193 289.786 163.193H289.257V162.484H289.786C290.048 162.484 290.278 162.437 290.476 162.342C290.676 162.248 290.831 162.114 290.943 161.943C291.057 161.771 291.114 161.569 291.114 161.336C291.114 161.113 291.065 160.918 290.966 160.753C290.867 160.587 290.727 160.458 290.547 160.366C290.368 160.274 290.158 160.227 289.915 160.227C289.687 160.227 289.472 160.269 289.27 160.353C289.07 160.435 288.907 160.554 288.78 160.711C288.653 160.866 288.584 161.053 288.573 161.272H287.8C287.813 160.926 287.917 160.623 288.112 160.363C288.308 160.101 288.564 159.896 288.88 159.75C289.198 159.604 289.547 159.531 289.928 159.531C290.336 159.531 290.686 159.614 290.979 159.779C291.271 159.943 291.495 160.159 291.652 160.427C291.809 160.696 291.888 160.986 291.888 161.298C291.888 161.67 291.79 161.987 291.594 162.249C291.401 162.511 291.138 162.693 290.804 162.794V162.845C291.221 162.914 291.547 163.091 291.781 163.377C292.016 163.661 292.133 164.012 292.133 164.431C292.133 164.79 292.035 165.113 291.839 165.399C291.646 165.682 291.382 165.906 291.046 166.069C290.711 166.233 290.329 166.314 289.902 166.314Z" fill="#5C5C62"/>
<path d="M295.605 166.314C295.119 166.314 294.705 166.182 294.364 165.918C294.022 165.651 293.761 165.265 293.58 164.76C293.4 164.253 293.309 163.64 293.309 162.923C293.309 162.209 293.4 161.6 293.58 161.095C293.763 160.587 294.025 160.201 294.367 159.934C294.711 159.665 295.123 159.531 295.605 159.531C296.086 159.531 296.498 159.665 296.84 159.934C297.184 160.201 297.446 160.587 297.626 161.095C297.809 161.6 297.9 162.209 297.9 162.923C297.9 163.64 297.81 164.253 297.63 164.76C297.449 165.265 297.188 165.651 296.846 165.918C296.504 166.182 296.091 166.314 295.605 166.314ZM295.605 165.605C296.086 165.605 296.46 165.373 296.727 164.909C296.993 164.444 297.127 163.782 297.127 162.923C297.127 162.351 297.065 161.864 296.943 161.462C296.822 161.06 296.648 160.754 296.421 160.543C296.195 160.333 295.923 160.227 295.605 160.227C295.128 160.227 294.755 160.463 294.486 160.933C294.218 161.402 294.083 162.065 294.083 162.923C294.083 163.494 294.143 163.98 294.264 164.38C294.384 164.78 294.557 165.084 294.783 165.292C295.011 165.501 295.285 165.605 295.605 165.605Z" fill="#5C5C62"/>
<path d="M301.279 166.314C300.793 166.314 300.38 166.182 300.038 165.918C299.696 165.651 299.435 165.265 299.254 164.76C299.074 164.253 298.984 163.64 298.984 162.923C298.984 162.209 299.074 161.6 299.254 161.095C299.437 160.587 299.699 160.201 300.041 159.934C300.385 159.665 300.798 159.531 301.279 159.531C301.76 159.531 302.172 159.665 302.514 159.934C302.858 160.201 303.12 160.587 303.3 161.095C303.483 161.6 303.574 162.209 303.574 162.923C303.574 163.64 303.484 164.253 303.304 164.76C303.123 165.265 302.862 165.651 302.52 165.918C302.178 166.182 301.765 166.314 301.279 166.314ZM301.279 165.605C301.76 165.605 302.134 165.373 302.401 164.909C302.667 164.444 302.801 163.782 302.801 162.923C302.801 162.351 302.739 161.864 302.617 161.462C302.497 161.06 302.322 160.754 302.095 160.543C301.869 160.333 301.597 160.227 301.279 160.227C300.802 160.227 300.429 160.463 300.16 160.933C299.892 161.402 299.757 162.065 299.757 162.923C299.757 163.494 299.817 163.98 299.938 164.38C300.058 164.78 300.231 165.084 300.457 165.292C300.685 165.501 300.959 165.605 301.279 165.605Z" fill="#5C5C62"/>
<path d="M287.671 194.065V193.485L289.85 191.099C290.106 190.819 290.317 190.577 290.482 190.37C290.648 190.162 290.77 189.966 290.85 189.784C290.931 189.599 290.972 189.405 290.972 189.203C290.972 188.971 290.916 188.77 290.804 188.6C290.695 188.431 290.544 188.299 290.353 188.207C290.162 188.115 289.947 188.068 289.708 188.068C289.455 188.068 289.233 188.121 289.044 188.226C288.857 188.33 288.712 188.475 288.609 188.662C288.508 188.849 288.457 189.068 288.457 189.319H287.697C287.697 188.932 287.786 188.593 287.964 188.301C288.143 188.008 288.385 187.78 288.693 187.617C289.002 187.454 289.349 187.372 289.734 187.372C290.121 187.372 290.464 187.454 290.763 187.617C291.061 187.78 291.296 188.001 291.465 188.278C291.635 188.555 291.72 188.864 291.72 189.203C291.72 189.446 291.676 189.684 291.588 189.916C291.502 190.146 291.351 190.403 291.137 190.686C290.924 190.968 290.628 191.312 290.25 191.718L288.767 193.304V193.356H291.836V194.065H287.671Z" fill="#5C5C62"/>
<path d="M295.321 194.155C294.835 194.155 294.422 194.023 294.08 193.759C293.738 193.492 293.477 193.106 293.297 192.601C293.116 192.094 293.026 191.481 293.026 190.764C293.026 190.05 293.116 189.441 293.297 188.936C293.479 188.428 293.741 188.042 294.083 187.775C294.427 187.506 294.84 187.372 295.321 187.372C295.803 187.372 296.214 187.506 296.556 187.775C296.9 188.042 297.162 188.428 297.343 188.936C297.525 189.441 297.617 190.05 297.617 190.764C297.617 191.481 297.526 192.094 297.346 192.601C297.165 193.106 296.904 193.492 296.562 193.759C296.221 194.023 295.807 194.155 295.321 194.155ZM295.321 193.446C295.803 193.446 296.177 193.214 296.443 192.75C296.71 192.285 296.843 191.623 296.843 190.764C296.843 190.192 296.782 189.705 296.659 189.303C296.539 188.901 296.365 188.595 296.137 188.384C295.911 188.174 295.639 188.068 295.321 188.068C294.844 188.068 294.471 188.304 294.202 188.774C293.934 189.243 293.799 189.906 293.799 190.764C293.799 191.335 293.86 191.821 293.98 192.221C294.1 192.621 294.273 192.925 294.499 193.133C294.727 193.342 295.001 193.446 295.321 193.446Z" fill="#5C5C62"/>
<path d="M300.995 194.155C300.51 194.155 300.096 194.023 299.754 193.759C299.412 193.492 299.151 193.106 298.971 192.601C298.79 192.094 298.7 191.481 298.7 190.764C298.7 190.05 298.79 189.441 298.971 188.936C299.153 188.428 299.416 188.042 299.757 187.775C300.101 187.506 300.514 187.372 300.995 187.372C301.477 187.372 301.888 187.506 302.23 187.775C302.574 188.042 302.836 188.428 303.017 188.936C303.199 189.441 303.291 190.05 303.291 190.764C303.291 191.481 303.2 192.094 303.02 192.601C302.839 193.106 302.578 193.492 302.237 193.759C301.895 194.023 301.481 194.155 300.995 194.155ZM300.995 193.446C301.477 193.446 301.851 193.214 302.117 192.75C302.384 192.285 302.517 191.623 302.517 190.764C302.517 190.192 302.456 189.705 302.333 189.303C302.213 188.901 302.039 188.595 301.811 188.384C301.585 188.174 301.313 188.068 300.995 188.068C300.518 188.068 300.145 188.304 299.877 188.774C299.608 189.243 299.474 189.906 299.474 190.764C299.474 191.335 299.534 191.821 299.654 192.221C299.774 192.621 299.948 192.925 300.173 193.133C300.401 193.342 300.675 193.446 300.995 193.446Z" fill="#5C5C62"/>
</g>
<defs>
<linearGradient id="paint0_linear_862_1132" x1="5.57849" y1="-1.78105e-05" x2="340.881" y2="142.434" gradientUnits="userSpaceOnUse">
<stop stop-color="#404048"/>
<stop offset="1" stop-color="#1B1B23"/>
</linearGradient>
<clipPath id="clip0_862_1132">
<rect width="311" height="248.164" rx="18.1572" fill="white"/>
</clipPath>
</defs>
</svg>
