<svg width="530" height="312" viewBox="0 0 530 312" fill="none" xmlns="http://www.w3.org/2000/svg">
<g clip-path="url(#clip0_856_717)">
<rect width="530" height="312" rx="22.8278" fill="url(#paint0_linear_856_717)"/>
<line x1="20.5512" y1="-4.26758" x2="20.5512" y2="276.514" stroke="#414148" stroke-opacity="0.47" stroke-width="1.14139"/>
<line x1="55.934" y1="-4.26758" x2="55.934" y2="276.514" stroke="#414148" stroke-opacity="0.47" stroke-width="1.14139"/>
<line x1="91.3168" y1="-4.26758" x2="91.3168" y2="276.514" stroke="#414148" stroke-opacity="0.47" stroke-width="1.14139"/>
<line x1="126.7" y1="-4.26758" x2="126.7" y2="276.514" stroke="#414148" stroke-opacity="0.47" stroke-width="1.14139"/>
<line x1="162.082" y1="-4.26758" x2="162.082" y2="276.514" stroke="#414148" stroke-opacity="0.47" stroke-width="1.14139"/>
<line x1="197.467" y1="-4.26758" x2="197.467" y2="276.514" stroke="#414148" stroke-opacity="0.47" stroke-width="1.14139"/>
<line x1="232.85" y1="-4.26758" x2="232.85" y2="276.514" stroke="#414148" stroke-opacity="0.47" stroke-width="1.14139"/>
<line x1="268.233" y1="-4.26758" x2="268.233" y2="276.514" stroke="#414148" stroke-opacity="0.47" stroke-width="1.14139"/>
<line x1="303.616" y1="-4.26758" x2="303.616" y2="276.514" stroke="#414148" stroke-opacity="0.47" stroke-width="1.14139"/>
<line x1="338.998" y1="-4.26758" x2="338.998" y2="276.514" stroke="#414148" stroke-opacity="0.47" stroke-width="1.14139"/>
<line x1="374.381" y1="-4.26758" x2="374.381" y2="276.514" stroke="#414148" stroke-opacity="0.47" stroke-width="1.14139"/>
<line x1="409.766" y1="-4.26758" x2="409.766" y2="276.514" stroke="#414148" stroke-opacity="0.47" stroke-width="1.14139"/>
<line x1="445.149" y1="-4.26758" x2="445.149" y2="276.514" stroke="#414148" stroke-opacity="0.47" stroke-width="1.14139"/>
<line x1="480.532" y1="-4.83789" x2="480.532" y2="277.086" stroke="#414148" stroke-opacity="0.47" stroke-width="1.14139"/>
<line x1="480" y1="28.8324" x2="-29" y2="28.8324" stroke="#414148" stroke-opacity="0.47" stroke-width="1.14139"/>
<line x1="480" y1="64.2152" x2="-29" y2="64.2152" stroke="#414148" stroke-opacity="0.47" stroke-width="1.14139"/>
<line x1="480" y1="99.599" x2="-29" y2="99.599" stroke="#414148" stroke-opacity="0.47" stroke-width="1.14139"/>
<line x1="480" y1="134.982" x2="-29" y2="134.982" stroke="#414148" stroke-opacity="0.47" stroke-width="1.14139"/>
<line x1="480" y1="170.365" x2="-29" y2="170.365" stroke="#414148" stroke-opacity="0.47" stroke-width="1.14139"/>
<line x1="480" y1="205.748" x2="-29" y2="205.748" stroke="#414148" stroke-opacity="0.47" stroke-width="1.14139"/>
<line x1="480" y1="241.131" x2="-29" y2="241.131" stroke="#414148" stroke-opacity="0.47" stroke-width="1.14139"/>
<line x1="480" y1="276.514" x2="-29" y2="276.514" stroke="#414148" stroke-opacity="0.47" stroke-width="1.14139"/>
<rect x="30.252" y="119.573" width="6.84834" height="82.1801" rx="3.42417" fill="#FFBC35"/>
<path d="M33.6758 115.008L33.6758 208.602" stroke="#FFBC35" stroke-width="1.14139" stroke-linecap="round"/>
<rect x="41.666" y="152.674" width="6.84834" height="49.0798" rx="3.42417" fill="#2E56FF"/>
<path d="M45.0898 148.108L45.0898 205.178" stroke="#2E56FF" stroke-width="1.14139" stroke-linecap="round"/>
<rect x="53.0801" y="105.877" width="6.84834" height="49.0798" rx="3.42417" fill="#2E56FF"/>
<path d="M56.5039 101.312L56.5039 158.381" stroke="#2E56FF" stroke-width="1.14139" stroke-linecap="round"/>
<rect x="63.3516" y="81.9082" width="6.84834" height="26.252" rx="3.42417" fill="#2E56FF"/>
<path d="M66.7754 77.3428V130.988" stroke="#2E56FF" stroke-width="1.14139" stroke-linecap="round"/>
<rect x="74.7656" y="59.0801" width="6.84834" height="26.252" rx="3.42417" fill="#2E56FF"/>
<path d="M78.1895 54.5146V87.615" stroke="#2E56FF" stroke-width="1.14139" stroke-linecap="round"/>
<rect x="86.1797" y="41.959" width="6.84834" height="26.252" rx="3.42417" fill="#2E56FF"/>
<path d="M89.6035 37.3936V75.0594" stroke="#2E56FF" stroke-width="1.14139" stroke-linecap="round"/>
<rect x="96.4531" y="43.1006" width="6.84834" height="25.1106" rx="3.42417" fill="#FFBC35"/>
<path d="M99.877 39.6758V71.6347" stroke="#FFBC35" stroke-width="1.14139" stroke-linecap="round"/>
<rect x="107.867" y="64.7861" width="6.84834" height="112.998" rx="3.42417" fill="#FFBC35"/>
<path d="M111.291 61.3623L111.291 191.481" stroke="#FFBC35" stroke-width="1.14139" stroke-linecap="round"/>
<rect x="119.281" y="174.36" width="6.84834" height="7.98973" rx="3.42417" fill="#2E56FF"/>
<path d="M122.705 170.937V183.492" stroke="#2E56FF" stroke-width="1.14139" stroke-linecap="round"/>
<rect x="130.695" y="166.37" width="6.84834" height="11.4139" rx="3.42417" fill="#2E56FF"/>
<path d="M134.119 159.522V178.926" stroke="#2E56FF" stroke-width="1.14139" stroke-linecap="round"/>
<rect x="142.107" y="119.573" width="6.84834" height="50.2212" rx="3.42417" fill="#2E56FF"/>
<path d="M145.531 113.866V173.219" stroke="#2E56FF" stroke-width="1.14139" stroke-linecap="round"/>
<rect x="153.521" y="119.574" width="6.84834" height="47.9384" rx="3.42417" fill="#FFBC35"/>
<path d="M156.945 118.433V214.309" stroke="#FFBC35" stroke-width="1.14139" stroke-linecap="round"/>
<rect x="412.617" y="65.9287" width="6.84834" height="28.5348" rx="3.42417" fill="#2E56FF"/>
<path d="M416.041 64.7871V115.008" stroke="#2E56FF" stroke-width="1.14139" stroke-linecap="round"/>
<rect x="164.936" y="162.946" width="6.84834" height="38.8073" rx="3.42417" fill="#FFBC35"/>
<path d="M168.359 158.381V208.602" stroke="#FFBC35" stroke-width="1.14139" stroke-linecap="round"/>
<rect x="176.35" y="182.35" width="6.84834" height="20.545" rx="3.42417" fill="#2E56FF"/>
<path d="M179.773 178.926V207.461" stroke="#2E56FF" stroke-width="1.14139" stroke-linecap="round"/>
<rect x="379.518" y="107.019" width="6.84834" height="20.545" rx="3.42417" fill="#FFBC35"/>
<path d="M382.941 103.595V132.129" stroke="#FFBC35" stroke-width="1.14139" stroke-linecap="round"/>
<rect x="187.764" y="200.612" width="6.84834" height="20.545" rx="3.42417" fill="#FFBC35"/>
<path d="M191.188 194.905V223.44" stroke="#FFBC35" stroke-width="1.14139" stroke-linecap="round"/>
<rect x="435.445" y="100.17" width="6.84834" height="20.545" rx="3.42417" fill="#2E56FF"/>
<path d="M438.869 94.4629V122.998" stroke="#2E56FF" stroke-width="1.14139" stroke-linecap="round"/>
<rect x="199.178" y="197.188" width="6.84834" height="22.8278" rx="3.42417" fill="#2E56FF"/>
<path d="M202.602 194.904V224.58" stroke="#2E56FF" stroke-width="1.14139" stroke-linecap="round"/>
<rect x="401.205" y="93.3213" width="6.84834" height="22.8278" rx="3.42417" fill="#2E56FF"/>
<path d="M404.629 91.0391V120.715" stroke="#2E56FF" stroke-width="1.14139" stroke-linecap="round"/>
<rect x="210.592" y="197.188" width="6.84834" height="41.0901" rx="3.42417" fill="#FFBC35"/>
<path d="M214.016 194.904V246.267" stroke="#FFBC35" stroke-width="1.14139" stroke-linecap="round"/>
<rect x="220.865" y="229.146" width="6.84834" height="9.13112" rx="3.42417" fill="#2E56FF"/>
<path d="M224.289 214.31V242.844" stroke="#2E56FF" stroke-width="1.14139" stroke-linecap="round"/>
<rect x="232.279" y="229.146" width="6.84834" height="20.545" rx="3.42417" fill="#FFBC35"/>
<path d="M235.703 225.723V265.671" stroke="#FFBC35" stroke-width="1.14139" stroke-linecap="round"/>
<rect x="389.791" y="117.29" width="6.84834" height="20.545" rx="3.42417" fill="#2E56FF"/>
<path d="M393.215 113.866V153.815" stroke="#2E56FF" stroke-width="1.14139" stroke-linecap="round"/>
<rect x="243.691" y="213.168" width="6.84834" height="20.545" rx="3.42417" fill="#2E56FF"/>
<path d="M247.115 214.31V238.279" stroke="#2E56FF" stroke-width="1.14139" stroke-linecap="round"/>
<rect x="255.105" y="206.319" width="6.84834" height="10.2725" rx="3.42417" fill="#2E56FF"/>
<path d="M258.529 191.481V221.158" stroke="#2E56FF" stroke-width="1.14139" stroke-linecap="round"/>
<rect x="266.52" y="206.319" width="6.84834" height="41.0901" rx="3.42417" fill="#FFBC35"/>
<path d="M269.943 201.754V255.399" stroke="#FFBC35" stroke-width="1.14139" stroke-linecap="round"/>
<rect x="277.934" y="223.44" width="6.84834" height="23.9692" rx="3.42417" fill="#2E56FF"/>
<path d="M281.357 223.44V250.834" stroke="#2E56FF" stroke-width="1.14139" stroke-linecap="round"/>
<rect x="289.348" y="206.319" width="6.84834" height="19.4036" rx="3.42417" fill="#2E56FF"/>
<path d="M292.771 201.754V231.43" stroke="#2E56FF" stroke-width="1.14139" stroke-linecap="round"/>
<rect x="300.762" y="182.35" width="6.84834" height="25.1106" rx="3.42417" fill="#2E56FF"/>
<path d="M304.186 178.926V205.178" stroke="#2E56FF" stroke-width="1.14139" stroke-linecap="round"/>
<rect x="312.176" y="182.35" width="6.84834" height="19.4036" rx="3.42417" fill="#FFBC35"/>
<path d="M315.6 157.239V209.743" stroke="#FFBC35" stroke-width="1.14139" stroke-linecap="round"/>
<rect x="323.59" y="118.432" width="6.84834" height="83.3215" rx="3.42417" fill="#2E56FF"/>
<path d="M327.014 157.239V214.309" stroke="#2E56FF" stroke-width="1.14139" stroke-linecap="round"/>
<rect x="335.004" y="119.573" width="6.84834" height="47.9384" rx="3.42417" fill="#FFBC35"/>
<path d="M338.428 115.008V173.219" stroke="#FFBC35" stroke-width="1.14139" stroke-linecap="round"/>
<rect x="424.031" y="65.9277" width="6.84834" height="47.9384" rx="3.42417" fill="#FFBC35"/>
<path d="M427.455 61.3623V119.573" stroke="#FFBC35" stroke-width="1.14139" stroke-linecap="round"/>
<rect x="445.719" y="61.3623" width="6.84834" height="41.0901" rx="3.42417" fill="#2E56FF"/>
<path d="M449.143 56.7969V107.018" stroke="#2E56FF" stroke-width="1.14139" stroke-linecap="round"/>
<rect x="368.104" y="105.877" width="6.84834" height="71.9076" rx="3.42417" fill="#2E56FF"/>
<path d="M371.527 86.4736V194.906" stroke="#2E56FF" stroke-width="1.14139" stroke-linecap="round"/>
<rect x="346.418" y="166.37" width="6.84834" height="11.4139" rx="3.42417" fill="#FFBC35"/>
<path d="M349.842 158.381V178.926" stroke="#FFBC35" stroke-width="1.14139" stroke-linecap="round"/>
<rect x="457.133" y="53.3721" width="6.84834" height="11.4139" rx="3.42417" fill="#2E56FF"/>
<path d="M460.557 45.3828V69.352" stroke="#2E56FF" stroke-width="1.14139" stroke-linecap="round"/>
<rect x="357.832" y="175.501" width="6.84834" height="2.28278" rx="1.14139" fill="#FFBC35"/>
<path d="M361.256 172.077V181.208" stroke="#FFBC35" stroke-width="1.14139" stroke-linecap="round"/>
<rect x="18.8379" y="119.573" width="6.84834" height="18.2622" rx="3.42417" fill="#2E56FF"/>
<path d="M22.2617 117.29L22.2617 150.39" stroke="#2E56FF" stroke-width="1.14139" stroke-linecap="round"/>
<path d="M23.548 292.038C22.9373 292.038 22.4172 291.872 21.9875 291.539C21.5579 291.204 21.2296 290.719 21.0026 290.084C20.7756 289.446 20.6621 288.676 20.6621 287.774C20.6621 286.877 20.7756 286.111 21.0026 285.476C21.2323 284.838 21.5619 284.351 21.9916 284.016C22.4239 283.679 22.9427 283.51 23.548 283.51C24.1533 283.51 24.6708 283.679 25.1004 284.016C25.5327 284.351 25.8624 284.838 26.0894 285.476C26.3191 286.111 26.4339 286.877 26.4339 287.774C26.4339 288.676 26.3204 289.446 26.0934 290.084C25.8665 290.719 25.5381 291.204 25.1085 291.539C24.6789 291.872 24.1587 292.038 23.548 292.038ZM23.548 291.146C24.1533 291.146 24.6235 290.854 24.9585 290.271C25.2936 289.687 25.4611 288.855 25.4611 287.774C25.4611 287.055 25.3841 286.443 25.2301 285.938C25.0788 285.432 24.8599 285.047 24.5735 284.782C24.2898 284.518 23.9479 284.385 23.548 284.385C22.9481 284.385 22.4793 284.681 22.1415 285.273C21.8038 285.862 21.6349 286.696 21.6349 287.774C21.6349 288.493 21.7105 289.103 21.8619 289.606C22.0132 290.108 22.2307 290.491 22.5144 290.753C22.8009 291.015 23.1454 291.146 23.548 291.146Z" fill="#5C5C62"/>
<path d="M30.6817 292.038C30.071 292.038 29.5509 291.872 29.1212 291.539C28.6916 291.204 28.3633 290.719 28.1363 290.084C27.9093 289.446 27.7958 288.676 27.7958 287.774C27.7958 286.877 27.9093 286.111 28.1363 285.476C28.366 284.838 28.6956 284.351 29.1253 284.016C29.5576 283.679 30.0764 283.51 30.6817 283.51C31.287 283.51 31.8044 283.679 32.2341 284.016C32.6664 284.351 32.9961 284.838 33.2231 285.476C33.4528 286.111 33.5676 286.877 33.5676 287.774C33.5676 288.676 33.4541 289.446 33.2271 290.084C33.0002 290.719 32.6718 291.204 32.2422 291.539C31.8126 291.872 31.2924 292.038 30.6817 292.038ZM30.6817 291.146C31.287 291.146 31.7572 290.854 32.0922 290.271C32.4273 289.687 32.5948 288.855 32.5948 287.774C32.5948 287.055 32.5178 286.443 32.3638 285.938C32.2125 285.432 31.9936 285.047 31.7072 284.782C31.4234 284.518 31.0816 284.385 30.6817 284.385C30.0818 284.385 29.613 284.681 29.2752 285.273C28.9375 285.862 28.7686 286.696 28.7686 287.774C28.7686 288.493 28.8442 289.103 28.9956 289.606C29.1469 290.108 29.3644 290.491 29.6481 290.753C29.9346 291.015 30.2791 291.146 30.6817 291.146Z" fill="#5C5C62"/>
<path d="M35.8212 290.862C35.6212 290.862 35.4497 290.791 35.3064 290.648C35.1632 290.504 35.0916 290.333 35.0916 290.133C35.0916 289.933 35.1632 289.761 35.3064 289.618C35.4497 289.475 35.6212 289.403 35.8212 289.403C36.0212 289.403 36.1927 289.475 36.336 289.618C36.4792 289.761 36.5508 289.933 36.5508 290.133C36.5508 290.265 36.517 290.387 36.4495 290.498C36.3846 290.608 36.2968 290.698 36.186 290.765C36.0779 290.83 35.9563 290.862 35.8212 290.862ZM35.8212 286.663C35.6212 286.663 35.4497 286.592 35.3064 286.448C35.1632 286.305 35.0916 286.134 35.0916 285.934C35.0916 285.734 35.1632 285.562 35.3064 285.419C35.4497 285.276 35.6212 285.204 35.8212 285.204C36.0212 285.204 36.1927 285.276 36.336 285.419C36.4792 285.562 36.5508 285.734 36.5508 285.934C36.5508 286.066 36.517 286.188 36.4495 286.298C36.3846 286.409 36.2968 286.498 36.186 286.566C36.0779 286.631 35.9563 286.663 35.8212 286.663Z" fill="#5C5C62"/>
<path d="M41.1694 283.623V291.924H40.1642V284.677H40.1156L38.089 286.023V285.001L40.1642 283.623H41.1694Z" fill="#5C5C62"/>
<path d="M46.1509 292.038C45.6753 292.038 45.247 291.943 44.866 291.754C44.485 291.565 44.1796 291.305 43.95 290.976C43.7203 290.646 43.5946 290.271 43.573 289.849H44.5458C44.5836 290.225 44.7539 290.535 45.0565 290.781C45.3618 291.024 45.7266 291.146 46.1509 291.146C46.4913 291.146 46.794 291.066 47.0588 290.907C47.3263 290.747 47.5357 290.529 47.687 290.25C47.8411 289.969 47.9181 289.652 47.9181 289.298C47.9181 288.936 47.8384 288.613 47.6789 288.329C47.5222 288.043 47.306 287.817 47.0304 287.652C46.7548 287.487 46.44 287.404 46.086 287.401C45.832 287.398 45.5713 287.437 45.3037 287.518C45.0362 287.597 44.816 287.698 44.6431 287.822L43.7027 287.709L44.2053 283.623H48.518V284.515H45.0484L44.7566 286.963H44.8052C44.9754 286.828 45.1889 286.716 45.4456 286.627C45.7023 286.538 45.9698 286.493 46.2481 286.493C46.7562 286.493 47.2088 286.615 47.606 286.858C48.0059 287.098 48.3193 287.428 48.5463 287.847C48.776 288.266 48.8909 288.744 48.8909 289.282C48.8909 289.811 48.772 290.284 48.5342 290.7C48.2991 291.114 47.9748 291.441 47.5614 291.681C47.148 291.919 46.6778 292.038 46.1509 292.038Z" fill="#5C5C62"/>
<path d="M83.7156 292.038C83.1049 292.038 82.5847 291.872 82.1551 291.539C81.7255 291.204 81.3971 290.719 81.1702 290.084C80.9432 289.446 80.8297 288.676 80.8297 287.774C80.8297 286.877 80.9432 286.111 81.1702 285.476C81.3999 284.838 81.7295 284.351 82.1592 284.016C82.5915 283.679 83.1103 283.51 83.7156 283.51C84.3209 283.51 84.8383 283.679 85.268 284.016C85.7003 284.351 86.03 284.838 86.257 285.476C86.4867 286.111 86.6015 286.877 86.6015 287.774C86.6015 288.676 86.488 289.446 86.261 290.084C86.034 290.719 85.7057 291.204 85.2761 291.539C84.8465 291.872 84.3263 292.038 83.7156 292.038ZM83.7156 291.146C84.3209 291.146 84.7911 290.854 85.1261 290.271C85.4612 289.687 85.6287 288.855 85.6287 287.774C85.6287 287.055 85.5517 286.443 85.3977 285.938C85.2464 285.432 85.0275 285.047 84.7411 284.782C84.4573 284.518 84.1155 284.385 83.7156 284.385C83.1157 284.385 82.6469 284.681 82.3091 285.273C81.9714 285.862 81.8025 286.696 81.8025 287.774C81.8025 288.493 81.8781 289.103 82.0295 289.606C82.1808 290.108 82.3983 290.491 82.682 290.753C82.9685 291.015 83.313 291.146 83.7156 291.146Z" fill="#5C5C62"/>
<path d="M90.8493 292.038C90.2386 292.038 89.7184 291.872 89.2888 291.539C88.8592 291.204 88.5308 290.719 88.3039 290.084C88.0769 289.446 87.9634 288.676 87.9634 287.774C87.9634 286.877 88.0769 286.111 88.3039 285.476C88.5335 284.838 88.8632 284.351 89.2928 284.016C89.7252 283.679 90.244 283.51 90.8493 283.51C91.4546 283.51 91.972 283.679 92.4017 284.016C92.834 284.351 93.1637 284.838 93.3907 285.476C93.6204 286.111 93.7352 286.877 93.7352 287.774C93.7352 288.676 93.6217 289.446 93.3947 290.084C93.1677 290.719 92.8394 291.204 92.4098 291.539C91.9801 291.872 91.46 292.038 90.8493 292.038ZM90.8493 291.146C91.4546 291.146 91.9248 290.854 92.2598 290.271C92.5949 289.687 92.7624 288.855 92.7624 287.774C92.7624 287.055 92.6854 286.443 92.5314 285.938C92.3801 285.432 92.1612 285.047 91.8748 284.782C91.591 284.518 91.2492 284.385 90.8493 284.385C90.2494 284.385 89.7806 284.681 89.4428 285.273C89.1051 285.862 88.9362 286.696 88.9362 287.774C88.9362 288.493 89.0118 289.103 89.1631 289.606C89.3145 290.108 89.532 290.491 89.8157 290.753C90.1021 291.015 90.4467 291.146 90.8493 291.146Z" fill="#5C5C62"/>
<path d="M95.9888 290.862C95.7888 290.862 95.6172 290.791 95.474 290.648C95.3308 290.504 95.2592 290.333 95.2592 290.133C95.2592 289.933 95.3308 289.761 95.474 289.618C95.6172 289.475 95.7888 289.403 95.9888 289.403C96.1888 289.403 96.3603 289.475 96.5036 289.618C96.6468 289.761 96.7184 289.933 96.7184 290.133C96.7184 290.265 96.6846 290.387 96.617 290.498C96.5522 290.608 96.4644 290.698 96.3536 290.765C96.2455 290.83 96.1239 290.862 95.9888 290.862ZM95.9888 286.663C95.7888 286.663 95.6172 286.592 95.474 286.448C95.3308 286.305 95.2592 286.134 95.2592 285.934C95.2592 285.734 95.3308 285.562 95.474 285.419C95.6172 285.276 95.7888 285.204 95.9888 285.204C96.1888 285.204 96.3603 285.276 96.5036 285.419C96.6468 285.562 96.7184 285.734 96.7184 285.934C96.7184 286.066 96.6846 286.188 96.617 286.298C96.5522 286.409 96.4644 286.498 96.3536 286.566C96.2455 286.631 96.1239 286.663 95.9888 286.663Z" fill="#5C5C62"/>
<path d="M101.224 292.038C100.689 292.038 100.212 291.946 99.7928 291.762C99.3766 291.578 99.0456 291.323 98.7997 290.996C98.5565 290.666 98.4241 290.284 98.4025 289.849H99.4239C99.4455 290.117 99.5374 290.348 99.6995 290.542C99.8617 290.734 100.074 290.883 100.336 290.988C100.598 291.093 100.888 291.146 101.207 291.146C101.564 291.146 101.88 291.084 102.156 290.96C102.431 290.835 102.648 290.662 102.804 290.441C102.961 290.219 103.039 289.963 103.039 289.671C103.039 289.365 102.964 289.096 102.812 288.864C102.661 288.629 102.44 288.445 102.148 288.313C101.856 288.18 101.499 288.114 101.078 288.114H100.413V287.223H101.078C101.407 287.223 101.696 287.163 101.945 287.044C102.196 286.925 102.392 286.758 102.533 286.542C102.676 286.325 102.748 286.071 102.748 285.78C102.748 285.499 102.685 285.254 102.561 285.046C102.437 284.838 102.261 284.676 102.034 284.56C101.81 284.443 101.545 284.385 101.24 284.385C100.953 284.385 100.683 284.438 100.429 284.543C100.178 284.646 99.9724 284.796 99.813 284.993C99.6536 285.188 99.5671 285.423 99.5536 285.699H98.5808C98.597 285.263 98.7281 284.882 98.974 284.555C99.2199 284.226 99.5414 283.969 99.9387 283.785C100.339 283.602 100.778 283.51 101.256 283.51C101.769 283.51 102.21 283.614 102.577 283.822C102.945 284.027 103.227 284.299 103.424 284.637C103.622 284.974 103.72 285.339 103.72 285.731C103.72 286.198 103.597 286.597 103.351 286.927C103.108 287.256 102.777 287.485 102.358 287.612V287.676C102.883 287.763 103.292 287.986 103.587 288.345C103.881 288.702 104.028 289.144 104.028 289.671C104.028 290.122 103.905 290.527 103.66 290.887C103.416 291.243 103.084 291.524 102.662 291.73C102.241 291.935 101.761 292.038 101.224 292.038Z" fill="#5C5C62"/>
<path d="M108.394 292.038C107.783 292.038 107.263 291.872 106.833 291.539C106.404 291.204 106.075 290.719 105.848 290.084C105.621 289.446 105.508 288.676 105.508 287.774C105.508 286.877 105.621 286.111 105.848 285.476C106.078 284.838 106.408 284.351 106.837 284.016C107.27 283.679 107.788 283.51 108.394 283.51C108.999 283.51 109.516 283.679 109.946 284.016C110.378 284.351 110.708 284.838 110.935 285.476C111.165 286.111 111.28 286.877 111.28 287.774C111.28 288.676 111.166 289.446 110.939 290.084C110.712 290.719 110.384 291.204 109.954 291.539C109.525 291.872 109.004 292.038 108.394 292.038ZM108.394 291.146C108.999 291.146 109.469 290.854 109.804 290.271C110.139 289.687 110.307 288.855 110.307 287.774C110.307 287.055 110.23 286.443 110.076 285.938C109.924 285.432 109.706 285.047 109.419 284.782C109.135 284.518 108.794 284.385 108.394 284.385C107.794 284.385 107.325 284.681 106.987 285.273C106.649 285.862 106.481 286.696 106.481 287.774C106.481 288.493 106.556 289.103 106.708 289.606C106.859 290.108 107.076 290.491 107.36 290.753C107.647 291.015 107.991 291.146 108.394 291.146Z" fill="#5C5C62"/>
<path d="M146.166 292.038C145.555 292.038 145.035 291.872 144.605 291.539C144.176 291.204 143.848 290.719 143.621 290.084C143.394 289.446 143.28 288.676 143.28 287.774C143.28 286.877 143.394 286.111 143.621 285.476C143.85 284.838 144.18 284.351 144.61 284.016C145.042 283.679 145.561 283.51 146.166 283.51C146.771 283.51 147.289 283.679 147.718 284.016C148.151 284.351 148.48 284.838 148.707 285.476C148.937 286.111 149.052 286.877 149.052 287.774C149.052 288.676 148.938 289.446 148.711 290.084C148.484 290.719 148.156 291.204 147.726 291.539C147.297 291.872 146.777 292.038 146.166 292.038ZM146.166 291.146C146.771 291.146 147.241 290.854 147.576 290.271C147.912 289.687 148.079 288.855 148.079 287.774C148.079 287.055 148.002 286.443 147.848 285.938C147.697 285.432 147.478 285.047 147.191 284.782C146.908 284.518 146.566 284.385 146.166 284.385C145.566 284.385 145.097 284.681 144.76 285.273C144.422 285.862 144.253 286.696 144.253 287.774C144.253 288.493 144.329 289.103 144.48 289.606C144.631 290.108 144.849 290.491 145.132 290.753C145.419 291.015 145.763 291.146 146.166 291.146Z" fill="#5C5C62"/>
<path d="M153.3 292.038C152.689 292.038 152.169 291.872 151.739 291.539C151.31 291.204 150.981 290.719 150.754 290.084C150.527 289.446 150.414 288.676 150.414 287.774C150.414 286.877 150.527 286.111 150.754 285.476C150.984 284.838 151.314 284.351 151.743 284.016C152.176 283.679 152.694 283.51 153.3 283.51C153.905 283.51 154.422 283.679 154.852 284.016C155.284 284.351 155.614 284.838 155.841 285.476C156.071 286.111 156.186 286.877 156.186 287.774C156.186 288.676 156.072 289.446 155.845 290.084C155.618 290.719 155.29 291.204 154.86 291.539C154.431 291.872 153.91 292.038 153.3 292.038ZM153.3 291.146C153.905 291.146 154.375 290.854 154.71 290.271C155.045 289.687 155.213 288.855 155.213 287.774C155.213 287.055 155.136 286.443 154.982 285.938C154.83 285.432 154.612 285.047 154.325 284.782C154.041 284.518 153.7 284.385 153.3 284.385C152.7 284.385 152.231 284.681 151.893 285.273C151.555 285.862 151.387 286.696 151.387 287.774C151.387 288.493 151.462 289.103 151.614 289.606C151.765 290.108 151.982 290.491 152.266 290.753C152.553 291.015 152.897 291.146 153.3 291.146Z" fill="#5C5C62"/>
<path d="M158.439 290.862C158.239 290.862 158.068 290.791 157.924 290.648C157.781 290.504 157.71 290.333 157.71 290.133C157.71 289.933 157.781 289.761 157.924 289.618C158.068 289.475 158.239 289.403 158.439 289.403C158.639 289.403 158.811 289.475 158.954 289.618C159.097 289.761 159.169 289.933 159.169 290.133C159.169 290.265 159.135 290.387 159.067 290.498C159.003 290.608 158.915 290.698 158.804 290.765C158.696 290.83 158.574 290.862 158.439 290.862ZM158.439 286.663C158.239 286.663 158.068 286.592 157.924 286.448C157.781 286.305 157.71 286.134 157.71 285.934C157.71 285.734 157.781 285.562 157.924 285.419C158.068 285.276 158.239 285.204 158.439 285.204C158.639 285.204 158.811 285.276 158.954 285.419C159.097 285.562 159.169 285.734 159.169 285.934C159.169 286.066 159.135 286.188 159.067 286.298C159.003 286.409 158.915 286.498 158.804 286.566C158.696 286.631 158.574 286.663 158.439 286.663Z" fill="#5C5C62"/>
<path d="M160.675 290.222V289.395L164.322 283.623H164.922V284.904H164.517L161.761 289.265V289.33H166.673V290.222H160.675ZM164.582 291.924V283.623H165.538V291.924H164.582Z" fill="#5C5C62"/>
<path d="M170.786 292.038C170.311 292.038 169.882 291.943 169.501 291.754C169.12 291.565 168.815 291.305 168.585 290.976C168.356 290.646 168.23 290.271 168.208 289.849H169.181C169.219 290.225 169.389 290.535 169.692 290.781C169.997 291.024 170.362 291.146 170.786 291.146C171.127 291.146 171.429 291.066 171.694 290.907C171.962 290.747 172.171 290.529 172.322 290.25C172.477 289.969 172.554 289.652 172.554 289.298C172.554 288.936 172.474 288.613 172.314 288.329C172.158 288.043 171.941 287.817 171.666 287.652C171.39 287.487 171.075 287.404 170.721 287.401C170.467 287.398 170.207 287.437 169.939 287.518C169.672 287.597 169.451 287.698 169.279 287.822L168.338 287.709L168.841 283.623H173.153V284.515H169.684L169.392 286.963H169.441C169.611 286.828 169.824 286.716 170.081 286.627C170.338 286.538 170.605 286.493 170.884 286.493C171.392 286.493 171.844 286.615 172.241 286.858C172.641 287.098 172.955 287.428 173.182 287.847C173.411 288.266 173.526 288.744 173.526 289.282C173.526 289.811 173.407 290.284 173.17 290.7C172.935 291.114 172.61 291.441 172.197 291.681C171.783 291.919 171.313 292.038 170.786 292.038Z" fill="#5C5C62"/>
<path d="M208.616 292.038C208.006 292.038 207.485 291.872 207.056 291.539C206.626 291.204 206.298 290.719 206.071 290.084C205.844 289.446 205.73 288.676 205.73 287.774C205.73 286.877 205.844 286.111 206.071 285.476C206.301 284.838 206.63 284.351 207.06 284.016C207.492 283.679 208.011 283.51 208.616 283.51C209.222 283.51 209.739 283.679 210.169 284.016C210.601 284.351 210.931 284.838 211.158 285.476C211.387 286.111 211.502 286.877 211.502 287.774C211.502 288.676 211.389 289.446 211.162 290.084C210.935 290.719 210.606 291.204 210.177 291.539C209.747 291.872 209.227 292.038 208.616 292.038ZM208.616 291.146C209.222 291.146 209.692 290.854 210.027 290.271C210.362 289.687 210.529 288.855 210.529 287.774C210.529 287.055 210.452 286.443 210.298 285.938C210.147 285.432 209.928 285.047 209.642 284.782C209.358 284.518 209.016 284.385 208.616 284.385C208.016 284.385 207.548 284.681 207.21 285.273C206.872 285.862 206.703 286.696 206.703 287.774C206.703 288.493 206.779 289.103 206.93 289.606C207.082 290.108 207.299 290.491 207.583 290.753C207.869 291.015 208.214 291.146 208.616 291.146Z" fill="#5C5C62"/>
<path d="M215.961 283.623V291.924H214.956V284.677H214.907L212.88 286.023V285.001L214.956 283.623H215.961Z" fill="#5C5C62"/>
<path d="M219.062 290.862C218.862 290.862 218.69 290.791 218.547 290.648C218.404 290.504 218.332 290.333 218.332 290.133C218.332 289.933 218.404 289.761 218.547 289.618C218.69 289.475 218.862 289.403 219.062 289.403C219.261 289.403 219.433 289.475 219.576 289.618C219.719 289.761 219.791 289.933 219.791 290.133C219.791 290.265 219.757 290.387 219.69 290.498C219.625 290.608 219.537 290.698 219.426 290.765C219.318 290.83 219.197 290.862 219.062 290.862ZM219.062 286.663C218.862 286.663 218.69 286.592 218.547 286.448C218.404 286.305 218.332 286.134 218.332 285.934C218.332 285.734 218.404 285.562 218.547 285.419C218.69 285.276 218.862 285.204 219.062 285.204C219.261 285.204 219.433 285.276 219.576 285.419C219.719 285.562 219.791 285.734 219.791 285.934C219.791 286.066 219.757 286.188 219.69 286.298C219.625 286.409 219.537 286.498 219.426 286.566C219.318 286.631 219.197 286.663 219.062 286.663Z" fill="#5C5C62"/>
<path d="M224.199 292.038C223.588 292.038 223.068 291.872 222.638 291.539C222.209 291.204 221.881 290.719 221.654 290.084C221.427 289.446 221.313 288.676 221.313 287.774C221.313 286.877 221.427 286.111 221.654 285.476C221.883 284.838 222.213 284.351 222.643 284.016C223.075 283.679 223.594 283.51 224.199 283.51C224.804 283.51 225.322 283.679 225.751 284.016C226.184 284.351 226.513 284.838 226.74 285.476C226.97 286.111 227.085 286.877 227.085 287.774C227.085 288.676 226.971 289.446 226.744 290.084C226.517 290.719 226.189 291.204 225.759 291.539C225.33 291.872 224.81 292.038 224.199 292.038ZM224.199 291.146C224.804 291.146 225.274 290.854 225.61 290.271C225.945 289.687 226.112 288.855 226.112 287.774C226.112 287.055 226.035 286.443 225.881 285.938C225.73 285.432 225.511 285.047 225.224 284.782C224.941 284.518 224.599 284.385 224.199 284.385C223.599 284.385 223.13 284.681 222.793 285.273C222.455 285.862 222.286 286.696 222.286 287.774C222.286 288.493 222.362 289.103 222.513 289.606C222.664 290.108 222.882 290.491 223.165 290.753C223.452 291.015 223.796 291.146 224.199 291.146Z" fill="#5C5C62"/>
<path d="M231.333 292.038C230.722 292.038 230.202 291.872 229.772 291.539C229.343 291.204 229.014 290.719 228.787 290.084C228.56 289.446 228.447 288.676 228.447 287.774C228.447 286.877 228.56 286.111 228.787 285.476C229.017 284.838 229.347 284.351 229.776 284.016C230.209 283.679 230.727 283.51 231.333 283.51C231.938 283.51 232.455 283.679 232.885 284.016C233.317 284.351 233.647 284.838 233.874 285.476C234.104 286.111 234.219 286.877 234.219 287.774C234.219 288.676 234.105 289.446 233.878 290.084C233.651 290.719 233.323 291.204 232.893 291.539C232.464 291.872 231.943 292.038 231.333 292.038ZM231.333 291.146C231.938 291.146 232.408 290.854 232.743 290.271C233.078 289.687 233.246 288.855 233.246 287.774C233.246 287.055 233.169 286.443 233.015 285.938C232.863 285.432 232.645 285.047 232.358 284.782C232.074 284.518 231.733 284.385 231.333 284.385C230.733 284.385 230.264 284.681 229.926 285.273C229.588 285.862 229.42 286.696 229.42 287.774C229.42 288.493 229.495 289.103 229.647 289.606C229.798 290.108 230.015 290.491 230.299 290.753C230.586 291.015 230.93 291.146 231.333 291.146Z" fill="#5C5C62"/>
<path d="M269.925 292.038C269.315 292.038 268.794 291.872 268.365 291.539C267.935 291.204 267.607 290.719 267.38 290.084C267.153 289.446 267.039 288.676 267.039 287.774C267.039 286.877 267.153 286.111 267.38 285.476C267.61 284.838 267.939 284.351 268.369 284.016C268.801 283.679 269.32 283.51 269.925 283.51C270.531 283.51 271.048 283.679 271.478 284.016C271.91 284.351 272.24 284.838 272.467 285.476C272.696 286.111 272.811 286.877 272.811 287.774C272.811 288.676 272.698 289.446 272.471 290.084C272.244 290.719 271.915 291.204 271.486 291.539C271.056 291.872 270.536 292.038 269.925 292.038ZM269.925 291.146C270.531 291.146 271.001 290.854 271.336 290.271C271.671 289.687 271.838 288.855 271.838 287.774C271.838 287.055 271.761 286.443 271.607 285.938C271.456 285.432 271.237 285.047 270.951 284.782C270.667 284.518 270.325 284.385 269.925 284.385C269.325 284.385 268.857 284.681 268.519 285.273C268.181 285.862 268.012 286.696 268.012 287.774C268.012 288.493 268.088 289.103 268.239 289.606C268.39 290.108 268.608 290.491 268.892 290.753C269.178 291.015 269.523 291.146 269.925 291.146Z" fill="#5C5C62"/>
<path d="M277.27 283.623V291.924H276.265V284.677H276.216L274.189 286.023V285.001L276.265 283.623H277.27Z" fill="#5C5C62"/>
<path d="M280.371 290.862C280.171 290.862 279.999 290.791 279.856 290.648C279.713 290.504 279.641 290.333 279.641 290.133C279.641 289.933 279.713 289.761 279.856 289.618C279.999 289.475 280.171 289.403 280.371 289.403C280.57 289.403 280.742 289.475 280.885 289.618C281.028 289.761 281.1 289.933 281.1 290.133C281.1 290.265 281.066 290.387 280.999 290.498C280.934 290.608 280.846 290.698 280.735 290.765C280.627 290.83 280.506 290.862 280.371 290.862ZM280.371 286.663C280.171 286.663 279.999 286.592 279.856 286.448C279.713 286.305 279.641 286.134 279.641 285.934C279.641 285.734 279.713 285.562 279.856 285.419C279.999 285.276 280.171 285.204 280.371 285.204C280.57 285.204 280.742 285.276 280.885 285.419C281.028 285.562 281.1 285.734 281.1 285.934C281.1 286.066 281.066 286.188 280.999 286.298C280.934 286.409 280.846 286.498 280.735 286.566C280.627 286.631 280.506 286.663 280.371 286.663Z" fill="#5C5C62"/>
<path d="M285.719 283.623V291.924H284.714V284.677H284.665L282.638 286.023V285.001L284.714 283.623H285.719Z" fill="#5C5C62"/>
<path d="M290.7 292.038C290.225 292.038 289.796 291.943 289.415 291.754C289.034 291.565 288.729 291.305 288.499 290.976C288.27 290.646 288.144 290.271 288.122 289.849H289.095C289.133 290.225 289.303 290.535 289.606 290.781C289.911 291.024 290.276 291.146 290.7 291.146C291.041 291.146 291.343 291.066 291.608 290.907C291.876 290.747 292.085 290.529 292.236 290.25C292.39 289.969 292.467 289.652 292.467 289.298C292.467 288.936 292.388 288.613 292.228 288.329C292.072 288.043 291.855 287.817 291.58 287.652C291.304 287.487 290.989 287.404 290.635 287.401C290.381 287.398 290.121 287.437 289.853 287.518C289.586 287.597 289.365 287.698 289.192 287.822L288.252 287.709L288.755 283.623H293.067V284.515H289.598L289.306 286.963H289.354C289.525 286.828 289.738 286.716 289.995 286.627C290.252 286.538 290.519 286.493 290.797 286.493C291.305 286.493 291.758 286.615 292.155 286.858C292.555 287.098 292.869 287.428 293.096 287.847C293.325 288.266 293.44 288.744 293.44 289.282C293.44 289.811 293.321 290.284 293.083 290.7C292.848 291.114 292.524 291.441 292.111 291.681C291.697 291.919 291.227 292.038 290.7 292.038Z" fill="#5C5C62"/>
<path d="M328.952 292.038C328.341 292.038 327.821 291.872 327.391 291.539C326.961 291.204 326.633 290.719 326.406 290.084C326.179 289.446 326.066 288.676 326.066 287.774C326.066 286.877 326.179 286.111 326.406 285.476C326.636 284.838 326.965 284.351 327.395 284.016C327.827 283.679 328.346 283.51 328.952 283.51C329.557 283.51 330.074 283.679 330.504 284.016C330.936 284.351 331.266 284.838 331.493 285.476C331.723 286.111 331.837 286.877 331.837 287.774C331.837 288.676 331.724 289.446 331.497 290.084C331.27 290.719 330.942 291.204 330.512 291.539C330.082 291.872 329.562 292.038 328.952 292.038ZM328.952 291.146C329.557 291.146 330.027 290.854 330.362 290.271C330.697 289.687 330.865 288.855 330.865 287.774C330.865 287.055 330.788 286.443 330.634 285.938C330.482 285.432 330.263 285.047 329.977 284.782C329.693 284.518 329.351 284.385 328.952 284.385C328.352 284.385 327.883 284.681 327.545 285.273C327.207 285.862 327.038 286.696 327.038 287.774C327.038 288.493 327.114 289.103 327.265 289.606C327.417 290.108 327.634 290.491 327.918 290.753C328.204 291.015 328.549 291.146 328.952 291.146Z" fill="#5C5C62"/>
<path d="M336.296 283.623V291.924H335.291V284.677H335.242L333.216 286.023V285.001L335.291 283.623H336.296Z" fill="#5C5C62"/>
<path d="M339.397 290.862C339.197 290.862 339.025 290.791 338.882 290.648C338.739 290.504 338.667 290.333 338.667 290.133C338.667 289.933 338.739 289.761 338.882 289.618C339.025 289.475 339.197 289.403 339.397 289.403C339.597 289.403 339.768 289.475 339.911 289.618C340.055 289.761 340.126 289.933 340.126 290.133C340.126 290.265 340.093 290.387 340.025 290.498C339.96 290.608 339.872 290.698 339.762 290.765C339.653 290.83 339.532 290.862 339.397 290.862ZM339.397 286.663C339.197 286.663 339.025 286.592 338.882 286.448C338.739 286.305 338.667 286.134 338.667 285.934C338.667 285.734 338.739 285.562 338.882 285.419C339.025 285.276 339.197 285.204 339.397 285.204C339.597 285.204 339.768 285.276 339.911 285.419C340.055 285.562 340.126 285.734 340.126 285.934C340.126 286.066 340.093 286.188 340.025 286.298C339.96 286.409 339.872 286.498 339.762 286.566C339.653 286.631 339.532 286.663 339.397 286.663Z" fill="#5C5C62"/>
<path d="M344.631 292.038C344.096 292.038 343.619 291.946 343.201 291.762C342.785 291.578 342.454 291.323 342.208 290.996C341.964 290.666 341.832 290.284 341.81 289.849H342.832C342.853 290.117 342.945 290.348 343.107 290.542C343.27 290.734 343.482 290.883 343.744 290.988C344.006 291.093 344.296 291.146 344.615 291.146C344.972 291.146 345.288 291.084 345.564 290.96C345.839 290.835 346.055 290.662 346.212 290.441C346.369 290.219 346.447 289.963 346.447 289.671C346.447 289.365 346.372 289.096 346.22 288.864C346.069 288.629 345.847 288.445 345.556 288.313C345.264 288.18 344.907 288.114 344.486 288.114H343.821V287.223H344.486C344.815 287.223 345.104 287.163 345.353 287.044C345.604 286.925 345.8 286.758 345.941 286.542C346.084 286.325 346.155 286.071 346.155 285.78C346.155 285.499 346.093 285.254 345.969 285.046C345.845 284.838 345.669 284.676 345.442 284.56C345.218 284.443 344.953 284.385 344.648 284.385C344.361 284.385 344.091 284.438 343.837 284.543C343.586 284.646 343.38 284.796 343.221 284.993C343.062 285.188 342.975 285.423 342.962 285.699H341.989C342.005 285.263 342.136 284.882 342.382 284.555C342.628 284.226 342.949 283.969 343.347 283.785C343.746 283.602 344.186 283.51 344.664 283.51C345.177 283.51 345.618 283.614 345.985 283.822C346.353 284.027 346.635 284.299 346.832 284.637C347.03 284.974 347.128 285.339 347.128 285.731C347.128 286.198 347.005 286.597 346.759 286.927C346.516 287.256 346.185 287.485 345.766 287.612V287.676C346.291 287.763 346.7 287.986 346.995 288.345C347.289 288.702 347.436 289.144 347.436 289.671C347.436 290.122 347.313 290.527 347.067 290.887C346.824 291.243 346.492 291.524 346.07 291.73C345.649 291.935 345.169 292.038 344.631 292.038Z" fill="#5C5C62"/>
<path d="M351.802 292.038C351.191 292.038 350.671 291.872 350.241 291.539C349.811 291.204 349.483 290.719 349.256 290.084C349.029 289.446 348.916 288.676 348.916 287.774C348.916 286.877 349.029 286.111 349.256 285.476C349.486 284.838 349.816 284.351 350.245 284.016C350.678 283.679 351.196 283.51 351.802 283.51C352.407 283.51 352.924 283.679 353.354 284.016C353.786 284.351 354.116 284.838 354.343 285.476C354.573 286.111 354.688 286.877 354.688 287.774C354.688 288.676 354.574 289.446 354.347 290.084C354.12 290.719 353.792 291.204 353.362 291.539C352.932 291.872 352.412 292.038 351.802 292.038ZM351.802 291.146C352.407 291.146 352.877 290.854 353.212 290.271C353.547 289.687 353.715 288.855 353.715 287.774C353.715 287.055 353.638 286.443 353.484 285.938C353.332 285.432 353.114 285.047 352.827 284.782C352.543 284.518 352.202 284.385 351.802 284.385C351.202 284.385 350.733 284.681 350.395 285.273C350.057 285.862 349.888 286.696 349.888 287.774C349.888 288.493 349.964 289.103 350.116 289.606C350.267 290.108 350.484 290.491 350.768 290.753C351.054 291.015 351.399 291.146 351.802 291.146Z" fill="#5C5C62"/>
<path d="M390.261 292.038C389.65 292.038 389.13 291.872 388.7 291.539C388.27 291.204 387.942 290.719 387.715 290.084C387.488 289.446 387.375 288.676 387.375 287.774C387.375 286.877 387.488 286.111 387.715 285.476C387.945 284.838 388.274 284.351 388.704 284.016C389.136 283.679 389.655 283.51 390.261 283.51C390.866 283.51 391.383 283.679 391.813 284.016C392.245 284.351 392.575 284.838 392.802 285.476C393.032 286.111 393.146 286.877 393.146 287.774C393.146 288.676 393.033 289.446 392.806 290.084C392.579 290.719 392.251 291.204 391.821 291.539C391.391 291.872 390.871 292.038 390.261 292.038ZM390.261 291.146C390.866 291.146 391.336 290.854 391.671 290.271C392.006 289.687 392.174 288.855 392.174 287.774C392.174 287.055 392.097 286.443 391.943 285.938C391.791 285.432 391.572 285.047 391.286 284.782C391.002 284.518 390.66 284.385 390.261 284.385C389.661 284.385 389.192 284.681 388.854 285.273C388.516 285.862 388.347 286.696 388.347 287.774C388.347 288.493 388.423 289.103 388.574 289.606C388.726 290.108 388.943 290.491 389.227 290.753C389.513 291.015 389.858 291.146 390.261 291.146Z" fill="#5C5C62"/>
<path d="M397.605 283.623V291.924H396.6V284.677H396.551L394.525 286.023V285.001L396.6 283.623H397.605Z" fill="#5C5C62"/>
<path d="M400.706 290.862C400.506 290.862 400.334 290.791 400.191 290.648C400.048 290.504 399.976 290.333 399.976 290.133C399.976 289.933 400.048 289.761 400.191 289.618C400.334 289.475 400.506 289.403 400.706 289.403C400.906 289.403 401.077 289.475 401.22 289.618C401.364 289.761 401.435 289.933 401.435 290.133C401.435 290.265 401.401 290.387 401.334 290.498C401.269 290.608 401.181 290.698 401.071 290.765C400.962 290.83 400.841 290.862 400.706 290.862ZM400.706 286.663C400.506 286.663 400.334 286.592 400.191 286.448C400.048 286.305 399.976 286.134 399.976 285.934C399.976 285.734 400.048 285.562 400.191 285.419C400.334 285.276 400.506 285.204 400.706 285.204C400.906 285.204 401.077 285.276 401.22 285.419C401.364 285.562 401.435 285.734 401.435 285.934C401.435 286.066 401.401 286.188 401.334 286.298C401.269 286.409 401.181 286.498 401.071 286.566C400.962 286.631 400.841 286.663 400.706 286.663Z" fill="#5C5C62"/>
<path d="M402.941 290.222V289.395L406.589 283.623H407.189V284.904H406.784L404.027 289.265V289.33H408.94V290.222H402.941ZM406.848 291.924V283.623H407.805V291.924H406.848Z" fill="#5C5C62"/>
<path d="M413.053 292.038C412.577 292.038 412.149 291.943 411.768 291.754C411.387 291.565 411.082 291.305 410.852 290.976C410.622 290.646 410.497 290.271 410.475 289.849H411.448C411.486 290.225 411.656 290.535 411.959 290.781C412.264 291.024 412.629 291.146 413.053 291.146C413.393 291.146 413.696 291.066 413.961 290.907C414.228 290.747 414.438 290.529 414.589 290.25C414.743 289.969 414.82 289.652 414.82 289.298C414.82 288.936 414.74 288.613 414.581 288.329C414.424 288.043 414.208 287.817 413.932 287.652C413.657 287.487 413.342 287.404 412.988 287.401C412.734 287.398 412.473 287.437 412.206 287.518C411.938 287.597 411.718 287.698 411.545 287.822L410.605 287.709L411.107 283.623H415.42V284.515H411.95L411.659 286.963H411.707C411.877 286.828 412.091 286.716 412.348 286.627C412.604 286.538 412.872 286.493 413.15 286.493C413.658 286.493 414.111 286.615 414.508 286.858C414.908 287.098 415.221 287.428 415.448 287.847C415.678 288.266 415.793 288.744 415.793 289.282C415.793 289.811 415.674 290.284 415.436 290.7C415.201 291.114 414.877 291.441 414.463 291.681C414.05 291.919 413.58 292.038 413.053 292.038Z" fill="#5C5C62"/>
<path d="M451.57 292.038C450.959 292.038 450.439 291.872 450.009 291.539C449.579 291.204 449.251 290.719 449.024 290.084C448.797 289.446 448.684 288.676 448.684 287.774C448.684 286.877 448.797 286.111 449.024 285.476C449.254 284.838 449.583 284.351 450.013 284.016C450.445 283.679 450.964 283.51 451.57 283.51C452.175 283.51 452.692 283.679 453.122 284.016C453.554 284.351 453.884 284.838 454.111 285.476C454.341 286.111 454.455 286.877 454.455 287.774C454.455 288.676 454.342 289.446 454.115 290.084C453.888 290.719 453.56 291.204 453.13 291.539C452.7 291.872 452.18 292.038 451.57 292.038ZM451.57 291.146C452.175 291.146 452.645 290.854 452.98 290.271C453.315 289.687 453.483 288.855 453.483 287.774C453.483 287.055 453.406 286.443 453.252 285.938C453.1 285.432 452.881 285.047 452.595 284.782C452.311 284.518 451.969 284.385 451.57 284.385C450.97 284.385 450.501 284.681 450.163 285.273C449.825 285.862 449.656 286.696 449.656 287.774C449.656 288.493 449.732 289.103 449.883 289.606C450.035 290.108 450.252 290.491 450.536 290.753C450.822 291.015 451.167 291.146 451.57 291.146Z" fill="#5C5C62"/>
<path d="M455.996 291.924V291.195L458.736 288.195C459.057 287.844 459.322 287.539 459.53 287.279C459.738 287.017 459.892 286.771 459.992 286.542C460.095 286.309 460.146 286.066 460.146 285.812C460.146 285.52 460.076 285.268 459.935 285.054C459.798 284.841 459.608 284.676 459.368 284.56C459.127 284.443 458.857 284.385 458.557 284.385C458.238 284.385 457.96 284.451 457.722 284.584C457.487 284.714 457.305 284.896 457.175 285.131C457.048 285.366 456.985 285.642 456.985 285.958H456.028C456.028 285.472 456.14 285.045 456.364 284.677C456.589 284.31 456.894 284.023 457.281 283.818C457.67 283.612 458.106 283.51 458.59 283.51C459.076 283.51 459.507 283.612 459.883 283.818C460.258 284.023 460.553 284.3 460.766 284.649C460.98 284.997 461.087 285.385 461.087 285.812C461.087 286.117 461.031 286.416 460.92 286.708C460.812 286.997 460.623 287.32 460.353 287.676C460.085 288.03 459.714 288.463 459.238 288.974L457.374 290.968V291.033H461.232V291.924H455.996Z" fill="#5C5C62"/>
<path d="M463.62 290.862C463.42 290.862 463.248 290.791 463.105 290.648C462.962 290.504 462.89 290.333 462.89 290.133C462.89 289.933 462.962 289.761 463.105 289.618C463.248 289.475 463.42 289.403 463.62 289.403C463.82 289.403 463.991 289.475 464.135 289.618C464.278 289.761 464.349 289.933 464.349 290.133C464.349 290.265 464.316 290.387 464.248 290.498C464.183 290.608 464.095 290.698 463.985 290.765C463.876 290.83 463.755 290.862 463.62 290.862ZM463.62 286.663C463.42 286.663 463.248 286.592 463.105 286.448C462.962 286.305 462.89 286.134 462.89 285.934C462.89 285.734 462.962 285.562 463.105 285.419C463.248 285.276 463.42 285.204 463.62 285.204C463.82 285.204 463.991 285.276 464.135 285.419C464.278 285.562 464.349 285.734 464.349 285.934C464.349 286.066 464.316 286.188 464.248 286.298C464.183 286.409 464.095 286.498 463.985 286.566C463.876 286.631 463.755 286.663 463.62 286.663Z" fill="#5C5C62"/>
<path d="M468.757 292.038C468.147 292.038 467.626 291.872 467.197 291.539C466.767 291.204 466.439 290.719 466.212 290.084C465.985 289.446 465.871 288.676 465.871 287.774C465.871 286.877 465.985 286.111 466.212 285.476C466.442 284.838 466.771 284.351 467.201 284.016C467.633 283.679 468.152 283.51 468.757 283.51C469.363 283.51 469.88 283.679 470.31 284.016C470.742 284.351 471.072 284.838 471.299 285.476C471.528 286.111 471.643 286.877 471.643 287.774C471.643 288.676 471.53 289.446 471.303 290.084C471.076 290.719 470.747 291.204 470.318 291.539C469.888 291.872 469.368 292.038 468.757 292.038ZM468.757 291.146C469.363 291.146 469.833 290.854 470.168 290.271C470.503 289.687 470.67 288.855 470.67 287.774C470.67 287.055 470.593 286.443 470.439 285.938C470.288 285.432 470.069 285.047 469.783 284.782C469.499 284.518 469.157 284.385 468.757 284.385C468.157 284.385 467.689 284.681 467.351 285.273C467.013 285.862 466.844 286.696 466.844 287.774C466.844 288.493 466.92 289.103 467.071 289.606C467.222 290.108 467.44 290.491 467.724 290.753C468.01 291.015 468.355 291.146 468.757 291.146Z" fill="#5C5C62"/>
<path d="M475.891 292.038C475.28 292.038 474.76 291.872 474.33 291.539C473.901 291.204 473.573 290.719 473.346 290.084C473.119 289.446 473.005 288.676 473.005 287.774C473.005 286.877 473.119 286.111 473.346 285.476C473.575 284.838 473.905 284.351 474.334 284.016C474.767 283.679 475.286 283.51 475.891 283.51C476.496 283.51 477.014 283.679 477.443 284.016C477.876 284.351 478.205 284.838 478.432 285.476C478.662 286.111 478.777 286.877 478.777 287.774C478.777 288.676 478.663 289.446 478.436 290.084C478.209 290.719 477.881 291.204 477.451 291.539C477.022 291.872 476.502 292.038 475.891 292.038ZM475.891 291.146C476.496 291.146 476.966 290.854 477.301 290.271C477.637 289.687 477.804 288.855 477.804 287.774C477.804 287.055 477.727 286.443 477.573 285.938C477.422 285.432 477.203 285.047 476.916 284.782C476.633 284.518 476.291 284.385 475.891 284.385C475.291 284.385 474.822 284.681 474.484 285.273C474.147 285.862 473.978 286.696 473.978 287.774C473.978 288.493 474.053 289.103 474.205 289.606C474.356 290.108 474.574 290.491 474.857 290.753C475.144 291.015 475.488 291.146 475.891 291.146Z" fill="#5C5C62"/>
<path d="M490.326 34.0827C489.77 34.0827 489.278 33.9841 488.851 33.7868C488.427 33.5868 488.096 33.3126 487.858 32.964C487.62 32.6127 487.503 32.2128 487.505 31.7642C487.503 31.413 487.571 31.0887 487.712 30.7915C487.853 30.4915 488.044 30.2416 488.288 30.0416C488.533 29.839 488.808 29.7106 489.11 29.6566V29.6079C488.713 29.5052 488.397 29.2823 488.162 28.9391C487.927 28.5933 487.811 28.2001 487.813 27.7596C487.811 27.3381 487.917 26.9612 488.134 26.6288C488.35 26.2964 488.647 26.0343 489.025 25.8425C489.406 25.6506 489.84 25.5547 490.326 25.5547C490.807 25.5547 491.237 25.6506 491.615 25.8425C491.994 26.0343 492.291 26.2964 492.507 26.6288C492.726 26.9612 492.837 27.3381 492.839 27.7596C492.837 28.2001 492.716 28.5933 492.479 28.9391C492.244 29.2823 491.931 29.5052 491.542 29.6079V29.6566C491.842 29.7106 492.112 29.839 492.353 30.0416C492.593 30.2416 492.785 30.4915 492.929 30.7915C493.072 31.0887 493.145 31.413 493.147 31.7642C493.145 32.2128 493.023 32.6127 492.783 32.964C492.545 33.3126 492.214 33.5868 491.79 33.7868C491.368 33.9841 490.88 34.0827 490.326 34.0827ZM490.326 33.191C490.702 33.191 491.026 33.1302 491.299 33.0086C491.572 32.887 491.783 32.7154 491.931 32.4938C492.08 32.2722 492.156 32.0128 492.158 31.7156C492.156 31.4022 492.075 31.1252 491.915 30.8847C491.756 30.6442 491.538 30.455 491.263 30.3172C490.99 30.1794 490.678 30.1105 490.326 30.1105C489.972 30.1105 489.656 30.1794 489.378 30.3172C489.102 30.455 488.885 30.6442 488.725 30.8847C488.569 31.1252 488.492 31.4022 488.494 31.7156C488.492 32.0128 488.563 32.2722 488.709 32.4938C488.858 32.7154 489.07 32.887 489.345 33.0086C489.621 33.1302 489.948 33.191 490.326 33.191ZM490.326 29.2512C490.624 29.2512 490.887 29.1918 491.117 29.0729C491.349 28.954 491.532 28.7878 491.664 28.5743C491.796 28.3609 491.864 28.1109 491.867 27.8245C491.864 27.5435 491.798 27.2989 491.668 27.0909C491.538 26.8801 491.359 26.718 491.129 26.6045C490.899 26.4883 490.632 26.4302 490.326 26.4302C490.016 26.4302 489.744 26.4883 489.512 26.6045C489.279 26.718 489.1 26.8801 488.973 27.0909C488.846 27.2989 488.783 27.5435 488.786 27.8245C488.783 28.1109 488.847 28.3609 488.977 28.5743C489.109 28.7878 489.291 28.954 489.524 29.0729C489.756 29.1918 490.024 29.2512 490.326 29.2512Z" fill="#5C5C62"/>
<path d="M497.408 34.0827C496.798 34.0827 496.278 33.9165 495.848 33.5841C495.418 33.2491 495.09 32.764 494.863 32.129C494.636 31.4913 494.522 30.7212 494.522 29.8187C494.522 28.9216 494.636 28.1555 494.863 27.5205C495.093 26.8828 495.422 26.3964 495.852 26.0613C496.284 25.7236 496.803 25.5547 497.408 25.5547C498.014 25.5547 498.531 25.7236 498.961 26.0613C499.393 26.3964 499.723 26.8828 499.95 27.5205C500.179 28.1555 500.294 28.9216 500.294 29.8187C500.294 30.7212 500.181 31.4913 499.954 32.129C499.727 32.764 499.398 33.2491 498.969 33.5841C498.539 33.9165 498.019 34.0827 497.408 34.0827ZM497.408 33.191C498.014 33.191 498.484 32.8991 498.819 32.3155C499.154 31.7318 499.321 30.8996 499.321 29.8187C499.321 29.0999 499.244 28.4879 499.09 27.9826C498.939 27.4773 498.72 27.0922 498.434 26.8274C498.15 26.5626 497.808 26.4302 497.408 26.4302C496.808 26.4302 496.34 26.7261 496.002 27.3178C495.664 27.9069 495.495 28.7405 495.495 29.8187C495.495 30.5375 495.571 31.1482 495.722 31.6508C495.874 32.1534 496.091 32.5357 496.375 32.7978C496.661 33.0599 497.006 33.191 497.408 33.191Z" fill="#5C5C62"/>
<path d="M504.542 34.0827C503.931 34.0827 503.411 33.9165 502.982 33.5841C502.552 33.2491 502.224 32.764 501.997 32.129C501.77 31.4913 501.656 30.7212 501.656 29.8187C501.656 28.9216 501.77 28.1555 501.997 27.5205C502.226 26.8828 502.556 26.3964 502.986 26.0613C503.418 25.7236 503.937 25.5547 504.542 25.5547C505.147 25.5547 505.665 25.7236 506.094 26.0613C506.527 26.3964 506.856 26.8828 507.083 27.5205C507.313 28.1555 507.428 28.9216 507.428 29.8187C507.428 30.7212 507.314 31.4913 507.087 32.129C506.86 32.764 506.532 33.2491 506.103 33.5841C505.673 33.9165 505.153 34.0827 504.542 34.0827ZM504.542 33.191C505.147 33.191 505.618 32.8991 505.953 32.3155C506.288 31.7318 506.455 30.8996 506.455 29.8187C506.455 29.0999 506.378 28.4879 506.224 27.9826C506.073 27.4773 505.854 27.0922 505.568 26.8274C505.284 26.5626 504.942 26.4302 504.542 26.4302C503.942 26.4302 503.473 26.7261 503.136 27.3178C502.798 27.9069 502.629 28.7405 502.629 29.8187C502.629 30.5375 502.705 31.1482 502.856 31.6508C503.007 32.1534 503.225 32.5357 503.508 32.7978C503.795 33.0599 504.139 33.191 504.542 33.191Z" fill="#5C5C62"/>
<path d="M487.927 68.9718L491.64 61.6274V61.5625H487.359V60.6708H492.677V61.6112L488.981 68.9718H487.927Z" fill="#5C5C62"/>
<path d="M496.717 69.0853C496.107 69.0853 495.586 68.9191 495.157 68.5868C494.727 68.2517 494.399 67.7667 494.172 67.1317C493.945 66.494 493.831 65.7239 493.831 64.8213C493.831 63.9242 493.945 63.1582 494.172 62.5231C494.402 61.8854 494.731 61.3991 495.161 61.064C495.593 60.7262 496.112 60.5573 496.717 60.5573C497.323 60.5573 497.84 60.7262 498.27 61.064C498.702 61.3991 499.032 61.8854 499.259 62.5231C499.488 63.1582 499.603 63.9242 499.603 64.8213C499.603 65.7239 499.49 66.494 499.263 67.1317C499.036 67.7667 498.707 68.2517 498.278 68.5868C497.848 68.9191 497.328 69.0853 496.717 69.0853ZM496.717 68.1936C497.323 68.1936 497.793 67.9018 498.128 67.3181C498.463 66.7345 498.63 65.9022 498.63 64.8213C498.63 64.1026 498.553 63.4905 498.399 62.9852C498.248 62.4799 498.029 62.0949 497.743 61.83C497.459 61.5652 497.117 61.4328 496.717 61.4328C496.117 61.4328 495.649 61.7287 495.311 62.3205C494.973 62.9096 494.804 63.7432 494.804 64.8213C494.804 65.5401 494.88 66.1508 495.031 66.6534C495.182 67.156 495.4 67.5383 495.684 67.8005C495.97 68.0626 496.315 68.1936 496.717 68.1936Z" fill="#5C5C62"/>
<path d="M503.851 69.0853C503.24 69.0853 502.72 68.9191 502.29 68.5868C501.861 68.2517 501.533 67.7667 501.306 67.1317C501.079 66.494 500.965 65.7239 500.965 64.8213C500.965 63.9242 501.079 63.1582 501.306 62.5231C501.535 61.8854 501.865 61.3991 502.295 61.064C502.727 60.7262 503.246 60.5573 503.851 60.5573C504.456 60.5573 504.974 60.7262 505.403 61.064C505.836 61.3991 506.165 61.8854 506.392 62.5231C506.622 63.1582 506.737 63.9242 506.737 64.8213C506.737 65.7239 506.623 66.494 506.396 67.1317C506.169 67.7667 505.841 68.2517 505.411 68.5868C504.982 68.9191 504.462 69.0853 503.851 69.0853ZM503.851 68.1936C504.456 68.1936 504.926 67.9018 505.261 67.3181C505.597 66.7345 505.764 65.9022 505.764 64.8213C505.764 64.1026 505.687 63.4905 505.533 62.9852C505.382 62.4799 505.163 62.0949 504.876 61.83C504.593 61.5652 504.251 61.4328 503.851 61.4328C503.251 61.4328 502.782 61.7287 502.444 62.3205C502.107 62.9096 501.938 63.7432 501.938 64.8213C501.938 65.5401 502.014 66.1508 502.165 66.6534C502.316 67.156 502.534 67.5383 502.817 67.8005C503.104 68.0626 503.448 68.1936 503.851 68.1936Z" fill="#5C5C62"/>
<path d="M490.424 104.088C490.083 104.083 489.743 104.018 489.402 103.893C489.062 103.769 488.751 103.56 488.47 103.265C488.189 102.968 487.963 102.567 487.793 102.061C487.623 101.553 487.538 100.916 487.538 100.148C487.538 99.4132 487.607 98.762 487.744 98.1946C487.882 97.6244 488.082 97.1448 488.344 96.7557C488.606 96.3639 488.923 96.0666 489.293 95.864C489.666 95.6613 490.086 95.56 490.553 95.56C491.018 95.56 491.432 95.6532 491.794 95.8396C492.158 96.0234 492.456 96.2801 492.685 96.6098C492.915 96.9394 493.064 97.3191 493.131 97.7487H492.142C492.05 97.3758 491.872 97.0664 491.607 96.8205C491.342 96.5746 490.991 96.4517 490.553 96.4517C489.91 96.4517 489.404 96.7314 489.033 97.2907C488.666 97.85 488.481 98.635 488.478 99.6456H488.543C488.694 99.416 488.874 99.22 489.082 99.0579C489.293 98.8931 489.525 98.7661 489.779 98.6769C490.033 98.5877 490.302 98.5432 490.586 98.5432C491.061 98.5432 491.496 98.662 491.891 98.8998C492.285 99.1349 492.602 99.4605 492.839 99.8767C493.077 100.29 493.196 100.764 493.196 101.299C493.196 101.813 493.081 102.283 492.852 102.71C492.622 103.134 492.299 103.472 491.883 103.723C491.469 103.972 490.983 104.093 490.424 104.088ZM490.424 103.196C490.764 103.196 491.069 103.111 491.34 102.941C491.613 102.771 491.827 102.542 491.984 102.256C492.144 101.969 492.223 101.651 492.223 101.299C492.223 100.956 492.146 100.644 491.992 100.363C491.841 100.079 491.631 99.8537 491.364 99.6862C491.099 99.5186 490.797 99.4349 490.456 99.4349C490.199 99.4349 489.96 99.4862 489.739 99.5889C489.517 99.6889 489.322 99.8267 489.155 100.002C488.99 100.178 488.86 100.379 488.766 100.606C488.671 100.831 488.624 101.067 488.624 101.316C488.624 101.645 488.701 101.953 488.855 102.24C489.012 102.526 489.225 102.757 489.495 102.933C489.768 103.108 490.078 103.196 490.424 103.196Z" fill="#5C5C62"/>
<path d="M497.498 104.088C496.887 104.088 496.367 103.922 495.937 103.589C495.507 103.254 495.179 102.769 494.952 102.134C494.725 101.497 494.612 100.726 494.612 99.824C494.612 98.9269 494.725 98.1608 494.952 97.5258C495.182 96.8881 495.511 96.4017 495.941 96.0666C496.373 95.7289 496.892 95.56 497.498 95.56C498.103 95.56 498.62 95.7289 499.05 96.0666C499.482 96.4017 499.812 96.8881 500.039 97.5258C500.269 98.1608 500.383 98.9269 500.383 99.824C500.383 100.726 500.27 101.497 500.043 102.134C499.816 102.769 499.488 103.254 499.058 103.589C498.628 103.922 498.108 104.088 497.498 104.088ZM497.498 103.196C498.103 103.196 498.573 102.904 498.908 102.321C499.243 101.737 499.411 100.905 499.411 99.824C499.411 99.1052 499.334 98.4932 499.18 97.9879C499.028 97.4826 498.809 97.0975 498.523 96.8327C498.239 96.5679 497.897 96.4355 497.498 96.4355C496.898 96.4355 496.429 96.7314 496.091 97.3231C495.753 97.9122 495.584 98.7458 495.584 99.824C495.584 100.543 495.66 101.153 495.811 101.656C495.963 102.159 496.18 102.541 496.464 102.803C496.75 103.065 497.095 103.196 497.498 103.196Z" fill="#5C5C62"/>
<path d="M504.631 104.088C504.021 104.088 503.5 103.922 503.071 103.589C502.641 103.254 502.313 102.769 502.086 102.134C501.859 101.497 501.745 100.726 501.745 99.824C501.745 98.9269 501.859 98.1608 502.086 97.5258C502.315 96.8881 502.645 96.4017 503.075 96.0666C503.507 95.7289 504.026 95.56 504.631 95.56C505.237 95.56 505.754 95.7289 506.184 96.0666C506.616 96.4017 506.946 96.8881 507.173 97.5258C507.402 98.1608 507.517 98.9269 507.517 99.824C507.517 100.726 507.404 101.497 507.177 102.134C506.95 102.769 506.621 103.254 506.192 103.589C505.762 103.922 505.242 104.088 504.631 104.088ZM504.631 103.196C505.237 103.196 505.707 102.904 506.042 102.321C506.377 101.737 506.544 100.905 506.544 99.824C506.544 99.1052 506.467 98.4932 506.313 97.9879C506.162 97.4826 505.943 97.0975 505.657 96.8327C505.373 96.5679 505.031 96.4355 504.631 96.4355C504.031 96.4355 503.563 96.7314 503.225 97.3231C502.887 97.9122 502.718 98.7458 502.718 99.824C502.718 100.543 502.794 101.153 502.945 101.656C503.096 102.159 503.314 102.541 503.598 102.803C503.884 103.065 504.229 103.196 504.631 103.196Z" fill="#5C5C62"/>
<path d="M490.261 139.091C489.786 139.091 489.358 138.996 488.977 138.807C488.596 138.618 488.29 138.358 488.061 138.029C487.831 137.699 487.705 137.323 487.684 136.902H488.656C488.694 137.277 488.864 137.588 489.167 137.834C489.472 138.077 489.837 138.199 490.261 138.199C490.602 138.199 490.905 138.119 491.169 137.96C491.437 137.8 491.646 137.581 491.798 137.303C491.952 137.022 492.029 136.705 492.029 136.351C492.029 135.989 491.949 135.666 491.79 135.382C491.633 135.095 491.417 134.87 491.141 134.705C490.865 134.54 490.551 134.456 490.197 134.454C489.943 134.451 489.682 134.49 489.414 134.571C489.147 134.65 488.927 134.751 488.754 134.875L487.813 134.762L488.316 130.676H492.629V131.568H489.159L488.867 134.016H488.916C489.086 133.881 489.3 133.769 489.556 133.68C489.813 133.59 490.08 133.546 490.359 133.546C490.867 133.546 491.319 133.667 491.717 133.911C492.117 134.151 492.43 134.481 492.657 134.9C492.887 135.318 493.001 135.797 493.001 136.334C493.001 136.864 492.883 137.337 492.645 137.753C492.41 138.166 492.085 138.493 491.672 138.734C491.259 138.972 490.788 139.091 490.261 139.091Z" fill="#5C5C62"/>
<path d="M497.319 139.091C496.708 139.091 496.188 138.924 495.759 138.592C495.329 138.257 495.001 137.772 494.774 137.137C494.547 136.499 494.433 135.729 494.433 134.827C494.433 133.93 494.547 133.163 494.774 132.528C495.003 131.891 495.333 131.404 495.763 131.069C496.195 130.732 496.714 130.563 497.319 130.563C497.924 130.563 498.442 130.732 498.872 131.069C499.304 131.404 499.634 131.891 499.861 132.528C500.09 133.163 500.205 133.93 500.205 134.827C500.205 135.729 500.092 136.499 499.865 137.137C499.638 137.772 499.309 138.257 498.88 138.592C498.45 138.924 497.93 139.091 497.319 139.091ZM497.319 138.199C497.924 138.199 498.395 137.907 498.73 137.323C499.065 136.74 499.232 135.907 499.232 134.827C499.232 134.108 499.155 133.496 499.001 132.991C498.85 132.485 498.631 132.1 498.345 131.835C498.061 131.571 497.719 131.438 497.319 131.438C496.719 131.438 496.25 131.734 495.913 132.326C495.575 132.915 495.406 133.748 495.406 134.827C495.406 135.545 495.482 136.156 495.633 136.659C495.784 137.161 496.002 137.544 496.286 137.806C496.572 138.068 496.917 138.199 497.319 138.199Z" fill="#5C5C62"/>
<path d="M504.453 139.091C503.842 139.091 503.322 138.924 502.892 138.592C502.463 138.257 502.134 137.772 501.907 137.137C501.68 136.499 501.567 135.729 501.567 134.827C501.567 133.93 501.68 133.163 501.907 132.528C502.137 131.891 502.467 131.404 502.896 131.069C503.329 130.732 503.848 130.563 504.453 130.563C505.058 130.563 505.576 130.732 506.005 131.069C506.438 131.404 506.767 131.891 506.994 132.528C507.224 133.163 507.339 133.93 507.339 134.827C507.339 135.729 507.225 136.499 506.998 137.137C506.771 137.772 506.443 138.257 506.013 138.592C505.584 138.924 505.064 139.091 504.453 139.091ZM504.453 138.199C505.058 138.199 505.528 137.907 505.863 137.323C506.198 136.74 506.366 135.907 506.366 134.827C506.366 134.108 506.289 133.496 506.135 132.991C505.984 132.485 505.765 132.1 505.478 131.835C505.195 131.571 504.853 131.438 504.453 131.438C503.853 131.438 503.384 131.734 503.046 132.326C502.709 132.915 502.54 133.748 502.54 134.827C502.54 135.545 502.615 136.156 502.767 136.659C502.918 137.161 503.136 137.544 503.419 137.806C503.706 138.068 504.05 138.199 504.453 138.199Z" fill="#5C5C62"/>
<path d="M487.473 172.277V171.451L491.121 165.679H491.721V166.96H491.315L488.559 171.321V171.386H493.472V172.277H487.473ZM491.38 173.98V165.679H492.337V173.98H491.38Z" fill="#5C5C62"/>
<path d="M497.698 174.093C497.087 174.093 496.567 173.927 496.138 173.595C495.708 173.26 495.38 172.775 495.153 172.14C494.926 171.502 494.812 170.732 494.812 169.829C494.812 168.932 494.926 168.166 495.153 167.531C495.382 166.893 495.712 166.407 496.142 166.072C496.574 165.734 497.093 165.565 497.698 165.565C498.303 165.565 498.821 165.734 499.251 166.072C499.683 166.407 500.013 166.893 500.24 167.531C500.469 168.166 500.584 168.932 500.584 169.829C500.584 170.732 500.471 171.502 500.244 172.14C500.017 172.775 499.688 173.26 499.259 173.595C498.829 173.927 498.309 174.093 497.698 174.093ZM497.698 173.202C498.303 173.202 498.774 172.91 499.109 172.326C499.444 171.742 499.611 170.91 499.611 169.829C499.611 169.11 499.534 168.498 499.38 167.993C499.229 167.488 499.01 167.103 498.724 166.838C498.44 166.573 498.098 166.441 497.698 166.441C497.098 166.441 496.629 166.737 496.292 167.328C495.954 167.917 495.785 168.751 495.785 169.829C495.785 170.548 495.861 171.159 496.012 171.661C496.163 172.164 496.381 172.546 496.665 172.808C496.951 173.07 497.296 173.202 497.698 173.202Z" fill="#5C5C62"/>
<path d="M504.832 174.093C504.221 174.093 503.701 173.927 503.271 173.595C502.842 173.26 502.513 172.775 502.286 172.14C502.059 171.502 501.946 170.732 501.946 169.829C501.946 168.932 502.059 168.166 502.286 167.531C502.516 166.893 502.846 166.407 503.275 166.072C503.708 165.734 504.227 165.565 504.832 165.565C505.437 165.565 505.955 165.734 506.384 166.072C506.817 166.407 507.146 166.893 507.373 167.531C507.603 168.166 507.718 168.932 507.718 169.829C507.718 170.732 507.604 171.502 507.377 172.14C507.15 172.775 506.822 173.26 506.392 173.595C505.963 173.927 505.443 174.093 504.832 174.093ZM504.832 173.202C505.437 173.202 505.907 172.91 506.242 172.326C506.577 171.742 506.745 170.91 506.745 169.829C506.745 169.11 506.668 168.498 506.514 167.993C506.363 167.488 506.144 167.103 505.857 166.838C505.574 166.573 505.232 166.441 504.832 166.441C504.232 166.441 503.763 166.737 503.425 167.328C503.088 167.917 502.919 168.751 502.919 169.829C502.919 170.548 502.994 171.159 503.146 171.661C503.297 172.164 503.515 172.546 503.798 172.808C504.085 173.07 504.429 173.202 504.832 173.202Z" fill="#5C5C62"/>
<path d="M490.472 209.096C489.937 209.096 489.46 209.004 489.041 208.82C488.625 208.637 488.294 208.381 488.048 208.054C487.805 207.725 487.673 207.342 487.651 206.907H488.673C488.694 207.175 488.786 207.406 488.948 207.6C489.11 207.792 489.322 207.941 489.585 208.046C489.847 208.152 490.137 208.204 490.456 208.204C490.813 208.204 491.129 208.142 491.405 208.018C491.68 207.893 491.896 207.721 492.053 207.499C492.21 207.277 492.288 207.021 492.288 206.729C492.288 206.423 492.212 206.155 492.061 205.922C491.91 205.687 491.688 205.503 491.396 205.371C491.105 205.239 490.748 205.172 490.326 205.172H489.662V204.281H490.326C490.656 204.281 490.945 204.221 491.194 204.102C491.445 203.983 491.641 203.816 491.781 203.6C491.925 203.384 491.996 203.13 491.996 202.838C491.996 202.557 491.934 202.312 491.81 202.104C491.686 201.896 491.51 201.734 491.283 201.618C491.059 201.501 490.794 201.443 490.488 201.443C490.202 201.443 489.932 201.496 489.678 201.601C489.427 201.704 489.221 201.854 489.062 202.051C488.902 202.246 488.816 202.481 488.802 202.757H487.83C487.846 202.322 487.977 201.941 488.223 201.614C488.469 201.284 488.79 201.027 489.187 200.844C489.587 200.66 490.026 200.568 490.505 200.568C491.018 200.568 491.459 200.672 491.826 200.88C492.194 201.085 492.476 201.357 492.673 201.695C492.87 202.032 492.969 202.397 492.969 202.789C492.969 203.257 492.846 203.655 492.6 203.985C492.357 204.314 492.026 204.543 491.607 204.67V204.735C492.131 204.821 492.541 205.044 492.835 205.403C493.13 205.76 493.277 206.202 493.277 206.729C493.277 207.18 493.154 207.585 492.908 207.945C492.665 208.301 492.333 208.582 491.911 208.788C491.49 208.993 491.01 209.096 490.472 209.096Z" fill="#5C5C62"/>
<path d="M497.642 209.096C497.032 209.096 496.512 208.93 496.082 208.597C495.652 208.262 495.324 207.777 495.097 207.142C494.87 206.505 494.757 205.734 494.757 204.832C494.757 203.935 494.87 203.169 495.097 202.534C495.327 201.896 495.656 201.41 496.086 201.075C496.518 200.737 497.037 200.568 497.642 200.568C498.248 200.568 498.765 200.737 499.195 201.075C499.627 201.41 499.957 201.896 500.184 202.534C500.413 203.169 500.528 203.935 500.528 204.832C500.528 205.734 500.415 206.505 500.188 207.142C499.961 207.777 499.633 208.262 499.203 208.597C498.773 208.93 498.253 209.096 497.642 209.096ZM497.642 208.204C498.248 208.204 498.718 207.912 499.053 207.329C499.388 206.745 499.556 205.913 499.556 204.832C499.556 204.113 499.479 203.501 499.325 202.996C499.173 202.49 498.954 202.105 498.668 201.841C498.384 201.576 498.042 201.443 497.642 201.443C497.043 201.443 496.574 201.739 496.236 202.331C495.898 202.92 495.729 203.754 495.729 204.832C495.729 205.551 495.805 206.161 495.956 206.664C496.108 207.167 496.325 207.549 496.609 207.811C496.895 208.073 497.24 208.204 497.642 208.204Z" fill="#5C5C62"/>
<path d="M504.776 209.096C504.165 209.096 503.645 208.93 503.216 208.597C502.786 208.262 502.458 207.777 502.231 207.142C502.004 206.505 501.89 205.734 501.89 204.832C501.89 203.935 502.004 203.169 502.231 202.534C502.46 201.896 502.79 201.41 503.22 201.075C503.652 200.737 504.171 200.568 504.776 200.568C505.381 200.568 505.899 200.737 506.329 201.075C506.761 201.41 507.091 201.896 507.317 202.534C507.547 203.169 507.662 203.935 507.662 204.832C507.662 205.734 507.549 206.505 507.322 207.142C507.095 207.777 506.766 208.262 506.337 208.597C505.907 208.93 505.387 209.096 504.776 209.096ZM504.776 208.204C505.381 208.204 505.852 207.912 506.187 207.329C506.522 206.745 506.689 205.913 506.689 204.832C506.689 204.113 506.612 203.501 506.458 202.996C506.307 202.49 506.088 202.105 505.802 201.841C505.518 201.576 505.176 201.443 504.776 201.443C504.176 201.443 503.707 201.739 503.37 202.331C503.032 202.92 502.863 203.754 502.863 204.832C502.863 205.551 502.939 206.161 503.09 206.664C503.241 207.167 503.459 207.549 503.743 207.811C504.029 208.073 504.373 208.204 504.776 208.204Z" fill="#5C5C62"/>
<path d="M487.667 243.985V243.255L490.407 240.256C490.729 239.905 490.994 239.599 491.202 239.34C491.41 239.078 491.564 238.832 491.664 238.602C491.767 238.37 491.818 238.127 491.818 237.873C491.818 237.581 491.748 237.328 491.607 237.115C491.469 236.901 491.28 236.737 491.04 236.62C490.799 236.504 490.529 236.446 490.229 236.446C489.91 236.446 489.632 236.512 489.394 236.645C489.159 236.774 488.977 236.957 488.847 237.192C488.72 237.427 488.656 237.703 488.656 238.019H487.7C487.7 237.532 487.812 237.105 488.036 236.738C488.261 236.37 488.566 236.084 488.952 235.879C489.341 235.673 489.778 235.571 490.261 235.571C490.748 235.571 491.179 235.673 491.554 235.879C491.93 236.084 492.225 236.361 492.438 236.71C492.652 237.058 492.758 237.446 492.758 237.873C492.758 238.178 492.703 238.477 492.592 238.769C492.484 239.058 492.295 239.381 492.025 239.737C491.757 240.091 491.386 240.524 490.91 241.034L489.046 243.028V243.093H492.904V243.985H487.667Z" fill="#5C5C62"/>
<path d="M497.286 244.099C496.675 244.099 496.155 243.932 495.725 243.6C495.296 243.265 494.967 242.78 494.74 242.145C494.513 241.507 494.4 240.737 494.4 239.835C494.4 238.937 494.513 238.171 494.74 237.536C494.97 236.899 495.3 236.412 495.729 236.077C496.162 235.739 496.68 235.571 497.286 235.571C497.891 235.571 498.408 235.739 498.838 236.077C499.27 236.412 499.6 236.899 499.827 237.536C500.057 238.171 500.172 238.937 500.172 239.835C500.172 240.737 500.058 241.507 499.831 242.145C499.604 242.78 499.276 243.265 498.846 243.6C498.417 243.932 497.896 244.099 497.286 244.099ZM497.286 243.207C497.891 243.207 498.361 242.915 498.696 242.331C499.031 241.748 499.199 240.915 499.199 239.835C499.199 239.116 499.122 238.504 498.968 237.998C498.817 237.493 498.598 237.108 498.311 236.843C498.027 236.578 497.686 236.446 497.286 236.446C496.686 236.446 496.217 236.742 495.879 237.334C495.542 237.923 495.373 238.756 495.373 239.835C495.373 240.553 495.448 241.164 495.6 241.667C495.751 242.169 495.968 242.552 496.252 242.814C496.539 243.076 496.883 243.207 497.286 243.207Z" fill="#5C5C62"/>
<path d="M504.419 244.099C503.809 244.099 503.289 243.932 502.859 243.6C502.429 243.265 502.101 242.78 501.874 242.145C501.647 241.507 501.534 240.737 501.534 239.835C501.534 238.937 501.647 238.171 501.874 237.536C502.104 236.899 502.433 236.412 502.863 236.077C503.295 235.739 503.814 235.571 504.419 235.571C505.025 235.571 505.542 235.739 505.972 236.077C506.404 236.412 506.734 236.899 506.961 237.536C507.19 238.171 507.305 238.937 507.305 239.835C507.305 240.737 507.192 241.507 506.965 242.145C506.738 242.78 506.41 243.265 505.98 243.6C505.55 243.932 505.03 244.099 504.419 244.099ZM504.419 243.207C505.025 243.207 505.495 242.915 505.83 242.331C506.165 241.748 506.333 240.915 506.333 239.835C506.333 239.116 506.256 238.504 506.102 237.998C505.95 237.493 505.731 237.108 505.445 236.843C505.161 236.578 504.819 236.446 504.419 236.446C503.82 236.446 503.351 236.742 503.013 237.334C502.675 237.923 502.506 238.756 502.506 239.835C502.506 240.553 502.582 241.164 502.733 241.667C502.885 242.169 503.102 242.552 503.386 242.814C503.672 243.076 504.017 243.207 504.419 243.207Z" fill="#5C5C62"/>
</g>
<defs>
<linearGradient id="paint0_linear_856_717" x1="9.50674" y1="-2.23919e-05" x2="516.079" y2="291.688" gradientUnits="userSpaceOnUse">
<stop stop-color="#404048"/>
<stop offset="1" stop-color="#1B1B23"/>
</linearGradient>
<clipPath id="clip0_856_717">
<rect width="530" height="312" rx="22.8278" fill="white"/>
</clipPath>
</defs>
</svg>
