<svg width="45" height="25" viewBox="0 0 45 25" fill="none" xmlns="http://www.w3.org/2000/svg">
<rect y="0.730469" width="45" height="24" rx="8" fill="#57575d" fill-opacity="1"/>
<path d="M13.4929 11.0131C13.4588 10.6694 13.3125 10.4023 13.054 10.212C12.7955 10.0217 12.4446 9.92649 12.0014 9.92649C11.7003 9.92649 11.446 9.9691 11.2386 10.0543C11.0313 10.1367 10.8722 10.2518 10.7614 10.3995C10.6534 10.5472 10.5994 10.7148 10.5994 10.9023C10.5938 11.0586 10.6264 11.195 10.6974 11.3114C10.7713 11.4279 10.8722 11.5288 11 11.614C11.1278 11.6964 11.2756 11.7688 11.4432 11.8313C11.6108 11.891 11.7898 11.9421 11.9801 11.9847L12.7642 12.1722C13.1449 12.2575 13.4943 12.3711 13.8125 12.5131C14.1307 12.6552 14.4063 12.8299 14.6392 13.0373C14.8722 13.2447 15.0526 13.489 15.1804 13.7702C15.3111 14.0515 15.3778 14.3739 15.3807 14.7376C15.3778 15.2717 15.2415 15.7347 14.9716 16.1268C14.7045 16.516 14.3182 16.8185 13.8125 17.0344C13.3097 17.2475 12.7031 17.354 11.9929 17.354C11.2884 17.354 10.6747 17.2461 10.152 17.0302C9.6321 16.8143 9.22585 16.4947 8.93324 16.0714C8.64347 15.6452 8.49148 15.1183 8.47727 14.4904H10.2628C10.2827 14.783 10.3665 15.0273 10.5142 15.2234C10.6648 15.4165 10.8651 15.5629 11.1151 15.6623C11.3679 15.7589 11.6534 15.8072 11.9716 15.8072C12.2841 15.8072 12.5554 15.7617 12.7855 15.6708C13.0185 15.5799 13.1989 15.4535 13.3267 15.2915C13.4545 15.1296 13.5185 14.9435 13.5185 14.7333C13.5185 14.5373 13.4602 14.3725 13.3438 14.239C13.2301 14.1055 13.0625 13.9918 12.8409 13.8981C12.6222 13.8043 12.3537 13.7191 12.0355 13.6424L11.0852 13.4038C10.3494 13.2248 9.76847 12.945 9.34233 12.5643C8.91619 12.1836 8.70455 11.6708 8.70739 11.0259C8.70455 10.4975 8.84517 10.0359 9.12926 9.64098C9.41619 9.24609 9.80966 8.93786 10.3097 8.71626C10.8097 8.49467 11.3778 8.38388 12.0142 8.38388C12.6619 8.38388 13.2273 8.49467 13.7102 8.71626C14.196 8.93786 14.5739 9.24609 14.8438 9.64098C15.1136 10.0359 15.2528 10.4933 15.2614 11.0131H13.4929ZM16.6218 17.2305V8.5032H22.5025V10.0245H18.467V12.104H22.1999V13.6254H18.467V15.7092H22.5195V17.2305H16.6218ZM23.9695 17.2305V8.5032H25.8146V15.7092H29.5561V17.2305H23.9695ZM30.7781 17.2305V8.5032H32.6232V15.7092H36.3647V17.2305H30.7781Z" fill="white"/>
</svg>
