<svg width="439" height="374" viewBox="0 0 439 374" fill="none" xmlns="http://www.w3.org/2000/svg">
<g filter="url(#filter0_i_744_717)">
<path fill-rule="evenodd" clip-rule="evenodd" d="M193.791 288.787C190.219 280.704 180.772 277.047 172.689 280.618L115.53 305.874C107.447 309.446 97.9995 305.789 94.4281 297.706L34.4662 162C30.8948 153.917 34.552 144.469 42.6347 140.898L277.87 36.9589C285.953 33.3876 295.401 37.0448 298.972 45.1275L314.523 80.3224C318.094 88.4051 327.542 92.0623 335.624 88.4909L352.731 80.9325C360.813 77.3611 370.261 81.0183 373.832 89.101L432.498 221.874C436.07 229.957 432.413 239.405 424.33 242.976L229.147 329.218C221.065 332.789 211.617 329.132 208.046 321.049L193.791 288.787Z" fill="#FFEFCF"/>
</g>
<g filter="url(#filter1_i_744_717)">
<path fill-rule="evenodd" clip-rule="evenodd" d="M165.791 278.787C162.219 270.704 152.772 267.047 144.689 270.618L87.5297 295.874C79.447 299.446 69.9995 295.789 66.4281 287.706L6.4662 152C2.89485 143.917 6.55203 134.469 14.6347 130.898L249.87 26.9589C257.953 23.3876 267.401 27.0448 270.972 35.1275L286.523 70.3224C290.094 78.4051 299.542 82.0623 307.624 78.4909L324.731 70.9325C332.813 67.3611 342.261 71.0183 345.832 79.101L404.498 211.874C408.07 219.957 404.413 229.405 396.33 232.976L201.147 319.218C193.065 322.789 183.617 319.132 180.046 311.049L165.791 278.787Z" fill="#FFBA2F"/>
</g>
<g filter="url(#filter2_i_744_717)">
<path d="M124.327 217.002V147.002H128.819V217.002H124.327ZM136.243 170.107C136.024 167.902 135.084 166.188 133.422 164.967C131.76 163.745 129.504 163.135 126.655 163.135C124.719 163.135 123.085 163.408 121.752 163.955C120.418 164.484 119.396 165.222 118.683 166.17C117.989 167.118 117.642 168.193 117.642 169.396C117.606 170.399 117.816 171.274 118.273 172.021C118.747 172.769 119.396 173.416 120.218 173.963C121.039 174.492 121.989 174.956 123.067 175.357C124.144 175.74 125.295 176.068 126.518 176.342L131.559 177.545C134.006 178.092 136.252 178.821 138.298 179.732C140.343 180.644 142.115 181.765 143.612 183.096C145.11 184.426 146.27 185.994 147.091 187.799C147.932 189.604 148.361 191.673 148.379 194.006C148.361 197.433 147.484 200.404 145.749 202.92C144.032 205.417 141.549 207.359 138.298 208.744C135.065 210.111 131.166 210.795 126.6 210.795C122.071 210.795 118.126 210.102 114.766 208.717C111.424 207.331 108.812 205.281 106.931 202.564C105.068 199.83 104.091 196.449 104 192.42H115.478C115.606 194.298 116.145 195.865 117.095 197.123C118.062 198.363 119.35 199.301 120.957 199.939C122.583 200.559 124.418 200.869 126.463 200.869C128.472 200.869 130.216 200.577 131.696 199.994C133.193 199.411 134.353 198.6 135.175 197.561C135.997 196.521 136.408 195.327 136.408 193.979C136.408 192.721 136.033 191.663 135.284 190.807C134.554 189.95 133.476 189.221 132.052 188.619C130.646 188.018 128.92 187.471 126.874 186.979L120.765 185.447C116.035 184.299 112.301 182.503 109.561 180.061C106.822 177.618 105.461 174.327 105.479 170.189C105.461 166.799 106.365 163.837 108.191 161.303C110.036 158.769 112.565 156.791 115.78 155.369C118.994 153.947 122.646 153.236 126.737 153.236C130.901 153.236 134.536 153.947 137.64 155.369C140.763 156.791 143.192 158.769 144.927 161.303C146.662 163.837 147.557 166.771 147.612 170.107H136.243Z" fill="white"/>
<path d="M198.292 154.002V210.002H186.43V165.24H186.101L173.253 173.279V162.779L187.142 154.002H198.292Z" fill="white"/>
<path d="M232.117 210.768C228.245 210.768 224.793 210.057 221.762 208.635C218.748 207.213 216.356 205.253 214.584 202.756C212.813 200.258 211.891 197.396 211.818 194.17H223.323C223.451 196.339 224.364 198.098 226.063 199.447C227.761 200.796 229.779 201.471 232.117 201.471C233.98 201.471 235.623 201.061 237.048 200.24C238.491 199.402 239.614 198.244 240.417 196.768C241.239 195.273 241.65 193.559 241.65 191.627C241.65 189.658 241.23 187.926 240.39 186.432C239.568 184.937 238.427 183.77 236.966 182.932C235.505 182.093 233.834 181.665 231.953 181.646C230.309 181.646 228.711 181.984 227.159 182.658C225.624 183.333 224.428 184.253 223.57 185.42L213.023 183.533L215.68 154.002H249.978V163.682H225.46L224.008 177.709H224.337C225.323 176.324 226.812 175.175 228.802 174.264C230.793 173.352 233.021 172.896 235.486 172.896C238.865 172.896 241.878 173.689 244.527 175.275C247.175 176.861 249.266 179.04 250.8 181.811C252.334 184.563 253.092 187.735 253.074 191.326C253.092 195.1 252.215 198.454 250.444 201.389C248.691 204.305 246.234 206.602 243.075 208.279C239.933 209.938 236.281 210.768 232.117 210.768Z" fill="white"/>
<path d="M283.345 211.232C278.633 211.214 274.578 210.057 271.181 207.76C267.803 205.463 265.2 202.136 263.374 197.779C261.566 193.423 260.671 188.182 260.689 182.057C260.689 175.95 261.593 170.745 263.401 166.443C265.228 162.141 267.83 158.869 271.209 156.627C274.606 154.367 278.651 153.236 283.345 153.236C288.038 153.236 292.074 154.367 295.453 156.627C298.85 158.887 301.461 162.169 303.288 166.471C305.114 170.755 306.018 175.95 306 182.057C306 188.2 305.087 193.45 303.26 197.807C301.452 202.163 298.859 205.49 295.48 207.787C292.102 210.084 288.056 211.232 283.345 211.232ZM283.345 201.416C286.559 201.416 289.125 199.803 291.042 196.576C292.96 193.35 293.91 188.51 293.891 182.057C293.891 177.809 293.453 174.273 292.576 171.447C291.718 168.622 290.494 166.498 288.906 165.076C287.335 163.654 285.481 162.943 283.345 162.943C280.148 162.943 277.592 164.538 275.674 167.729C273.756 170.919 272.789 175.695 272.77 182.057C272.77 186.359 273.199 189.95 274.058 192.83C274.934 195.692 276.167 197.843 277.756 199.283C279.345 200.705 281.208 201.416 283.345 201.416Z" fill="white"/>
</g>
<defs>
<filter id="filter0_i_744_717" x="33.0977" y="31.0898" width="400.77" height="299.496" filterUnits="userSpaceOnUse" color-interpolation-filters="sRGB">
<feFlood flood-opacity="0" result="BackgroundImageFix"/>
<feBlend mode="normal" in="SourceGraphic" in2="BackgroundImageFix" result="shape"/>
<feColorMatrix in="SourceAlpha" type="matrix" values="0 0 0 0 0 0 0 0 0 0 0 0 0 0 0 0 0 0 127 0" result="hardAlpha"/>
<feOffset dy="-4.5"/>
<feGaussianBlur stdDeviation="10"/>
<feComposite in2="hardAlpha" operator="arithmetic" k2="-1" k3="1"/>
<feColorMatrix type="matrix" values="0 0 0 0 1 0 0 0 0 1 0 0 0 0 1 0 0 0 0.37 0"/>
<feBlend mode="normal" in2="shape" result="effect1_innerShadow_744_717"/>
</filter>
<filter id="filter1_i_744_717" x="5.09766" y="21.0898" width="400.77" height="299.496" filterUnits="userSpaceOnUse" color-interpolation-filters="sRGB">
<feFlood flood-opacity="0" result="BackgroundImageFix"/>
<feBlend mode="normal" in="SourceGraphic" in2="BackgroundImageFix" result="shape"/>
<feColorMatrix in="SourceAlpha" type="matrix" values="0 0 0 0 0 0 0 0 0 0 0 0 0 0 0 0 0 0 127 0" result="hardAlpha"/>
<feOffset dy="-4.5"/>
<feGaussianBlur stdDeviation="10"/>
<feComposite in2="hardAlpha" operator="arithmetic" k2="-1" k3="1"/>
<feColorMatrix type="matrix" values="0 0 0 0 1 0 0 0 0 1 0 0 0 0 1 0 0 0 0.37 0"/>
<feBlend mode="normal" in2="shape" result="effect1_innerShadow_744_717"/>
</filter>
<filter id="filter2_i_744_717" x="104" y="147.002" width="202" height="70" filterUnits="userSpaceOnUse" color-interpolation-filters="sRGB">
<feFlood flood-opacity="0" result="BackgroundImageFix"/>
<feBlend mode="normal" in="SourceGraphic" in2="BackgroundImageFix" result="shape"/>
<feColorMatrix in="SourceAlpha" type="matrix" values="0 0 0 0 0 0 0 0 0 0 0 0 0 0 0 0 0 0 127 0" result="hardAlpha"/>
<feOffset/>
<feGaussianBlur stdDeviation="2.25"/>
<feComposite in2="hardAlpha" operator="arithmetic" k2="-1" k3="1"/>
<feColorMatrix type="matrix" values="0 0 0 0 1 0 0 0 0 1 0 0 0 0 1 0 0 0 1 0"/>
<feBlend mode="normal" in2="shape" result="effect1_innerShadow_744_717"/>
</filter>
</defs>
</svg>
